<?xml version="1.0" encoding="UTF-8"?>
<!-- Generator: visioncortex VTracer 0.6.12 -->
<svg version="1.1" xmlns="http://www.w3.org/2000/svg" width="2172" height="724">
<path d="M0,0 L40,0 L46,9 L62,36 L72,52 L84,71 L95,89 L107,108 L115,122 L120,130 L120,132 L123,130 L126,124 L132,115 L138,104 L146,91 L154,78 L168,56 L180,36 L193,15 L202,0 L242,0 L242,214 L194,214 L193,95 L178,119 L161,147 L150,165 L141,180 L136,189 L132,189 L109,189 L105,184 L102,183 L90,164 L75,140 L63,121 L50,100 L48,97 L47,214 L0,214 Z " fill="#081F35" transform="translate(708,258)"/>
<path d="M0,0 L48,0 L48,126 L55,120 L60,115 L77,98 L85,91 L94,82 L102,75 L113,65 L171,65 L169,69 L134,104 L129,109 L114,123 L109,128 L111,133 L125,150 L136,164 L147,178 L157,190 L167,203 L178,217 L182,221 L182,223 L121,223 L115,215 L108,207 L101,198 L90,184 L78,169 L72,161 L64,167 L54,177 L49,181 L48,223 L0,223 Z " fill="#071E34" transform="translate(506,249)"/>
<path d="M0,0 L22,0 L41,4 L57,10 L68,16 L79,25 L86,32 L93,43 L101,60 L103,71 L103,96 L101,108 L93,126 L86,136 L77,146 L64,155 L55,160 L32,167 L27,168 L-4,168 L-18,165 L-34,159 L-46,152 L-57,143 L-65,134 L-72,124 L-79,102 L-80,98 L-80,72 L-78,63 L-73,48 L-66,36 L-54,23 L-42,14 L-30,8 L-25,6 L-21,6 L-21,4 Z M5,40 L-11,46 L-19,52 L-24,58 L-28,68 L-30,77 L-30,93 L-27,105 L-22,114 L-15,121 L-9,125 L5,129 L19,129 L28,127 L37,122 L47,113 L53,100 L54,97 L54,74 L51,64 L45,54 L37,47 L27,42 L19,40 Z " fill="#071F35" transform="translate(1055,306)"/>
<path d="M0,0 L49,0 L54,10 L69,46 L84,82 L89,95 L94,106 L95,107 L105,82 L110,71 L111,68 L113,68 L114,62 L124,39 L129,28 L138,6 L141,0 L188,0 L185,10 L180,20 L177,27 L171,40 L168,49 L165,54 L162,61 L157,74 L152,84 L141,109 L125,145 L112,175 L101,196 L93,205 L82,213 L74,217 L65,220 L55,222 L36,222 L22,219 L13,215 L5,211 L1,208 L2,204 L12,185 L18,174 L22,176 L31,182 L40,185 L48,185 L58,181 L64,176 L68,168 L69,161 L51,120 L42,99 L36,86 L21,52 L11,29 L4,14 L0,4 Z " fill="#071F35" transform="translate(1551,310)"/>
<path d="M0,0 L18,0 L38,4 L49,9 L60,15 L69,22 L80,33 L85,41 L85,44 L87,44 L93,60 L95,72 L95,98 L-29,98 L-27,105 L-22,114 L-12,123 L1,128 L5,129 L26,129 L39,126 L50,120 L58,114 L71,127 L78,135 L84,141 L82,145 L73,153 L54,163 L48,165 L29,168 L-1,168 L-19,164 L-35,158 L-49,149 L-58,141 L-68,127 L-75,111 L-78,98 L-78,70 L-76,60 L-72,51 L-66,39 L-57,27 L-47,18 L-34,10 L-18,4 Z M1,38 L-10,42 L-19,48 L-25,55 L-29,63 L-30,71 L49,71 L48,62 L42,52 L32,43 L23,39 L15,38 Z " fill="#082036" transform="translate(1458,306)"/>
<path d="M0,0 L48,0 L49,93 L54,107 L60,114 L70,119 L73,120 L90,120 L100,117 L109,112 L116,104 L121,92 L122,86 L123,0 L172,0 L172,160 L124,160 L123,143 L114,151 L98,159 L87,162 L63,162 L50,161 L40,158 L28,152 L18,143 L12,136 L5,122 L0,106 Z " fill="#081F35" transform="translate(297,312)"/>
<path d="M0,0 L21,0 L35,3 L49,8 L58,14 L67,23 L69,26 L69,29 L71,29 L75,39 L78,48 L78,164 L31,164 L30,67 L26,56 L18,47 L8,43 L3,42 L-8,42 L-24,47 L-33,55 L-37,63 L-40,74 L-41,164 L-90,164 L-90,2 L-41,2 L-40,19 L-32,12 L-23,7 L-12,3 Z " fill="#082036" transform="translate(1274,306)"/>
<path d="M0,0 L15,0 L15,44 L-7,44 L-22,49 L-30,55 L-36,62 L-40,73 L-42,85 L-43,163 L-92,163 L-92,3 L-44,3 L-44,22 L-42,22 L-40,18 L-32,11 L-18,4 L-8,1 Z " fill="#071E34" transform="translate(262,309)"/>
<path d="M0,0 L9,0 L19,4 L25,11 L32,5 L37,2 L44,0 L54,0 L63,4 L68,8 L72,16 L74,22 L74,76 L54,76 L53,30 L50,23 L48,21 L37,21 L32,26 L30,32 L29,76 L9,76 L8,28 L4,22 L0,20 L-9,21 L-13,26 L-15,32 L-16,76 L-37,76 L-37,1 L-16,1 L-15,8 L-7,2 Z " fill="#0C2439" transform="translate(1938,394)"/>
<path d="M0,0 L10,0 L16,3 L24,12 L36,28 L50,46 L63,63 L69,71 L69,73 L32,73 L22,62 L15,57 L9,55 L2,55 L-5,58 L-18,70 L-20,73 L-59,73 L-57,69 L-46,55 L-35,41 L-24,27 L-12,11 L-3,1 Z " fill="#0AB198" transform="translate(1306,201)"/>
<path d="M0,0 L11,0 L19,2 L27,6 L36,14 L42,26 L44,32 L44,44 L41,55 L34,65 L26,72 L18,76 L11,77 L-4,77 L-18,70 L-25,63 L-30,53 L-32,45 L-32,32 L-28,19 L-21,10 L-11,3 Z M2,19 L-6,23 L-10,28 L-12,34 L-12,43 L-8,52 L0,58 L10,58 L17,54 L21,49 L23,43 L23,34 L20,26 L13,20 L9,19 Z " fill="#0A2237" transform="translate(1849,394)"/>
<path d="M0,0 L15,0 L25,3 L34,9 L39,16 L38,20 L25,28 L22,28 L18,22 L12,20 L4,20 L-3,23 L-8,30 L-8,46 L-2,55 L4,57 L12,57 L18,54 L23,49 L29,51 L40,59 L34,68 L24,75 L19,77 L2,77 L-12,73 L-21,66 L-27,57 L-30,47 L-30,29 L-22,13 L-14,6 L-6,2 Z " fill="#0C2338" transform="translate(1774,394)"/>
<path d="M0,0 L7,0 L13,3 L18,9 L18,21 L12,28 L8,30 L1,30 L-5,27 L-10,21 L-11,12 L-7,5 L-3,1 Z " fill="#0E2438" transform="translate(1717,442)"/>
<path d="M0,0 L59,0 L56,3 L-1,2 Z " fill="#09182D" transform="translate(621,312)"/>
<path d="M0,0 L4,2 L6,5 L29,5 L31,4 L32,7 L31,9 L4,9 L0,2 Z " fill="#28384A" transform="translate(811,441)"/>
</svg>
