<?xml version="1.0" encoding="UTF-8"?>
<!-- Generator: visioncortex VTracer 0.6.12 -->
<svg version="1.1" xmlns="http://www.w3.org/2000/svg" width="2172" height="724">
<path d="M0,0 L40,0 L40,213 L-6,213 L-7,94 L-24,122 L-37,144 L-49,164 L-62,186 L-64,190 L-90,190 L-96,181 L-108,160 L-125,132 L-137,111 L-146,96 L-146,94 L-148,94 L-148,213 L-194,213 L-194,1 L-153,1 L-137,28 L-122,53 L-106,81 L-91,107 L-78,129 L-78,131 L-76,131 L-74,126 L-64,108 L-54,91 L-41,69 L-26,44 L-13,22 Z " fill="#091B30" transform="translate(1015,283)"/>
<path d="M0,0 L47,0 L47,126 L55,119 L74,100 L82,93 L93,82 L101,75 L112,64 L167,64 L165,68 L138,95 L131,103 L104,130 L106,134 L116,147 L127,161 L138,175 L149,189 L160,203 L174,221 L174,223 L117,223 L106,209 L95,195 L81,177 L71,164 L70,162 L66,164 L55,174 L48,180 L47,223 L0,223 Z " fill="#081B2F" transform="translate(626,272)"/>
<path d="M0,0 L49,0 L50,91 L53,103 L59,112 L69,118 L72,119 L94,119 L103,115 L111,110 L117,103 L121,95 L123,85 L124,0 L171,0 L171,159 L125,159 L125,141 L123,141 L121,145 L107,154 L100,157 L86,161 L56,161 L39,156 L25,148 L15,139 L7,127 L2,114 L0,105 Z " fill="#091B2F" transform="translate(419,336)"/>
<path d="M0,0 L49,0 L63,34 L68,48 L72,56 L76,66 L87,92 L88,99 L90,99 L92,104 L94,101 L97,96 L101,85 L105,77 L109,66 L114,54 L132,10 L136,0 L181,0 L180,5 L166,39 L153,70 L129,126 L117,154 L113,165 L105,181 L98,193 L89,203 L80,210 L69,215 L54,218 L35,218 L19,214 L7,208 L1,204 L3,198 L11,183 L17,171 L22,173 L30,178 L36,180 L48,180 L57,177 L62,172 L67,164 L68,158 L49,115 L34,80 L16,39 L4,11 Z " fill="#081B2F" transform="translate(1625,337)"/>
<path d="M0,0 L13,0 L29,2 L45,7 L59,14 L70,23 L78,31 L87,46 L93,64 L94,71 L94,93 L90,109 L83,125 L76,134 L69,142 L58,150 L43,158 L27,162 L17,164 L-6,164 L-22,161 L-38,155 L-51,147 L-61,138 L-70,127 L-78,111 L-81,102 L-82,96 L-82,65 L-76,47 L-67,32 L-54,19 L-40,10 L-28,5 L-12,1 Z M-5,39 L-17,44 L-27,53 L-34,67 L-35,71 L-35,94 L-30,107 L-20,118 L-6,125 L-3,126 L12,126 L20,124 L31,118 L37,113 L42,106 L46,95 L47,89 L47,76 L45,65 L40,55 L30,45 L22,41 L16,39 Z " fill="#081B2F" transform="translate(1160,334)"/>
<path d="M0,0 L17,0 L34,3 L46,7 L59,14 L72,25 L81,38 L87,50 L91,63 L92,72 L92,95 L-29,95 L-24,107 L-18,115 L-7,122 L6,126 L24,126 L39,122 L50,115 L54,112 L58,114 L65,121 L72,129 L80,137 L78,141 L71,148 L55,157 L38,162 L29,164 L-1,164 L-22,159 L-38,151 L-47,145 L-56,137 L-65,125 L-70,115 L-73,108 L-76,91 L-76,71 L-73,57 L-67,43 L-59,31 L-46,18 L-32,9 L-17,3 Z M-1,36 L-13,41 L-22,49 L-28,59 L-29,68 L48,68 L46,59 L40,49 L31,41 L21,37 L17,36 Z " fill="#091B30" transform="translate(1534,334)"/>
<path d="M0,0 L16,0 L30,2 L45,8 L55,15 L62,22 L70,36 L74,48 L75,54 L75,161 L29,161 L28,67 L24,55 L17,47 L7,42 L4,41 L-9,41 L-18,43 L-27,48 L-34,55 L-38,63 L-40,72 L-41,161 L-87,161 L-87,2 L-43,2 L-43,20 L-27,8 L-13,2 Z " fill="#081A2F" transform="translate(1358,334)"/>
<path d="M0,0 L8,0 L8,43 L-17,44 L-29,48 L-39,55 L-45,64 L-48,74 L-49,161 L-101,161 L-101,3 L-51,3 L-50,21 L-42,13 L-30,6 L-14,1 Z " fill="#0A1C30" transform="translate(394,334)"/>
<path d="M0,0 L8,0 L18,5 L29,19 L41,34 L50,45 L60,58 L73,74 L77,79 L77,81 L33,81 L25,72 L15,65 L8,62 L-3,62 L-11,66 L-22,76 L-26,81 L-71,81 L-69,77 L-57,63 L-46,49 L-38,40 L-27,26 L-14,10 L-8,3 Z " fill="#22B498" transform="translate(1345,230)"/>
<path d="M0,0 L22,0 L34,3 L44,8 L52,16 L57,27 L57,93 L31,93 L30,85 L22,91 L13,94 L-7,94 L-18,90 L-26,84 L-31,76 L-32,70 L-32,61 L-28,52 L-19,44 L-13,41 L-4,40 L30,40 L29,33 L25,27 L21,24 L15,22 L0,22 L-12,26 L-16,29 L-19,29 L-27,14 L-26,10 L-14,4 Z M4,55 L-1,57 L-5,62 L-5,69 L0,75 L5,77 L15,77 L24,73 L29,67 L30,65 L30,55 Z " fill="#0B1D31" transform="translate(1860,403)"/>
<path d="M0,0 L27,0 L27,91 L0,91 Z " fill="#0A1C31" transform="translate(1934,405)"/>
<path d="M0,0 L10,0 L19,6 L21,10 L21,22 L18,27 L12,32 L9,33 L2,33 L-5,30 L-10,24 L-11,21 L-11,10 L-4,2 Z " fill="#0B1D31" transform="translate(1797,464)"/>
<path d="M0,0 L13,0 L19,4 L21,7 L21,17 L17,23 L9,26 L1,26 L-6,22 L-9,17 L-9,7 L-3,1 Z " fill="#0C1C30" transform="translate(1942,370)"/>
</svg>
