<?xml version="1.0" encoding="UTF-8"?>
<svg xmlns="http://www.w3.org/2000/svg" width="1600" height="480" viewBox="0 0 1600 480">
<rect x="0" y="0" width="1600" height="480" rx="47" ry="47" fill="#070C13"/>
<defs><linearGradient id="tg" x1="0" y1="1" x2="1" y2="0"><stop offset="0" stop-color="#16D27E"/><stop offset="1" stop-color="#3BE0E0"/></linearGradient></defs>
<path d="M0 0 C4.95 0 9.9 0 15 0 C15 27.72 15 55.44 15 84 C19.29 79.05 23.58 74.1 28 69 C30.60700079 66.14223507 33.21378468 63.30441973 35.875 60.5 C36.473125 59.86320312 37.07125 59.22640625 37.6875 58.5703125 C41.20563434 54.83895789 44.79397655 51.20425834 48.4934082 47.65209961 C50.08864856 45.9027897 51.16297691 44.12524338 52.3125 42.0625 C54.02949178 39.91984731 55.29606888 39.10481546 58.02001953 38.69921875 C63.36228989 38.38958602 68.665709 38.6477355 74 39 C70.96997286 42.62125195 67.93217419 46.12881539 64.5625 49.4375 C62.14893446 51.80890719 59.88687577 54.24139875 57.6875 56.8125 C54.12406686 60.95378716 50.26388172 64.75231836 46.37890625 68.58984375 C43.4087934 71.59897286 40.6918006 74.74150454 38 78 C39.31231816 81.65862057 40.89389437 84.45359409 43.2734375 87.51953125 C43.92755615 88.369104 44.5816748 89.21867676 45.25561523 90.09399414 C45.95501221 90.99110107 46.65440918 91.88820801 47.375 92.8125 C48.83253676 94.70273532 50.28956338 96.5933641 51.74609375 98.484375 C52.46780762 99.41830078 53.18952148 100.35222656 53.93310547 101.31445312 C56.80025977 105.03978945 59.62427143 108.79635875 62.4375 112.5625 C63.38930038 113.83595434 64.34112266 115.10939232 65.29296875 116.3828125 C65.7420459 116.98383789 66.19112305 117.58486328 66.65380859 118.20410156 C68.00961547 120.0128276 69.37274422 121.81579896 70.73828125 123.6171875 C71.16375244 124.17978271 71.58922363 124.74237793 72.02758789 125.32202148 C73.16795922 126.82907902 74.31046006 128.33452451 75.453125 129.83984375 C77 132 77 132 77 133 C70.94903371 134.11140197 64.95947697 134.93529407 59 133 C53.6583505 129.10129974 50.24717651 123.13615312 46.72949219 117.64453125 C43.80988133 113.1802138 40.5706435 108.95601441 37.375 104.6875 C36.23537142 103.13008143 35.09725369 101.57155573 33.9609375 100.01171875 C32.22805233 97.63708516 30.47039324 95.35567386 28.6015625 93.08203125 C27 91 27 91 27 89 C22.29971488 91.65128111 17.14149244 94.56769157 15.35943604 99.92608643 C14.44002241 105.27044052 14.65788538 110.66292353 14.8125 116.0625 C14.81946899 117.70766869 14.82146503 119.35286636 14.81835938 120.99804688 C14.81230426 125.00451679 14.90823026 128.98987561 15 133 C10.05 133 5.1 133 0 133 C0 89.11 0 45.22 0 0 Z " fill="#FFFFFF" transform="translate(318,147)"/>
<path d="M0 0 C7.92 0 15.84 0 24 0 C24.76030518 2.02922607 25.52061035 4.05845215 26.30395508 6.14916992 C28.86582112 12.98643 31.42834236 19.8234444 33.99115467 26.66034985 C35.53924389 30.79029982 37.08713751 34.92032284 38.63452148 39.05053711 C39.23485338 40.65283574 39.83519514 42.25513068 40.43554688 43.85742188 C40.58390708 44.25338593 40.58390708 44.25338593 41.33469963 46.25720406 C43.69869495 52.56511213 46.06839305 58.87086801 48.43951607 65.17609978 C50.12708681 69.66663671 51.80527492 74.16052967 53.47500706 78.65772915 C54.49399525 81.39928969 55.51841773 84.13879833 56.54401207 86.87789345 C57.24590736 88.75841919 57.94052145 90.64165749 58.63496399 92.52494812 C59.05150742 93.63473526 59.46805084 94.7445224 59.8972168 95.88793945 C60.25728317 96.85697708 60.61734955 97.82601471 60.98832703 98.82441711 C62 101 62 101 64 102 C64.08507812 101.22479004 64.17015625 100.44958008 64.2578125 99.65087891 C65.25811172 94.73032806 67.04842948 90.25338083 68.875 85.5859375 C69.07346527 85.07205978 69.07346527 85.07205978 70.07781982 82.4715271 C71.37986663 79.10392019 72.68989427 75.73947895 74 72.375 C74.90060417 70.05001343 75.80066412 67.72481598 76.70019531 65.39941406 C78.54654944 60.62874088 80.39600634 55.85928876 82.24804688 51.09082031 C84.87659744 44.32148161 87.49490133 37.54822375 90.109375 30.7734375 C90.5060437 29.74564178 90.9027124 28.71784607 91.31140137 27.65890503 C92.08326467 25.65894046 92.8551156 23.6589711 93.62695312 21.65899658 C96.41466873 14.43805565 99.20780123 7.21920821 102 0 C109.59 0 117.18 0 125 0 C125 41.25 125 82.5 125 125 C120.05 125 115.1 125 110 125 C110 89.36 110 53.72 110 17 C89.42101594 70.73401394 89.42101594 70.73401394 80.43066406 94.46508789 C79.25920637 97.55643457 78.08667614 100.6473729 76.9140625 103.73828125 C76.74481766 104.18559853 76.74481766 104.18559853 75.88833618 106.44929504 C74.22383043 110.83592598 72.53757044 115.2135449 70.81787109 119.57885742 C70.49354095 120.40278488 70.16921082 121.22671234 69.83505249 122.0756073 C69 124 69 124 68 125 C65.98035801 125.07244053 63.95832876 125.08377188 61.9375 125.0625 C60.83277344 125.05347656 59.72804688 125.04445313 58.58984375 125.03515625 C57.73519531 125.02355469 56.88054687 125.01195312 56 125 C52.38356809 117.15822248 49.33406327 109.1293614 46.30859375 101.046875 C45.75798317 99.5821215 45.20712005 98.1174629 44.65602112 96.65289307 C43.2063038 92.79834263 41.75972132 88.94262354 40.31390381 85.08660889 C38.59881332 80.51394998 36.88039793 75.94253994 35.16205788 71.37110138 C33.75471768 67.62691554 32.348247 63.88240932 30.94393921 60.13708496 C28.2226782 52.8833856 25.48450665 45.63686252 22.70751953 38.40429688 C22.1877755 37.04740473 21.66808531 35.69049197 21.14845276 34.33355713 C20.18018789 31.80545526 19.20559905 29.28010727 18.22740173 26.75579834 C17.80052567 25.64174622 17.3736496 24.52769409 16.93383789 23.37988281 C16.55852432 22.40819153 16.18321075 21.43650024 15.79652405 20.43536377 C15 18 15 18 15 15 C14.34 15 13.68 15 13 15 C13.16251975 15.73038325 13.3250395 16.46076651 13.49248409 17.21328259 C13.95524301 19.75424397 14.12333825 22.01256355 14.12025452 24.58747864 C14.12162918 25.47783813 14.12300385 26.36819763 14.12442017 27.28553772 C14.12082489 28.24938889 14.11722961 29.21324005 14.11352539 30.20629883 C14.11367142 31.23115387 14.11381744 32.25600891 14.1139679 33.31192017 C14.11327218 36.69364552 14.1054957 40.07531554 14.09765625 43.45703125 C14.09579086 45.80401072 14.09436753 48.15099058 14.09336853 50.49797058 C14.08955289 56.67110268 14.07973071 62.8442112 14.06866455 69.01733398 C14.05842996 75.31819337 14.05386652 81.61905657 14.04882812 87.91992188 C14.03810761 100.27995827 14.0210426 112.63997717 14 125 C9.38 125 4.76 125 0 125 C0 83.75 0 42.5 0 0 Z " fill="#FFFFFF" transform="translate(433,155)"/>
<path d="M0 0 C-0.66 4.62 -1.32 9.24 -2 14 C-3.05058594 13.95359375 -4.10117188 13.9071875 -5.18359375 13.859375 C-15.41298431 13.53883053 -22.85618098 14.05457365 -30.8125 21.125 C-36.68706069 27.43572297 -39.07209934 36.1445868 -39.20532227 44.59472656 C-39.22526749 45.71558655 -39.24521271 46.83644653 -39.26576233 47.99127197 C-39.28247482 49.19555847 -39.29918732 50.39984497 -39.31640625 51.640625 C-39.33718735 52.87794373 -39.35796844 54.11526245 -39.37937927 55.39007568 C-39.43365872 58.67138691 -39.48391779 61.95272733 -39.53222656 65.23413086 C-39.58256092 68.58583104 -39.6382636 71.9374372 -39.69335938 75.2890625 C-39.80044513 81.85930679 -39.90174126 88.42961801 -40 95 C-44.95 95 -49.9 95 -55 95 C-55 63.98 -55 32.96 -55 1 C-51.04 1 -47.08 1 -43 1 C-40.94077598 3.05922402 -41.58572421 7.21708124 -41.4375 10.0625 C-41.39431641 10.82111328 -41.35113281 11.57972656 -41.30664062 12.36132812 C-41.20026367 14.24065438 -41.09960066 16.12030244 -41 18 C-40.34 18 -39.68 18 -39 18 C-38.773125 17.29875 -38.54625 16.5975 -38.3125 15.875 C-34.65267592 7.85824249 -27.96024246 3.27987416 -19.85546875 0.1796875 C-13.04536913 -1.72767768 -6.92207701 -1.1536795 0 0 Z " fill="#FFFFFF" transform="translate(198,185)"/>
<path d="M0 0 C11.09386048 10.80940252 15.23576673 24.62296888 15.6875 39.8125 C15.23075346 54.48212426 12.32459775 67.40714319 1.8984375 78.1796875 C-9.18564755 88.06739511 -21.0562585 89.25099261 -35.29785156 88.56591797 C-46.60064915 87.61305168 -55.06922878 81.69288692 -62.3125 73.3125 C-71.67525108 60.61835144 -73.0122275 43.899105 -71.1015625 28.7109375 C-69.01446207 17.63702815 -65.00447316 6.22437199 -55.5625 -0.625 C-37.62467121 -11.56022519 -17.74025968 -11.24992078 0 0 Z M-49.02734375 12.39453125 C-56.8877028 22.53499446 -57.32741343 37.11442828 -55.9375 49.4375 C-54.44784317 58.2717307 -51.63819851 66.47603752 -44.5625 72.375 C-37.41640448 76.75863028 -29.76734455 77.39162029 -21.5625 76.375 C-14.31946426 74.38023169 -10.11186829 70.52421965 -5.4375 64.75 C1.23174714 52.74535515 1.41940676 36.28534721 -1.6875 23.0625 C-4.53997379 14.69082112 -9.70217518 9.28002278 -17.5625 5.375 C-28.60734571 1.69338476 -41.17535446 3.71978227 -49.02734375 12.39453125 Z " fill="#FFFFFF" transform="translate(655.5625,192.625)"/>
<path d="M0 0 C9.4923816 9.77156929 9.55476174 22.66752967 9.41796875 35.4765625 C9.41236211 37.03168322 9.40809707 38.5868093 9.40510559 40.14193726 C9.39374072 44.20260673 9.36434738 48.26294589 9.33099365 52.32348633 C9.30011077 56.47993504 9.28656162 60.63643797 9.27148438 64.79296875 C9.23946803 72.92464643 9.1867703 81.05599386 9.125 89.1875 C4.505 89.1875 -0.115 89.1875 -4.875 89.1875 C-4.88490967 88.29236694 -4.88490967 88.29236694 -4.93505859 83.76245117 C-5.0031874 77.80725008 -5.07998709 71.85221206 -5.16252708 65.89719677 C-5.2121968 62.29128453 -5.25852587 58.68539751 -5.296875 55.0793457 C-5.33410277 51.59083941 -5.38055661 48.10256066 -5.43306351 44.61425209 C-5.46025987 42.65430356 -5.47821861 40.69423373 -5.49594116 38.73417664 C-5.82861181 18.30089787 -5.82861181 18.30089787 -11.875 11.1875 C-17.34352398 6.23165015 -23.98779525 6.76804302 -31.03515625 6.91796875 C-37.18698735 7.34978599 -42.03996117 8.67818903 -46.7109375 12.8125 C-54.27336321 21.66607157 -54.32817289 33.99042766 -54.38671875 45.046875 C-54.40466995 46.31726624 -54.42262115 47.58765747 -54.44111633 48.89654541 C-54.48572537 52.23045173 -54.5182272 55.56400406 -54.54455566 58.89807129 C-54.57464305 62.31759476 -54.62107424 65.73689521 -54.66601562 69.15625 C-54.75052383 75.83324896 -54.8175248 82.51021585 -54.875 89.1875 C-59.825 89.1875 -64.775 89.1875 -69.875 89.1875 C-69.875 58.1675 -69.875 27.1475 -69.875 -4.8125 C-65.915 -4.8125 -61.955 -4.8125 -57.875 -4.8125 C-56.885 -0.8525 -55.895 3.1075 -54.875 7.1875 C-54.235625 6.48625 -53.59625 5.785 -52.9375 5.0625 C-38.54693383 -9.0868835 -16.94916293 -10.68534185 0 0 Z " fill="#FFFFFF" transform="translate(763.875,190.8125)"/>
<path d="M0 0 C8.45875216 6.8011785 11.68878977 16.00644883 13.75 26.3125 C13.75 31.9225 13.75 37.5325 13.75 43.3125 C-7.37 43.3125 -28.49 43.3125 -50.25 43.3125 C-47.23613384 64.40956315 -47.23613384 64.40956315 -39.5625 70.75 C-30.8044478 76.51789632 -20.44754278 77.87412309 -10.20458984 75.92285156 C-6.73305442 75.1446802 -3.3047057 74.2429393 0.12109375 73.28515625 C3.75 72.3125 3.75 72.3125 9.75 71.3125 C9.75 75.6025 9.75 79.8925 9.75 84.3125 C-0.40052088 87.80879053 -8.79442169 89.50738763 -19.5 89.5625 C-20.48613281 89.583125 -21.47226562 89.60375 -22.48828125 89.625 C-34.28747297 89.68718283 -44.76281736 86.35229073 -53.515625 78.203125 C-63.91330517 67.0352463 -66.91105162 53.50480105 -66.46875 38.4296875 C-65.52184007 24.93622106 -62.00434809 12.16458704 -52.25 2.3125 C-37.10345432 -10.13222942 -16.19130328 -10.97715477 0 0 Z M-45.25 14.3125 C-49.06342798 20.35226454 -49.43087235 24.94035114 -50.25 32.3125 C-34.41 32.3125 -18.57 32.3125 -2.25 32.3125 C-2.25 22.02702866 -3.35751116 16.38797852 -10.2265625 9.01171875 C-14.54195715 5.38778695 -19.26985434 4.52465846 -24.75 3.9375 C-33.24521398 4.8477015 -39.62318811 7.74364268 -45.25 14.3125 Z " fill="#FFFFFF" transform="translate(862.25,191.6875)"/>
<path d="M0 0 C4.95 0 9.9 0 15 0 C15.0093457 2.01279053 15.01869141 4.02558105 15.02832031 6.09936523 C15.06220772 12.7770894 15.11782133 19.45450835 15.18390274 26.13198757 C15.22327885 30.17744418 15.25551526 34.22268634 15.27099609 38.26831055 C15.28622833 42.17840108 15.32078828 46.08790167 15.36830902 49.99772835 C15.38305562 51.48346874 15.39103713 52.9692934 15.39188385 54.45510674 C15.41004814 70.35837508 15.41004814 70.35837508 20 77 C26.95191242 82.79326035 34.26222618 82.68048126 43 82 C48.80974665 80.84540478 53.60133967 79.09792864 57.5 74.5 C63.15562698 65.30510228 63.45610994 54.64240858 63.51171875 44.140625 C63.52966995 42.87023376 63.54762115 41.59984253 63.56611633 40.29095459 C63.61072537 36.95704827 63.6432272 33.62349594 63.66955566 30.28942871 C63.69964305 26.86990524 63.74607424 23.45060479 63.79101562 20.03125 C63.87552383 13.35425104 63.9425248 6.67728415 64 0 C68.95 0 73.9 0 79 0 C79 31.02 79 62.04 79 94 C75.04 94 71.08 94 67 94 C64.71428571 85.57142857 64.71428571 85.57142857 65 81 C64.34 81 63.68 81 63 81 C62.73058594 81.598125 62.46117187 82.19625 62.18359375 82.8125 C58.91237571 88.85831551 52.77238469 92.21061557 46.42578125 94.30859375 C34.45441873 96.72470682 20.59329852 96.47656389 10.125 89.6875 C3.99468113 84.82353808 1.49764697 78.48378345 0 71 C-0.39570735 65.49262982 -0.35104295 60.01059456 -0.29296875 54.4921875 C-0.28736233 52.91464647 -0.28309719 51.33710016 -0.28010559 49.759552 C-0.26873898 45.63970104 -0.23934404 41.52017548 -0.20599365 37.40045166 C-0.17511461 33.18367919 -0.16156243 28.96685333 -0.14648438 24.75 C-0.11446494 16.4998352 -0.06176569 8.24999577 0 0 Z " fill="#FFFFFF" transform="translate(212,186)"/>
<path d="M0 0 C5.28 0 10.56 0 16 0 C20.04555424 10.48722904 24.08427494 20.97704862 28.11027527 31.47180176 C29.57997559 35.30279882 31.05025788 39.1335347 32.52929688 42.9609375 C36.98992205 54.51533223 41.22917917 65.90914548 44 78 C45.97202182 73.52680836 47.70487607 69.09166851 49.20703125 64.43359375 C49.62618423 63.14758704 50.04571744 61.8617042 50.46557617 60.57592773 C50.68458588 59.90230194 50.90359558 59.22867615 51.12924194 58.53463745 C57.55079381 38.82484143 64.73753502 19.41251589 72 0 C77.28 0 82.56 0 88 0 C85.87041588 7.38695529 83.3930728 14.56043924 80.67578125 21.75 C80.25702225 22.86589508 79.83826324 23.98179016 79.40681458 25.13150024 C78.04560388 28.75568438 76.67940338 32.37795944 75.3125 36 C74.60413981 37.88013996 73.89611536 39.76040614 73.18809128 41.64067268 C71.27755028 46.71411586 69.36479143 51.7867157 67.44937515 56.85832024 C65.09488161 63.09264324 62.74959374 69.33031724 60.41294861 75.5713501 C58.98698683 79.37639296 57.55464927 83.17901127 56.12045288 86.98095703 C55.46709769 88.71634725 54.8161579 90.45264916 54.1678772 92.18994141 C41.07816111 127.23927948 41.07816111 127.23927948 26.33203125 134.08984375 C21.96643272 135.79367031 18.33005292 136.13596749 13.625 136.125 C12.52414062 136.12757813 11.42328125 136.13015625 10.2890625 136.1328125 C7.11003884 136.00444337 4.12227545 135.59426995 1 135 C1 131.04 1 127.08 1 123 C1.9178125 123.03480469 2.835625 123.06960938 3.78125 123.10546875 C18.6886504 123.43430846 18.6886504 123.43430846 24.82421875 118.546875 C28.91873115 114.46124441 31.28059246 109.76342741 33.5 104.5 C33.7676416 103.88350586 34.0352832 103.26701172 34.31103516 102.63183594 C38.06249941 92.99248034 33.47574751 84.47394108 29.78515625 75.53515625 C29.24917602 74.21677471 28.71407371 72.89803596 28.17979431 71.57896423 C26.77001523 68.10484399 25.34891705 64.63546874 23.9251709 61.16705322 C22.51597508 57.72920965 21.11659006 54.28738339 19.71679688 50.84570312 C17.7997907 46.13473005 15.88093627 41.42451996 13.95931053 36.71542931 C10.68505036 28.69029488 7.42121778 20.66109627 4.18359375 12.62109375 C3.75699966 11.56906265 3.33040558 10.51703156 2.8908844 9.43312073 C2.50722214 8.47735641 2.12355988 7.5215921 1.72827148 6.53686523 C1.56036858 6.12045525 1.56036858 6.12045525 0.7106781 4.01316833 C0 2 0 2 0 0 Z " fill="#FFFFFF" transform="translate(883,186)"/>
<path d="M0 0 C0.69351563 0.00128906 1.38703125 0.00257812 2.1015625 0.00390625 C7.83784229 1.09793899 11.73451936 4.41490121 15.78198242 8.42456055 C16.28522537 8.91933395 16.78846832 9.41410736 17.30696106 9.9238739 C18.95596418 11.5496206 20.59367181 13.1861898 22.23046875 14.82421875 C23.38026917 15.96691085 24.53036454 17.10930624 25.68074036 18.25141907 C28.08558178 20.64284178 30.48443484 23.04008833 32.87963867 25.44116211 C35.9393186 28.506736 39.01684402 31.55367123 42.09960461 34.59601116 C44.47871928 36.94919009 46.84617797 39.31383547 49.21053505 41.68183327 C50.34002343 42.80963597 51.47346806 43.93349171 52.61101341 45.05316734 C64.73278438 57.00530916 64.73278438 57.00530916 65.625 65.94140625 C64.80744599 72.67345252 62.33111315 76.97407238 57.125 81.3125 C50.95279 83.837495 45.9069946 84.05439903 39.61555481 81.61584473 C35.1912471 79.28902833 31.94487296 75.61140328 28.5 72.05078125 C28.09503296 71.64227684 28.09503296 71.64227684 26.0456543 69.57499695 C23.47673279 66.97822187 20.92580383 64.3645619 18.375 61.75 C16.63006794 59.97997382 14.88398588 58.21108055 13.13671875 56.44335938 C8.86941024 52.12110109 4.61671739 47.78486744 0.375 43.4375 C-4.56641777 47.57375781 -9.18338634 51.88317573 -13.6953125 56.48046875 C-15.01679414 57.81458483 -16.33841274 59.14856524 -17.66015625 60.48242188 C-19.71369881 62.56083944 -21.76558781 64.6408403 -23.81494141 66.72338867 C-25.8123183 68.75099999 -27.81589713 70.77231852 -29.8203125 72.79296875 C-30.42876007 73.41487595 -31.03720764 74.03678314 -31.66409302 74.67753601 C-36.72845374 79.77151882 -40.98181294 82.93382624 -48.2890625 83.4921875 C-53.11539241 83.3791965 -56.88585717 82.0745627 -60.421875 78.74609375 C-64.085756 74.5675247 -65.78973235 71.88850257 -65.9375 66.25 C-65.97488281 65.32832031 -66.01226563 64.40664062 -66.05078125 63.45703125 C-64.77322969 54.39696374 -56.95819252 48.31418651 -50.796875 42.17578125 C-49.72280097 41.09713857 -48.64909713 40.01812715 -47.57574463 38.93876648 C-45.33136842 36.68548797 -43.08144915 34.43793036 -40.82763672 32.1940918 C-37.95331865 29.33126246 -35.09516492 26.45288439 -32.24122238 23.56976032 C-30.02967573 21.33978698 -27.80880363 19.11928487 -25.58518219 16.90135765 C-24.52805216 15.84438003 -23.47398164 14.7843325 -22.42317963 13.72106361 C-8.601304 -0.24160966 -8.601304 -0.24160966 0 0 Z " fill="url(#tg)" transform="translate(915.625,41.5625)"/>
<path d="M0 0 C3.4375 0.4375 3.4375 0.4375 5.4375 2.4375 C5.98766181 9.36953883 5.98766181 9.36953883 4.375 12.5 C1.2959134 13.98988061 -1.31106958 13.11232518 -4.5625 12.4375 C-6.84295838 6.3162696 -6.84295838 6.3162696 -5.625 2.5 C-3.5625 0.4375 -3.5625 0.4375 0 0 Z " fill="url(#tg)" transform="translate(1145.5625,183.5625)"/>
<path d="M0 0 C0.34095703 -0.0103125 0.34095703 -0.0103125 2.06640625 -0.0625 C8.27683657 -0.10981756 12.51654345 1.70863931 17.875 4.875 C23.78674966 11.11518019 23.5406052 19.72649075 23.41796875 27.84765625 C23.41372391 28.92252792 23.40947906 29.9973996 23.40510559 31.10484314 C23.38843339 34.50765998 23.35080223 37.90986488 23.3125 41.3125 C23.29743837 43.63215285 23.28375256 45.95181507 23.27148438 48.27148438 C23.23856752 53.9311952 23.18848361 59.59055386 23.125 65.25 C20.485 65.25 17.845 65.25 15.125 65.25 C14.465 62.61 13.805 59.97 13.125 57.25 C12.135 58.178125 11.145 59.10625 10.125 60.0625 C3.33477754 65.78414164 -2.92246531 66.83264849 -11.75 66.59765625 C-17.72497117 65.93294071 -21.82137182 63.70468697 -25.8125 59.25 C-29.41598752 54.00856361 -29.56621228 48.48051065 -28.875 42.25 C-26.7370097 36.10327789 -22.52210716 32.60281289 -16.87109375 29.71484375 C-12.14509396 27.73347127 -7.31531577 27.44913825 -2.25 27.0625 C-1.321875 26.98064453 -0.39375 26.89878906 0.5625 26.81445312 C4.76599217 26.45613252 8.90414313 26.21014521 13.125 26.25 C11.52818783 14.25289803 11.52818783 14.25289803 7.125 10.25 C-1.85087348 7.25804217 -10.28099397 10.23266873 -18.875 13.25 C-19.865 10.61 -20.855 7.97 -21.875 5.25 C-20.48221983 4.59760842 -19.08560788 3.95339448 -17.6875 3.3125 C-16.91019531 2.95285156 -16.13289063 2.59320313 -15.33203125 2.22265625 C-10.29547295 0.22885177 -5.36793477 0.04013409 0 0 Z M-9.0625 35.5625 C-13.1765937 37.14305577 -15.87762899 39.25525797 -17.875 43.25 C-18.31693762 52.38337757 -18.31693762 52.38337757 -15.875 55.25 C-10.15552607 58.7055155 -5.32721027 58.75413262 1.125 57.25 C5.30314932 55.78049881 8.18654354 53.60491612 10.5 49.8125 C12.97231988 44.39241412 13.24150439 40.19172372 13.125 34.25 C7.51384024 31.44442012 -3.23617858 33.77952873 -9.0625 35.5625 Z " fill="url(#tg)" transform="translate(1097.875,206.75)"/>
<path d="M0 0 C3.63 0 7.26 0 11 0 C11 21.12 11 42.24 11 64 C7.37 64 3.74 64 0 64 C0 42.88 0 21.76 0 0 Z " fill="url(#tg)" transform="translate(1140,208)"/>
<path d="M0 0 C1.16343227 2.32686453 1.19895988 3.84721413 1.25 6.4375 C1.26289062 6.82873047 1.26289062 6.82873047 1.328125 8.80859375 C0.92167636 11.52309 0.13894141 12.33694747 -2 14 C-4.375 14.875 -4.375 14.875 -7 15 C-9.2831838 13.8584081 -11.19012683 12.80987317 -13 11 C-13.203125 9.0390625 -13.203125 9.0390625 -13.25 6.625 C-13.27578125 5.83351563 -13.3015625 5.04203125 -13.328125 4.2265625 C-12.92231616 1.47285965 -12.18894879 0.66728342 -10 -1 C-6.02972626 -2.32342458 -3.88343142 -1.36639254 0 0 Z " fill="url(#tg)" transform="translate(1054,259)"/>
</svg>
