<?xml version="1.0" encoding="UTF-8"?>
<svg xmlns="http://www.w3.org/2000/svg" width="1254" height="1254" viewBox="0 0 1254 1254">
<defs><linearGradient id="g" x1="0" y1="1" x2="1" y2="0" gradientUnits="objectBoundingBox"><stop offset="0" stop-color="#0EA6C9"/><stop offset="0.45" stop-color="#11B4AE"/><stop offset="0.75" stop-color="#14CC8C"/><stop offset="1" stop-color="#16D27E"/></linearGradient></defs>
<path d="M0 0 C0.7223584 0.09238953 1.4447168 0.18477905 2.18896484 0.27996826 C65.10433199 8.41858993 129.13973858 31.07682782 181.19580078 67.73291016 C183.16027377 69.11256034 185.14002978 70.46851263 187.12109375 71.82421875 C196.60256608 78.36164277 205.58511325 85.37258277 214.44384766 92.72705078 C216.25497456 94.20857191 218.10833207 95.62294199 220 97 C218.5715811 100.20855904 216.81722955 102.49046907 214.4375 105.0625 C210.25172389 109.68257846 206.30938665 114.46386646 202.38232422 119.30419922 C200.19351887 121.98937088 197.98573219 124.65882555 195.78027344 127.33032227 C190.12929842 134.17542886 184.50755656 141.03858534 179 148 C174.68465831 147.48551887 171.90778408 144.73016965 168.6875 142.0625 C146.73389434 124.38437345 121.37758457 110.14366135 96 98 C95.27425781 97.64969727 94.54851563 97.29939453 93.80078125 96.93847656 C56.80393423 79.22010706 16.71970291 68.47452249 -24 64 C-24.84755859 63.90428711 -25.69511719 63.80857422 -26.56835938 63.70996094 C-36.646062 62.71643478 -46.75815932 62.75632591 -56.875 62.75 C-57.84676178 62.74932526 -58.81852356 62.74865051 -59.81973267 62.74795532 C-85.35207653 62.77598492 -110.09845423 65.10581443 -135 71 C-135.51224121 71.12101074 -135.51224121 71.12101074 -138.10449219 71.73339844 C-196.651893 85.8919202 -252.8773496 113.99124998 -298 154 C-299.35385283 155.16703084 -300.70796995 156.33375525 -302.0625 157.5 C-312.59045745 166.7600744 -323.00839228 176.23022011 -332.15625 186.875 C-334.21201767 189.24435934 -336.3231054 191.55785523 -338.4375 193.875 C-342.83741419 198.76379355 -346.97967578 203.79555913 -351 209 C-351.43683105 209.56428711 -351.87366211 210.12857422 -352.32373047 210.70996094 C-401.69062328 274.73609243 -433.92514203 351.38436855 -442 432 C-442.0942627 432.91338135 -442.18852539 433.8267627 -442.28564453 434.76782227 C-447.30882046 490.30080984 -440.10481505 548.18432709 -421.03320312 600.66015625 C-420.74896484 601.44261719 -420.46472656 602.22507812 -420.171875 603.03125 C-420.04603027 603.35899414 -420.04603027 603.35899414 -419.40917969 605.01757812 C-418.54983806 609.18097551 -420.15109079 612.66943848 -422.046875 616.31640625 C-422.47307129 617.14857666 -422.89926758 617.98074707 -423.33837891 618.83813477 C-423.80421387 619.73717529 -424.27004883 620.63621582 -424.75 621.5625 C-434.97672283 641.66780913 -444.28706372 662.19702035 -453 683 C-453.66 683 -454.32 683 -455 683 C-491.09069459 612.68429352 -508.44972335 533.87864818 -507 455 C-506.98598145 454.03610352 -506.97196289 453.07220703 -506.95751953 452.07910156 C-506.01685939 398.52935615 -493.19101697 343.36878716 -473 294 C-472.66033203 293.16662109 -472.32066406 292.33324219 -471.97070312 291.47460938 C-453.13538966 245.63149075 -428.12197395 201.42628844 -395.4921875 163.890625 C-393.19469174 161.22581801 -390.99903788 158.50586283 -388.8125 155.75 C-379.77066833 144.66490743 -369.58152152 134.50663679 -359.5 124.375 C-358.86634521 123.73667236 -358.23269043 123.09834473 -357.57983398 122.44067383 C-353.21713109 118.09285094 -348.67119566 114.01249794 -344 110 C-342.88250191 109.02639805 -341.7652985 108.05245772 -340.6484375 107.078125 C-332.62471454 100.12722193 -324.44236936 93.43580171 -316 87 C-315.30310059 86.46648926 -314.60620117 85.93297852 -313.88818359 85.38330078 C-255.16535156 40.63410065 -186.71862664 12.53727921 -114 1 C-112.91195068 0.8232373 -111.82390137 0.64647461 -110.70288086 0.46435547 C-74.39754869 -5.31727739 -36.40819596 -4.71163646 0 0 Z " fill="url(#g)" transform="translate(662,158)"/>
<path d="M0 0 C3 1 3 1 3.91625977 2.6796875 C4.17205811 3.40414063 4.42785645 4.12859375 4.69140625 4.875 C4.99103271 5.68727051 5.29065918 6.49954102 5.59936523 7.33642578 C5.91719971 8.21540527 6.23503418 9.09438477 6.5625 10 C16.35317475 35.64388617 31.89666551 53.77668606 57.0234375 65.13916016 C61.94380529 67.28209702 66.94440569 69.19937737 72 71 C72 71.99 72 72.98 72 74 C71.30028076 74.29656494 70.60056152 74.59312988 69.87963867 74.89868164 C66.64455866 76.27661078 63.41609645 77.66945077 60.1875 79.0625 C59.08728516 79.52849609 57.98707031 79.99449219 56.85351562 80.47460938 C32.79596494 90.90664463 16.89037927 107.91642518 7.265625 132.26171875 C6.48019552 134.27994436 5.71426223 136.29958429 4.98999023 138.34057617 C4.40635982 139.92538851 3.71132215 141.46824434 3 143 C2.01 143.33 1.02 143.66 0 144 C-0.49628906 142.77925781 -0.99257813 141.55851563 -1.50390625 140.30078125 C-7.44541899 125.83243864 -13.42134963 112.77087751 -24 101 C-24.58652344 100.34257812 -25.17304687 99.68515625 -25.77734375 99.0078125 C-37.52388605 86.57029712 -54.15842856 79.64220353 -70 74 C-69 71 -69 71 -67.25683594 69.96020508 C-66.88187988 69.8049939 -66.88187988 69.8049939 -64.984375 69.01953125 C-64.15156006 68.66439453 -63.31874512 68.30925781 -62.46069336 67.94335938 C-61.56616455 67.57017578 -60.67163574 67.19699219 -59.75 66.8125 C-27.57811955 52.83439229 -12.90683082 31.48293301 0 0 Z " fill="url(#g)" transform="translate(700,288)"/>
<path d="M0 0 C-0.53418836 5.83431369 -1.41960227 11.41186997 -2.8359375 17.09375 C-3.02663818 17.88010834 -3.21733887 18.66646667 -3.41381836 19.47665405 C-3.8366641 21.2190162 -4.26188178 22.96080397 -4.68914795 24.7020874 C-5.93131358 29.76946433 -7.15201294 34.84202911 -8.375 39.9140625 C-8.51330734 40.48689468 -8.51330734 40.48689468 -9.21322632 43.38577271 C-13.13259981 59.65158699 -16.93946606 75.94405927 -20.7562027 92.23419571 C-21.37514418 94.87561533 -21.99438587 97.5169644 -22.6137085 100.15829468 C-26.76171483 117.85036021 -30.90102181 135.54441087 -35.0078125 153.24609375 C-35.08422155 153.57542278 -35.08422155 153.57542278 -35.47089767 155.24202728 C-37.01012458 161.87729471 -38.54668133 168.51317245 -40.07958984 175.14990234 C-44.61040988 194.74790027 -44.61040988 194.74790027 -47 204 C-50.04469364 202.63841148 -52.14521973 201.10347509 -54.49584961 198.74707031 C-55.16011459 198.08588196 -55.82437958 197.4246936 -56.5087738 196.74346924 C-57.21615189 196.02890564 -57.92352997 195.31434204 -58.65234375 194.578125 C-59.38949112 193.84051941 -60.12663849 193.10291382 -60.88612366 192.34295654 C-62.44427742 190.78178348 -64.00000179 189.21818249 -65.5534668 187.65234375 C-67.91993545 185.26769945 -70.29422667 182.89107379 -72.66992188 180.515625 C-74.18536695 178.99526111 -75.70035583 177.47444234 -77.21484375 175.953125 C-77.9201976 175.24665833 -78.62555145 174.54019165 -79.35227966 173.81231689 C-83.11096223 170.01770502 -86.65181324 166.1621936 -90 162 C-94.08022587 163.55256855 -96.37742845 166.46310206 -99.0625 169.75 C-99.54074219 170.32492187 -100.01898437 170.89984375 -100.51171875 171.4921875 C-104.38805505 176.18032198 -108.14010587 180.96423219 -111.87329102 185.76660156 C-114.98966253 189.76112778 -118.2047002 193.6521668 -121.5 197.5 C-125.81098193 202.53587807 -129.94470789 207.68668338 -134.02001953 212.91455078 C-137.47430413 217.34346787 -141.00138 221.70563619 -144.5703125 226.04296875 C-147.47688157 229.58038481 -150.36433673 233.13302527 -153.25 236.6875 C-154.36327872 238.0585958 -155.47656 239.42968953 -156.58984375 240.80078125 C-157.1504248 241.49123535 -157.71100586 242.18168945 -158.28857422 242.89306641 C-160.00516828 245.00636266 -161.72308379 247.11857769 -163.44140625 249.23046875 C-172.80872381 260.74578355 -172.80872381 260.74578355 -176.9375 265.9375 C-180.57408603 270.50060476 -184.28587138 275.00003125 -188 279.5 C-193.05459359 285.62435942 -198.06320212 291.78006963 -203 298 C-204.24935155 299.56301854 -205.49937759 301.12549813 -206.75 302.6875 C-207.40871094 303.51121094 -208.06742188 304.33492188 -208.74609375 305.18359375 C-210.42455438 307.2809423 -212.10434388 309.37719413 -213.78515625 311.47265625 C-214.79438656 312.73167807 -215.80349807 313.99079514 -216.8125 315.25 C-217.32449951 315.88881104 -217.83649902 316.52762207 -218.36401367 317.18579102 C-221.334568 320.89840201 -224.27908182 324.62961122 -227.2019043 328.37988281 C-231.20194317 333.51038306 -235.27115267 338.55597445 -239.5 343.5 C-244.72278846 349.60731539 -249.69404745 355.88983804 -254.625 362.23388672 C-256.90628844 365.16407859 -259.20388758 368.08142044 -261.5 371 C-262.41285399 372.16138479 -263.32561429 373.32284323 -264.23828125 374.484375 C-264.46491455 374.77280273 -264.46491455 374.77280273 -265.61181641 376.23242188 C-267.02713695 378.03455356 -268.44141385 379.8375001 -269.85546875 381.640625 C-274.51499891 387.58024587 -279.19376217 393.50220458 -283.91796875 399.390625 C-286.39789768 402.49867851 -288.857036 405.62260449 -291.3125 408.75 C-291.54590088 409.04720947 -291.54590088 409.04720947 -292.72705078 410.55126953 C-295.05191234 413.51329767 -297.37372461 416.4776631 -299.69140625 419.4453125 C-305.12834239 426.39812672 -310.65066634 433.27298937 -316.23388672 440.10888672 C-320.3940625 445.21741958 -324.41186608 450.4168633 -328.40625 455.65625 C-331.89952127 460.19750265 -335.54774203 464.61317965 -339.17480469 469.04760742 C-342.60394515 473.25098825 -345.96185145 477.49806036 -349.25 481.8125 C-353.7031337 487.65242886 -358.32936758 493.33326114 -363 499 C-369.69244922 507.17304052 -376.33324881 515.38095746 -382.83325195 523.70800781 C-386.35330677 528.20624457 -389.94838403 532.6396308 -393.5625 537.0625 C-397.44981773 541.82173946 -401.27339891 546.61374347 -405 551.5 C-409.26047166 557.08625863 -413.66207793 562.54302016 -418.10888672 567.98168945 C-421.66924882 572.34237405 -425.16766182 576.7448391 -428.625 581.1875 C-432.1695039 585.73775528 -435.81019548 590.18217819 -439.5625 594.5625 C-443.56198433 599.23325598 -447.37122368 604.01041819 -451.08789062 608.91210938 C-454.48446855 613.37511679 -458.00810673 617.72452575 -461.5625 622.0625 C-466.89608176 628.57731855 -472.02251475 635.20901237 -477 642 C-480.27379706 640.90873431 -480.74721195 640.36971004 -482.71484375 637.7109375 C-483.23006592 637.02418945 -483.74528809 636.33744141 -484.27612305 635.62988281 C-484.82437744 634.88577148 -485.37263184 634.14166016 -485.9375 633.375 C-487.10791486 631.81400831 -488.27982062 630.25413348 -489.453125 628.6953125 C-490.04544922 627.90672852 -490.63777344 627.11814453 -491.24804688 626.30566406 C-493.8330231 622.90369703 -496.50310865 619.57371994 -499.1875 616.25 C-502.86498639 611.68457608 -506.49962528 607.09299907 -510.0625 602.4375 C-519.02274122 590.7349468 -528.20172733 579.22151844 -537.52783203 567.80859375 C-538.82729371 566.21217383 -540.11568394 564.60675566 -541.40234375 563 C-553.04081749 548.52030754 -564.60096102 535.49676713 -582 528 C-582.76441406 527.65839844 -583.52882813 527.31679688 -584.31640625 526.96484375 C-600.08251907 521.06968852 -618.10341495 525.45911407 -632.86132812 531.96582031 C-640.45262718 535.50144437 -647.24540724 540.08250802 -654 545 C-654.56847656 545.4115332 -655.13695312 545.82306641 -655.72265625 546.24707031 C-663.98312326 552.27951113 -671.63360877 558.90476427 -679 566 C-679.28713867 566.27618164 -679.28713867 566.27618164 -680.74023438 567.67382812 C-688.37667527 575.06260067 -695.43531475 582.62945843 -702 591 C-702.91677923 592.11793335 -703.83620248 593.23370199 -704.7578125 594.34765625 C-748.87517424 647.97294428 -780.28389114 714.68327822 -800 781 C-800.1333374 781.44456543 -800.1333374 781.44456543 -800.80810547 783.69433594 C-802.23379635 788.45495021 -803.6330368 793.22220073 -805 798 C-808.16310761 796.63677517 -809.90573236 795.2234343 -811.99609375 792.5 C-812.5480542 791.78714844 -813.10001465 791.07429687 -813.66870117 790.33984375 C-814.25240479 789.56769531 -814.8361084 788.79554688 -815.4375 788 C-816.05149658 787.19691406 -816.66549316 786.39382813 -817.2980957 785.56640625 C-819.21044802 783.05287488 -821.10753869 780.52853311 -823 778 C-823.57556641 777.23429688 -824.15113281 776.46859375 -824.74414062 775.6796875 C-832.40914562 765.43588571 -839.3776978 754.9089252 -845.84423828 743.86914062 C-847 742 -847 742 -849.37109375 738.859375 C-851.44678916 735.21570823 -850.94495802 734.0291669 -850 730 C-849.14922133 727.48441958 -848.26253615 725.02844956 -847.296875 722.55859375 C-847.0233168 721.84740891 -846.74975861 721.13622406 -846.46791077 720.40348816 C-845.56967754 718.07839836 -844.66115169 715.75755586 -843.75 713.4375 C-843.4356601 712.63423279 -843.12132019 711.83096558 -842.79745483 711.00335693 C-828.17649745 673.72233896 -810.93831703 637.1701265 -790 603 C-788.90200592 601.18249571 -787.80435004 599.36478707 -786.70703125 597.546875 C-776.94087226 581.47443472 -766.47967694 565.9009092 -755 551 C-754.18047707 549.92356708 -753.36148588 548.84672917 -752.54296875 547.76953125 C-745.11903382 538.02400742 -737.48733208 528.50093276 -729.2265625 519.4453125 C-727.79120759 517.86894026 -726.3682661 516.28113039 -724.9609375 514.6796875 C-714.83115391 503.18409039 -704.0739017 492.44410667 -692 483 C-690.85966618 482.06139682 -689.72178876 481.11980405 -688.5859375 480.17578125 C-656.66900908 453.80925229 -624.02896498 441.41691016 -582.6875 441.4375 C-556.68475646 441.40996444 -533.70772071 439.47670269 -513.80859375 420.9609375 C-512.05214535 419.05124193 -510.5129924 417.10724265 -509 415 C-508.40832031 414.19175781 -507.81664062 413.38351562 -507.20703125 412.55078125 C-499.83995197 401.7907614 -496.202874 389.91853716 -495 377 C-494.95810547 376.566875 -494.95810547 376.566875 -494.74609375 374.375 C-493.98678617 358.30707181 -499.54001165 341.63758684 -510.1875 329.6875 C-523.12216156 315.93148523 -540.85416079 309.70980995 -559.39494514 308.89471245 C-561.96674769 308.83905401 -564.53726848 308.81126065 -567.10961914 308.79467773 C-568.09201034 308.78464501 -569.07440153 308.77461229 -570.08656216 308.76427555 C-573.23607031 308.73313563 -576.38559117 308.7082215 -579.53515625 308.68359375 C-581.49182523 308.66516765 -583.44849037 308.6463298 -585.40515137 308.6270752 C-592.62422226 308.55890284 -599.84336641 308.49867425 -607.0625 308.4375 C-615.1371875 308.3653125 -615.1371875 308.3653125 -656 308 C-656 345.62 -656 383.24 -656 422 C-658.64 423.32 -658.64 423.32 -672 430 C-684.22691579 436.55705326 -695.24080071 444.25503206 -706 453 C-706.62535645 453.50821289 -707.25071289 454.01642578 -707.89501953 454.54003906 C-715.30355902 460.61650613 -722.24964366 467.01510763 -728.82714844 473.98828125 C-730.16432785 475.37928961 -731.5770538 476.69685873 -733 478 C-733.99 478 -734.98 478 -736 478 C-736.02278985 446.93286518 -736.0404979 415.86573257 -736.05106533 384.79859138 C-736.05231611 381.13468916 -736.05361042 377.47078696 -736.05493164 373.80688477 C-736.05519395 373.07743707 -736.05545626 372.34798938 -736.05572652 371.59643721 C-736.06008333 359.76983332 -736.06797093 347.94323426 -736.0771528 336.11663324 C-736.08648904 323.99046565 -736.09205555 311.8643006 -736.09408849 299.73812956 C-736.09546378 292.24962338 -736.09981469 284.76113087 -736.10791647 277.2726289 C-736.11380427 271.54010375 -736.11445904 265.80758746 -736.11310768 260.07505989 C-736.1133842 257.71630773 -736.11539184 255.35755509 -736.11920547 252.998806 C-736.12413606 249.79366382 -736.12300065 246.5885815 -736.12025452 243.38343811 C-736.12316736 242.43695957 -736.1260802 241.49048102 -736.12908131 240.51532131 C-736.11412121 234.11412121 -736.11412121 234.11412121 -735 233 C-733.34605458 232.90164864 -731.68788804 232.87367992 -730.03102112 232.87301636 C-729.49166679 232.87160645 -729.49166679 232.87160645 -726.76220703 232.86447144 C-725.566521 232.86649567 -724.37083496 232.8685199 -723.13891602 232.87060547 C-721.88594223 232.86885315 -720.63296844 232.86710083 -719.34202576 232.86529541 C-715.87548156 232.86070453 -712.40896692 232.86252425 -708.94242215 232.8656745 C-705.25929772 232.86822078 -701.57617569 232.86585142 -697.89305115 232.86428833 C-691.64557451 232.86246024 -685.39810961 232.86487608 -679.15063477 232.86962891 C-672.86058772 232.87436128 -666.57056448 232.87454415 -660.28051758 232.86962891 C-629.70241883 232.84659023 -599.12208048 232.85824914 -568.54624748 233.27200699 C-566.1283794 233.30351903 -563.71045146 233.33080461 -561.29248238 233.35326767 C-542.82578499 233.5346025 -523.92314823 234.25894128 -506.125 239.6875 C-505.27043213 239.94023682 -504.41586426 240.19297363 -503.53540039 240.45336914 C-495.18604251 243.04438805 -487.60492004 246.73557861 -480 251 C-478.91074219 251.58910156 -477.82148437 252.17820312 -476.69921875 252.78515625 C-470.01133171 256.51575652 -463.53987993 260.66847839 -458 266 C-458 266.66 -458 267.32 -458 268 C-457.71447266 268.11859375 -457.71447266 268.11859375 -456.26953125 268.71875 C-438.53678957 278.72966097 -426.0536425 308.54310592 -420.6796875 327.39453125 C-411.07323163 364.26860769 -416.31311221 403.85896798 -435.59423828 436.73339844 C-442.67932419 448.15714584 -450.88517769 459.09830062 -461 468 C-461.84691406 468.75152344 -462.69382812 469.50304687 -463.56640625 470.27734375 C-473.62326237 478.8410422 -492.06346705 494 -506 494 C-496.61675637 507.86482746 -487.10850176 521.6498063 -477 535 C-470.14222488 526.51118647 -463.39499836 517.95172906 -456.78613281 509.26757812 C-453.41269141 504.83805041 -450.01020752 500.43445956 -446.5625 496.0625 C-437.79244069 484.93887101 -429.09147479 473.76222305 -420.5 462.5 C-409.24654213 447.74828906 -397.81657431 433.13059383 -386.296875 418.5859375 C-381.46416454 412.47413278 -376.71462625 406.313111 -372.0625 400.0625 C-367.66323656 394.15181137 -363.13065059 388.3715848 -358.49804688 382.64257812 C-354.91358985 378.19113929 -351.46572302 373.6535562 -348.0625 369.0625 C-343.44396335 362.8380101 -338.64159585 356.7944194 -333.72607422 350.80249023 C-329.87513267 346.10164972 -326.13345412 341.3310399 -322.44775391 336.5 C-320.08586312 333.4058367 -317.69235679 330.34350092 -315.25 327.3125 C-311.50973303 322.66550165 -307.8456143 317.96169042 -304.1875 313.25 C-298.58902729 306.03920288 -292.96569815 298.84893359 -287.31787109 291.67675781 C-285.98607577 289.98228388 -284.65851478 288.28457201 -283.33203125 286.5859375 C-277.8198724 279.53448162 -272.22321972 272.55882752 -266.56616211 265.62304688 C-263.18117578 261.46849116 -259.84800015 257.281232 -256.578125 253.03515625 C-254.88914927 250.85704646 -253.1663755 248.70906601 -251.4375 246.5625 C-247.67353962 241.87571536 -243.99227487 237.12783371 -240.3125 232.375 C-235.18932536 225.76380912 -229.97890352 219.23415393 -224.68481445 212.75927734 C-220.78366595 207.98282165 -216.95997661 203.15170439 -213.16552734 198.2902832 C-209.64571621 193.79274676 -206.05120046 189.35980545 -202.4375 184.9375 C-198.46616627 180.07593923 -194.55616013 175.17952906 -190.75 170.1875 C-186.29673196 164.34767034 -181.67063665 158.66674399 -177 153 C-170.22007242 144.720128 -163.49573779 136.40231148 -156.9074707 127.96899414 C-152.68817597 122.57702161 -148.36192697 117.27739313 -144 112 C-150.0520172 106.91057098 -156.11377469 101.86339512 -162.38671875 97.046875 C-166.66603641 93.69506266 -170.86369564 90.24205262 -175.06542969 86.79370117 C-179.62060133 83.07018147 -184.26718592 79.49481989 -189 76 C-187.63624512 73.27249025 -186.28858525 73.12207983 -183.47241211 72.00732422 C-182.49897858 71.61807266 -181.52554504 71.22882111 -180.52261353 70.82777405 C-179.4516745 70.40765549 -178.38073547 69.98753693 -177.27734375 69.5546875 C-176.16612152 69.11245346 -175.05489929 68.67021942 -173.91000366 68.21458435 C-170.88398095 67.011683 -167.85564611 65.81484127 -164.82620621 64.62057877 C-161.6734122 63.37599332 -158.52369617 62.12367135 -155.3737793 60.87182617 C-150.92685636 59.10520582 -146.47907056 57.34079449 -142.03005314 55.57945538 C-132.5960729 51.84438642 -123.17689862 48.07296567 -113.76031494 44.29431152 C-100.75154795 39.07653255 -87.72476648 33.90764196 -74.6730957 28.7980957 C-66.25306065 25.50009783 -57.85523775 22.14898286 -49.46289062 18.78125 C-40.18010889 15.0610286 -30.87396377 11.40158905 -21.5625 7.75390625 C-20.46035156 7.32207031 -19.35820313 6.89023438 -18.22265625 6.4453125 C-17.69744385 6.23986816 -17.69744385 6.23986816 -15.03955078 5.20019531 C-11.32050732 3.7316959 -7.6193326 2.22094254 -3.92358398 0.69482422 C-2 0 -2 0 0 0 Z " fill="url(#g)" transform="translate(1077,144)"/>
<path d="M0 0 C0.66 0 1.32 0 2 0 C3.4453125 1.82568359 3.4453125 1.82568359 5.125 4.3984375 C5.7439917 5.34340088 6.3629834 6.28836426 7.00073242 7.26196289 C7.66049072 8.28926514 8.32024902 9.31656738 9 10.375 C9.67844971 11.42486084 10.35689941 12.47472168 11.0559082 13.55639648 C16.30361687 21.75208816 21.15644171 30.08693569 25.74023438 38.66748047 C27.09741727 41.18037299 28.49078744 43.67078768 29.890625 46.16015625 C42.10008423 67.97134379 51.71388296 90.4319892 60 114 C60.32452148 114.91313965 60.64904297 115.8262793 60.98339844 116.76708984 C63.11827454 122.80603234 65.10673286 128.88116471 67 135 C67.31146973 135.99966797 67.62293945 136.99933594 67.94384766 138.02929688 C86.90992339 199.93547347 93.20262202 268.84201274 84 333 C83.82839355 334.2159082 83.65678711 335.43181641 83.47998047 336.68457031 C76.21534239 386.68657429 62.25085764 436.54137685 40 482 C39.81574463 482.37874268 39.81574463 482.37874268 38.88330078 484.29541016 C13.46126123 536.3996559 -20.00048185 582.94378566 -60.875 624 C-61.75486572 624.88461914 -62.63473145 625.76923828 -63.54125977 626.68066406 C-68.53489899 631.66152456 -73.6424468 636.41546922 -79 641 C-80.15674024 642.02141129 -81.311729 643.04481 -82.46484375 644.0703125 C-91.64611699 652.17305873 -101.16820711 659.70431557 -111 667 C-111.72590332 667.54156738 -112.45180664 668.08313477 -113.19970703 668.64111328 C-124.45250984 677.01049412 -136.03449703 684.69048615 -148 692 C-148.33362549 692.20641113 -148.33362549 692.20641113 -150.02197266 693.25097656 C-217.94795832 735.17551881 -297.14058859 758.35771613 -467.5625 748.625 C-471.05369012 747.79387341 -474.52808733 746.90800937 -478 746 C-478.95003906 745.75556152 -479.90007812 745.51112305 -480.87890625 745.25927734 C-508.66176729 738.0373635 -535.09996481 728.27856429 -561 716 C-561.46567383 715.78093994 -561.46567383 715.78093994 -563.82226562 714.67236328 C-584.52420985 704.86965829 -604.2070391 693.0733641 -623 680 C-623.32339355 679.77570313 -623.32339355 679.77570313 -624.95996094 678.640625 C-632.53249335 673.36738174 -639.86704101 667.85798565 -647 662 C-647.89332031 661.28070312 -648.78664063 660.56140625 -649.70703125 659.8203125 C-655.16899176 655.40490945 -660.46542928 650.85587458 -665.65625 646.125 C-667.80692711 644.17505276 -669.98824971 642.26973871 -672.1875 640.375 C-675.95897579 637.08353022 -679.59931353 633.67598013 -683 630 C-683.35199463 629.62834717 -683.35199463 629.62834717 -685.13330078 627.74755859 C-687 625 -687 625 -687.09814453 622.27441406 C-687.00073975 621.77796387 -687.00073975 621.77796387 -686.5078125 619.265625 C-686.28770508 618.11900391 -686.06759766 616.97238281 -685.84082031 615.79101562 C-685.56334961 614.53998047 -685.28587891 613.28894531 -685 612 C-684.85526245 611.34507568 -684.7105249 610.69015137 -684.56140137 610.01538086 C-683.41730113 604.90529062 -682.16082574 599.82602955 -680.875 594.75 C-680.6764743 593.96142609 -680.47794861 593.17285217 -680.27340698 592.36038208 C-676.74135228 578.37933956 -672.76171567 564.61737204 -668 551 C-667.62262695 549.91460938 -667.24525391 548.82921875 -666.85644531 547.7109375 C-661.12347113 531.37125677 -654.51718401 515.59570653 -647 500 C-646.65791504 499.28408691 -646.31583008 498.56817383 -645.96337891 497.83056641 C-643.72928515 493.1739892 -641.39144441 488.57755314 -639 484 C-638.49597656 483.03304199 -637.99195313 482.06608398 -637.47265625 481.06982422 C-630.25017121 467.2774632 -622.77804221 453.86115208 -614 441 C-613.075039 439.6227193 -612.15056628 438.24511057 -611.2265625 436.8671875 C-601.99080845 423.17836519 -591.87481462 410.41758229 -581 398 C-580.59072266 397.52820313 -580.59072266 397.52820313 -578.51953125 395.140625 C-573.98375675 389.98811007 -569.28215015 385.37608789 -564 381 C-563.19046875 380.29101562 -562.3809375 379.58203125 -561.546875 378.8515625 C-546.61609542 366.05998819 -530.03199706 357.51771692 -510 359 C-488.72566234 363.31728613 -476.75900704 379.89226238 -464.86621094 396.42822266 C-461.77950724 400.68192972 -458.60486742 404.8687276 -455.4375 409.0625 C-449.04370087 417.55903523 -442.78720455 426.14716277 -436.58837891 434.78662109 C-433.91829495 438.50733754 -431.24161894 442.2232853 -428.5625 445.9375 C-428.02866699 446.67758301 -427.49483398 447.41766602 -426.94482422 448.18017578 C-422.42192085 454.43900608 -417.84470622 460.65690749 -413.25048828 466.86352539 C-410.27035677 470.89549252 -407.31529976 474.94260704 -404.40234375 479.0234375 C-403.82033203 479.83748047 -403.23832031 480.65152344 -402.63867188 481.49023438 C-401.53821816 483.03289108 -400.44159684 484.57829194 -399.34960938 486.12695312 C-396.49647157 490.12429885 -393.58803703 493.64238737 -390 497 C-389.74863281 496.43796875 -389.49726562 495.8759375 -389.23828125 495.296875 C-387.81166901 492.65066681 -386.11798132 490.55654912 -384.1875 488.25 C-383.38828125 487.28707031 -382.5890625 486.32414062 -381.765625 485.33203125 C-381.32541016 484.80303223 -380.88519531 484.2740332 -380.43164062 483.72900391 C-377.74438124 480.48357912 -375.09289085 477.20900594 -372.4375 473.9375 C-371.87305176 473.24293701 -371.30860352 472.54837402 -370.72705078 471.83276367 C-367.82216568 468.25572633 -364.93059414 464.66915915 -362.0625 461.0625 C-358.4914857 456.57989766 -354.83985556 452.16626922 -351.1875 447.75 C-346.82257241 442.47136149 -342.51741309 437.15697143 -338.3125 431.75 C-334.30188429 426.59454382 -330.15591589 421.57815107 -325.91333008 416.61230469 C-323.21647681 413.45204302 -320.57921702 410.25685245 -318 407 C-314.92686997 403.12245148 -311.76721948 399.33104328 -308.5625 395.5625 C-303.63533998 389.76648435 -298.795216 383.90592897 -294 378 C-292.95576546 376.71481426 -291.91149206 375.4296601 -290.8671875 374.14453125 C-289.74477973 372.76303053 -288.62238411 371.38151994 -287.5 370 C-285.83634691 367.952243 -284.17266402 365.90451032 -282.50878906 363.85693359 C-281.19040211 362.23433632 -279.87250355 360.61134223 -278.5546875 358.98828125 C-274.56695366 354.09294491 -270.52668293 349.24801592 -266.4375 344.4375 C-262.52676382 339.83659429 -258.70405656 335.17894345 -254.94921875 330.44921875 C-249.12841083 323.13529778 -243.14143704 315.96500861 -237.09106445 308.84106445 C-232.65948274 303.61572033 -228.32281865 298.31558171 -224 293 C-218.07303939 285.73975336 -212.12162516 278.49998637 -206.16015625 271.26806641 C-202.86633915 267.27110491 -199.58294603 263.26613121 -196.3125 259.25 C-192.60221698 254.70524812 -188.81375941 250.23111135 -185.01269531 245.76245117 C-182.30604538 242.57138855 -179.65707392 239.3460894 -177.0625 236.0625 C-173.80746942 231.95193777 -170.42491612 227.9685957 -167 224 C-162.9834215 219.34322314 -159.06213395 214.63610175 -155.24609375 209.8125 C-147.5879006 200.22311031 -139.71524425 190.80338439 -131.76025391 181.45947266 C-129.1369812 178.37001302 -126.57596474 175.24174904 -124.0625 172.0625 C-120.36851575 167.39402911 -116.48808764 162.90478896 -112.58251953 158.41381836 C-108.55845204 153.74842708 -104.79776093 148.91951133 -101.20947266 143.91088867 C-100.20802452 142.55402629 -99.11080624 141.26889061 -98 140 C-97.01 140 -96.02 140 -95 140 C-94.92629939 189.18325506 -95.10782342 238.36220659 -95.41884837 287.54441418 C-95.48681726 298.32758678 -95.55056801 309.11078399 -95.61436462 319.89398193 C-95.6384061 323.94856659 -95.66247997 328.00315106 -95.68656826 332.05773544 C-95.68957146 332.56326047 -95.68957146 332.56326047 -95.70476945 335.12152345 C-95.77221521 346.46285624 -95.8406454 357.80418303 -95.90942383 369.14550781 C-95.91566737 370.17521036 -95.92191091 371.20491291 -95.92834365 372.26581857 C-96.03076567 389.14338943 -96.13554958 406.02094515 -96.24076361 422.8984988 C-96.34953695 440.36282137 -96.45442738 457.82716458 -96.55602258 475.29153037 C-96.61848992 486.00388424 -96.68419051 496.71620847 -96.75410735 507.42851636 C-96.8014187 514.71689844 -96.84509289 522.00529641 -96.88584096 529.29371813 C-96.90944821 533.49500797 -96.93474704 537.69627047 -96.96445465 541.89752197 C-96.99156828 545.73630812 -97.01405257 549.57509173 -97.03276329 553.41392776 C-97.04038249 554.80553493 -97.04974336 556.19713382 -97.06097353 557.58871654 C-97.07592555 559.47183406 -97.08406434 561.35500206 -97.09181309 563.23816299 C-97.09826833 564.2860557 -97.10472358 565.33394841 -97.11137444 566.41359544 C-97 569 -97 569 -96 572 C-88.58127959 564.7842233 -81.99460973 557.11870503 -75.69921875 548.90625 C-75.13847656 548.2771875 -74.57773437 547.648125 -74 547 C-73.34 547 -72.68 547 -72 547 C-71.72470459 546.4131543 -71.44940918 545.82630859 -71.16577148 545.22167969 C-70.04677049 543.08913329 -68.83474363 541.34160466 -67.34765625 539.453125 C-66.82429687 538.7818457 -66.3009375 538.11056641 -65.76171875 537.41894531 C-65.20097656 536.70319336 -64.64023437 535.98744141 -64.0625 535.25 C-17.36159412 474.78162574 9.1550297 404.53315334 20.25 329.3125 C20.41338867 328.21534668 20.57677734 327.11819336 20.74511719 325.98779297 C22.9462509 310.37100742 23.23994107 294.74392995 23.25 279 C23.25067474 278.04012177 23.25134949 277.08024353 23.25204468 276.09127808 C23.17126491 203.1395984 4.47175737 122.89133044 -37.43188477 62.02270508 C-40.96601439 56.73891288 -40.96601439 56.73891288 -41.12109375 53.3671875 C-39.58770915 50.12944859 -37.52549363 47.48507803 -35.25 44.75 C-34.24484754 43.50751756 -33.24099739 42.2639807 -32.23828125 41.01953125 C-31.70928223 40.36678223 -31.1802832 39.7140332 -30.63525391 39.04150391 C-27.84150603 35.55369863 -25.14253842 31.99425077 -22.4375 28.4375 C-21.34126534 27.00121086 -20.24491252 25.56501191 -19.1484375 24.12890625 C-17.61428776 22.11749664 -16.08055558 20.10577321 -14.54785156 18.09326172 C-4.2042624 4.51958208 -4.2042624 4.51958208 0 0 Z M-173 335 C-174.61949538 336.97800963 -176.19189647 338.9742499 -177.75 341 C-181.93518769 346.3880827 -186.18248191 351.71738206 -190.5 357 C-194.59930828 362.01932692 -198.6440531 367.07383892 -202.625 372.1875 C-206.16959366 376.73768853 -209.81019184 381.18217395 -213.5625 385.5625 C-217.56504892 390.23683492 -221.37629883 395.018349 -225.09667969 399.9230957 C-228.41032 404.27596709 -231.84393847 408.51992124 -235.3125 412.75 C-239.86879949 418.31029822 -244.28880624 423.95407391 -248.625 429.6875 C-252.93887911 435.38775282 -257.38805779 440.91474588 -262.04956055 446.33325195 C-265.57267369 450.44515407 -268.89259701 454.68309913 -272.16748047 458.99414062 C-275.31679871 463.13401999 -278.54790894 467.20056984 -281.8125 471.25 C-286.10689231 476.58275648 -290.29926388 481.98280654 -294.4375 487.4375 C-299.20764645 493.72176397 -304.11286934 499.87340373 -309.11816406 505.97143555 C-313.08149689 510.81929157 -316.9064359 515.75903991 -320.6875 520.75 C-325.24200398 526.76102048 -329.93014713 532.61027052 -334.80078125 538.3671875 C-336.78639355 540.74427931 -338.68665375 543.1610738 -340.5625 545.625 C-352.46735913 561.01488815 -365.2899616 571.82490088 -385 575 C-402.70889599 576.71443857 -418.17363078 571.4379687 -431.875 560.25 C-438.66007656 553.85574385 -443.85498895 546.06547976 -449.22851562 538.49316406 C-451.44945674 535.36744043 -453.7002936 532.26399513 -455.95166016 529.16015625 C-459.1804609 524.70501804 -462.39055545 520.23637365 -465.60449219 515.77050781 C-479.07513624 497.05900528 -492.56949624 478.36103294 -507.05859375 460.41796875 C-508.41909475 458.72350171 -509.76421537 457.01662417 -511.09765625 455.30078125 C-511.44248047 454.85927734 -511.44248047 454.85927734 -513.1875 452.625 C-513.79980469 451.83351563 -514.41210938 451.04203125 -515.04296875 450.2265625 C-517.22441059 447.74468257 -519.21046212 445.78632016 -522 444 C-529.31860336 444.01150724 -535.49668749 451.49668749 -540.328125 456.328125 C-546.64517576 463.19053266 -552.368904 470.57165938 -558 478 C-558.41894531 478.55139648 -558.83789062 479.10279297 -559.26953125 479.67089844 C-567.00415676 489.94076231 -573.57491809 500.87643091 -580 512 C-580.36834961 512.62922363 -580.73669922 513.25844727 -581.11621094 513.90673828 C-596.77696159 540.85086879 -608.31800771 572.37486182 -614 603 C-614.19392334 603.85779053 -614.38784668 604.71558105 -614.58764648 605.59936523 C-615.72452222 611.92261031 -615.72452222 611.92261031 -613.83251953 614.73608398 C-612.00324578 616.35358926 -610.13003124 617.63851274 -608.0625 618.9375 C-607.33828857 619.4334668 -606.61407715 619.92943359 -605.86791992 620.44042969 C-604.35120974 621.47463224 -602.82397623 622.49355411 -601.28710938 623.49755859 C-599.10216603 624.93288538 -596.96153579 626.41520845 -594.828125 627.92578125 C-587.36258206 633.19685225 -579.75841442 638.22810119 -571.88964844 642.88085938 C-570.53806021 643.68133488 -569.19015201 644.48803708 -567.84472656 645.29882812 C-535.79988423 664.55519389 -501.30186398 678.24132467 -465 687 C-464.52852539 687.11706299 -464.52852539 687.11706299 -462.14257812 687.70947266 C-450.21807897 690.64457306 -438.23191393 692.66886554 -426.0625 694.25 C-424.80735596 694.41330811 -423.55221191 694.57661621 -422.2590332 694.74487305 C-407.3328894 696.58165086 -392.46085286 697.23653005 -377.4375 697.25 C-376.64373962 697.25100708 -375.84997925 697.25201416 -375.03216553 697.25305176 C-324.35036258 697.21013424 -274.05673035 686.19727437 -228 665 C-227.51974365 664.78174561 -227.51974365 664.78174561 -225.08935547 663.67724609 C-207.52345822 655.65415624 -190.09557331 646.73038221 -174 636 C-172.32906958 627.74211644 -172.88690998 618.80470823 -172.95326233 610.41008377 C-172.98180997 606.58691518 -172.98845798 602.76368843 -172.99609375 598.94042969 C-172.99795937 598.0894829 -172.99982498 597.23853611 -173.00174713 596.36180305 C-173.01771318 584.56621524 -172.89106807 572.77150865 -172.78125 560.9765625 C-172.758645 558.47707201 -172.73613987 555.97758062 -172.71372986 553.47808838 C-172.67875863 549.58042706 -172.64376818 545.68276596 -172.60857296 541.78510666 C-172.15073976 491.02279868 -171.90556125 440.26443957 -171.9375 389.5 C-171.93792423 388.80614984 -171.93834846 388.11229967 -171.93878555 387.39742374 C-171.94965786 369.93160239 -171.96974128 352.46579886 -172 335 C-172.33 335 -172.66 335 -173 335 Z " fill="url(#g)" transform="translate(990,353)"/>
</svg>
