<?xml version="1.0" encoding="UTF-8"?>
<svg xmlns="http://www.w3.org/2000/svg" width="1254" height="1254" viewBox="0 0 1254 1254">
<defs><linearGradient id="g" x1="0" y1="1" x2="1" y2="0" gradientUnits="objectBoundingBox"><stop offset="0" stop-color="#0EA6C9"/><stop offset="0.45" stop-color="#11B4AE"/><stop offset="0.75" stop-color="#14CC8C"/><stop offset="1" stop-color="#16D27E"/></linearGradient></defs>
<path d="M0 0 C6.30070406 0.00457877 12.60139761 -0.00248577 18.90209949 -0.00795984 C30.49640352 -0.01628969 42.09068085 -0.01563823 53.68498549 -0.01013691 C64.40083682 -0.0050782 75.11668048 -0.00380514 85.83253276 -0.00618219 C86.18984752 -0.00625858 86.18984752 -0.00625858 87.99807676 -0.00664513 C90.89998395 -0.00726795 93.80189113 -0.00790477 96.7037983 -0.00856466 C123.84827921 -0.0146635 150.9927468 -0.00916616 178.13722565 0.00162913 C202.18249935 0.01111923 226.22775187 0.010268 250.27302539 0.00070715 C277.37375226 -0.01003294 304.47446739 -0.01423175 331.57519609 -0.00806832 C334.47108443 -0.00742702 337.36697278 -0.00680133 340.26286113 -0.00618219 C340.61930512 -0.00610312 340.61930512 -0.00610312 342.42312771 -0.00570294 C353.12532019 -0.00344078 363.82750411 -0.00606447 374.52969539 -0.0111413 C386.71412006 -0.01689293 398.89851341 -0.01517028 411.08293647 -0.00457981 C417.28609324 0.00063616 423.48920728 0.00280415 429.69236362 -0.00387812 C515.56243788 -0.08842048 595.31190441 11.88322846 658.79328907 74.82394934 C663.43189556 79.48893522 667.7188105 84.35297865 671.78547657 89.53098059 C673.56941525 91.749794 675.40420325 93.84838245 677.30891407 95.96066809 C681.25873971 100.45284369 684.572314 105.26960815 687.85578907 110.26144934 C688.4636626 111.18135656 689.07153614 112.10126379 689.69783008 113.04904699 C705.75632363 137.5870553 716.48657639 163.26333414 723.3758086 191.76584387 C723.87112544 193.80907581 724.38950127 195.84670544 724.91438282 197.88254309 C726.79250117 205.67722083 727.69917662 213.55346781 728.60578907 221.51144934 C728.72913623 222.59393957 728.8524834 223.67642981 728.97956836 224.79172277 C730.81548996 241.95409576 731.12803833 259.05100338 731.11450183 276.29410315 C731.11637377 278.57752194 731.11867598 280.86094042 731.12136716 283.1443584 C731.1274445 289.37364881 731.12735639 295.60292572 731.12617278 301.83221841 C731.12598884 307.87535102 731.13049087 313.91847916 731.13478567 319.96160981 C731.14442243 333.83734489 731.14726856 347.71307626 731.14784273 361.58881429 C731.14830358 372.31324277 731.15036873 383.03766982 731.15354335 393.76209784 C731.15444101 396.85747266 731.15533082 399.95284748 731.15621823 403.0482223 C731.15643928 403.81791459 731.15666033 404.58760688 731.15688807 405.38062317 C731.16303671 427.01191257 731.16698921 448.64320147 731.1665448 470.27449179 C731.16652922 471.08893439 731.16651364 471.90337699 731.16649759 472.74249967 C731.16641449 476.86971077 731.16631545 480.99692187 731.16621288 485.12413296 C731.16620291 485.5339147 731.16620291 485.5339147 731.16615244 487.60765865 C731.166112 489.26501529 731.1660702 490.92237194 731.16602705 492.57972858 C731.16541486 518.34164245 731.17291274 544.10354314 731.18659961 569.86545324 C731.20199938 598.86282707 731.21056346 627.86019224 731.20963639 656.85757041 C731.20956177 659.95671749 731.20951306 663.05586457 731.20948207 666.15501165 C731.20947042 666.91800047 731.20945877 667.68098929 731.20944676 668.46709899 C731.20941613 680.68377624 731.21577024 692.90044193 731.22441434 705.11711576 C731.23294004 717.42204219 731.23384266 729.72695193 731.22730502 742.03187969 C731.22396089 748.6826578 731.22391228 755.33340343 731.23265827 761.98417997 C731.31313585 827.26233584 731.31313585 827.26233584 726.79328907 854.57394934 C726.74107196 854.89832479 726.74107196 854.89832479 726.47682178 856.5398612 C724.33360857 869.74970693 721.11637696 882.53918252 716.98078907 895.26144934 C716.71040821 896.09885656 716.44002735 896.93626379 716.16145313 897.79904699 C709.71275595 917.35430681 700.69603522 936.31320334 688.98078907 953.26144934 C688.46145801 954.01377844 687.94212696 954.76610754 687.4070586 955.54123449 C679.82257068 966.40753587 671.61830375 976.26916912 662.38386524 985.7612052 C660.45369278 987.82504889 658.74296739 990.05400968 656.98078907 992.26144934 C655.82612138 993.35954088 654.63829276 994.42393544 653.41828907 995.44894934 C651.10827736 997.41267044 648.84765152 999.38789655 646.64875782 1001.47629309 C629.32185241 1017.89826027 608.54299283 1030.23567921 586.98078907 1040.26144934 C586.62420215 1040.42765783 586.62420215 1040.42765783 584.81965625 1041.26877356 C559.95590667 1052.68424012 533.16814952 1058.67026211 506.10578907 1062.01144934 C505.6375774 1062.06929602 505.6375774 1062.06929602 503.26814258 1062.36203527 C486.5659126 1064.25020078 469.78852641 1064.41007811 453.00044239 1064.40189123 C450.84346786 1064.40448171 448.6864938 1064.40749674 446.52952039 1064.41089463 C440.65419087 1064.41888785 434.77887361 1064.42074987 428.9035393 1064.4214921 C422.54594957 1064.42335619 416.18836602 1064.43091021 409.83077991 1064.43762732 C395.22932977 1064.45186106 380.62788216 1064.45773019 366.02642629 1064.46231926 C358.79310471 1064.46466386 351.55978393 1064.46826743 344.32646297 1064.47201464 C319.5107159 1064.48484333 294.69496925 1064.49556259 269.87921894 1064.49901724 C268.3246493 1064.49923886 266.77007967 1064.49946065 265.21551004 1064.49968259 C263.65743659 1064.49990322 262.09936314 1064.5001237 260.54128969 1064.50034404 C257.41614234 1064.50078656 254.290995 1064.50123368 251.16584766 1064.50168371 C250.39100665 1064.5017931 249.61616564 1064.50190249 248.81784461 1064.5020152 C223.72600153 1064.5056412 198.63418742 1064.52154749 173.54235543 1064.54487408 C146.94271919 1064.56955667 120.34309948 1064.58319398 93.74345148 1064.58438516 C90.81470573 1064.58455658 87.88595998 1064.58477199 84.95721424 1064.58501959 C84.23620355 1064.58507536 83.51519286 1064.58513113 82.77233336 1064.58518858 C71.24755613 1064.58633175 59.72280902 1064.59729051 48.19804192 1064.61190664 C36.57983025 1064.62638473 24.96166535 1064.62919633 13.34344614 1064.62146667 C7.06871501 1064.61759461 0.79408365 1064.61831833 -5.48063481 1064.63252401 C-93.52196779 1064.82004696 -172.22363049 1050.87196711 -237.01921093 987.26144934 C-258.69792599 965.42623383 -274.61266186 939.26515357 -287.01921093 911.26144934 C-287.29861523 910.63432043 -287.57801953 910.00719152 -287.86589062 909.36105871 C-296.62800617 889.21596669 -301.63845407 866.02901832 -304.01921093 844.26144934 C-304.06658398 843.8593424 -304.06658398 843.8593424 -304.30632031 841.82443762 C-307.92410138 810.78800368 -307.17077669 779.40064708 -307.16459465 748.21184063 C-307.16440976 742.37934512 -307.16892334 736.54685425 -307.17320754 730.71436059 C-307.18281133 717.33670057 -307.18568912 703.95904443 -307.1862646 690.58138137 C-307.18672645 680.24191937 -307.18879668 669.90245886 -307.19196522 659.56299734 C-307.19286293 656.57282627 -307.19375275 653.58265519 -307.1946401 650.59248412 C-307.19486115 649.84885641 -307.1950822 649.1052287 -307.19530994 648.33906681 C-307.20145237 627.46117357 -307.20541169 606.58328083 -307.20496666 585.70538664 C-307.20495109 584.92040532 -307.20493551 584.135424 -307.20491946 583.32665537 C-307.20483636 579.34920349 -307.20473733 575.37175161 -307.20463475 571.39429973 C-307.2046148 570.60454382 -307.20459486 569.8147879 -307.20457431 569.00109999 C-307.20453387 567.40402676 -307.20449207 565.80695353 -307.20444892 564.2098803 C-307.20383643 539.37289746 -307.21134266 514.53592828 -307.22502148 489.69894934 C-307.2404291 461.71228725 -307.24898495 433.72563413 -307.24805826 405.73896754 C-307.24798364 402.74691033 -307.24793493 399.75485313 -307.24790394 396.76279593 C-307.24789229 396.02622459 -307.24788063 395.28965325 -307.24786863 394.53076157 C-307.24783804 382.75312264 -307.25418321 370.97549572 -307.26283621 359.19786035 C-307.27137135 347.33422179 -307.27225722 335.47060053 -307.26572689 323.60696058 C-307.26248638 317.19877583 -307.26231445 310.79063397 -307.27108014 304.38245344 C-307.38559604 214.86270844 -296.01965762 137.63054812 -231.01921093 71.26144934 C-167.76071 8.4855174 -84.6718651 -0.09126077 0 0 Z M166.98078907 168.26144934 C166.41440723 168.34725256 166.41440723 168.34725256 163.54817188 168.78146887 C91.31384345 179.96749343 23.63657422 211.77493685 -31.01921093 260.26144934 C-31.74245556 260.89711828 -32.46570019 261.53278723 -33.21086133 262.18771887 C-39.67391043 267.92386138 -45.85258386 273.90859621 -51.96037304 280.01730871 C-53.57811286 281.63285614 -55.20371729 283.24019967 -56.82975781 284.84738684 C-63.34536892 291.32790488 -69.3251022 298.0340618 -75.01921093 305.26144934 C-76.04391793 306.51621144 -77.07094426 307.76908642 -78.10124218 309.01926184 C-108.58607878 346.4560152 -131.31338174 389.33324884 -146.01921093 435.26144934 C-146.17897412 435.75806067 -146.17897412 435.75806067 -146.98747265 438.27121496 C-156.72259745 468.94729038 -163.00586664 501.39342103 -163.25749218 533.64816809 C-163.26724072 534.696332 -163.27698925 535.74449591 -163.2870332 536.82442236 C-163.46289651 560.64345902 -163.00600311 583.74691011 -159.01921093 607.26144934 C-158.83729199 608.38970129 -158.65537304 609.51795324 -158.4679414 610.68039465 C-153.85024378 638.89828234 -146.84542269 670.89102195 -133.01921093 696.26144934 C-130.81603121 693.490934 -129.20854014 690.79543548 -127.74186718 687.57785559 C-127.31671826 686.66020422 -126.89156933 685.74255285 -126.45353711 684.79709387 C-126.00083447 683.81595617 -125.54813183 682.83481848 -125.08171093 681.82394934 C-121.24979063 673.66516586 -117.19366057 665.70514499 -112.70671093 657.88644934 C-112.46730786 657.4685111 -112.46730786 657.4685111 -111.2557832 655.35349035 C-107.50240941 648.90106125 -107.50240941 648.90106125 -105.29508984 645.97922277 C-100.53319664 639.6346075 -100.53319664 639.6346075 -100.96452343 635.01535559 C-101.27668777 633.42249055 -101.63257643 631.8378945 -102.01921093 630.26144934 C-102.22384961 629.28933508 -102.42848828 628.31722082 -102.63932812 627.31564856 C-103.3591694 623.93568055 -104.12620079 620.56827664 -104.89421093 617.19894934 C-123.02525303 535.22286067 -106.90249468 447.76246395 -62.59342968 376.63058996 C-60.78827989 373.80471001 -58.91185291 371.02898456 -57.01921093 368.26144934 C-56.58173535 367.61433996 -56.14425976 366.96723059 -55.69352734 366.30051184 C-44.72069257 350.12921554 -32.4920174 334.00374436 -18.21842968 320.56613684 C-17.01921093 319.26144934 -17.01921093 319.26144934 -17.01921093 317.26144934 C-16.02921093 316.93144934 -15.03921093 316.60144934 -14.01921093 316.26144934 C-11.33171093 313.82394934 -11.33171093 313.82394934 -9.01921093 311.26144934 C-9.01921093 310.60144934 -9.01921093 309.94144934 -9.01921093 309.26144934 C-8.443 309.0152384 -7.86678906 308.76902746 -7.27311718 308.51535559 C-4.65679563 307.05982835 -3.01029258 305.37536203 -0.95671093 303.19894934 C4.03206779 298.11314412 9.37419116 293.64449447 14.98078907 289.26144934 C15.62644825 288.75533117 16.27210742 288.24921301 16.93733203 287.72775793 C25.72135838 280.86581121 34.5772129 274.25986455 43.98078907 268.26144934 C45.09578927 267.52379782 46.21035175 266.78548436 47.32453907 266.04660559 C114.96989432 221.81554805 198.96666734 206.6743886 277.98078907 222.26144934 C306.77442337 228.36987806 333.96531742 238.55067864 359.98078907 252.26144934 C360.67704395 252.62287024 361.37329883 252.98429113 362.09065235 253.35666418 C378.15618607 261.74103363 392.75913613 272.06775583 406.98078907 283.26144934 C407.92051563 283.99234777 408.86024219 284.72324621 409.82844532 285.47629309 C411.87922657 287.07134517 413.93000782 288.66639725 415.98078907 290.26144934 C419.3312834 287.72128039 421.99614 285.22566489 424.54328907 281.88644934 C427.91006003 277.57138183 431.40088822 273.39887114 434.98078907 269.26144934 C439.78551449 263.69768475 444.44654177 258.04928264 448.98078907 252.26144934 C395.05141347 197.26512567 306.71488404 165.93434601 230.63313282 164.96066809 C226.72795153 164.93179001 222.82353031 164.93441098 218.91828907 164.94894934 C218.40602268 164.94986074 218.40602268 164.94986074 215.81364429 164.95447302 C199.35663732 165.003565 183.26577354 165.71303574 166.98078907 168.26144934 Z M314.98078907 269.26144934 C314.61727344 270.21664465 314.25375782 271.17183996 313.87922657 272.15598059 C305.23173747 294.54353051 293.78849418 310.82831704 271.34797657 320.89035559 C266.26451044 323.1095906 261.13599517 325.21481321 255.98078907 327.26144934 C255.98078907 327.59144934 255.98078907 327.92144934 255.98078907 328.26144934 C256.82899219 328.4689884 257.67719532 328.67652746 258.55110157 328.89035559 C277.8914796 333.96986147 294.83563829 343.4985701 305.54328907 360.76144934 C309.59629299 367.9138092 312.29806106 375.51789743 314.98078907 383.26144934 C317.12222096 380.04930149 318.21221275 377.07053874 319.54328907 373.44894934 C326.06974423 356.56457746 336.52267304 343.40554031 352.98078907 335.26144934 C359.1790838 332.55959165 365.57054292 330.39819805 371.98078907 328.26144934 C371.98078907 327.60144934 371.98078907 326.94144934 371.98078907 326.26144934 C370.97660938 325.92113684 369.97242969 325.58082434 368.93782032 325.23019934 C347.17176296 317.61716354 331.51287776 305.38667265 321.33625782 284.37863684 C319.19429824 279.4527471 317.52986898 274.40074976 315.98078907 269.26144934 C315.65078907 269.26144934 315.32078907 269.26144934 314.98078907 269.26144934 Z M606.98078907 151.26144934 C582.21881077 160.66988389 557.47637101 170.12790856 532.75959766 179.65451574 C521.61459332 183.94884973 510.46300275 188.22459499 499.29719532 192.46457434 C496.0317592 193.70671963 492.76644379 194.94918178 489.50114429 196.19168615 C487.41580581 196.98380197 485.32973231 197.77398561 483.24290454 198.56216955 C480.36987263 199.64734418 477.49933403 200.73888087 474.62922657 201.83176184 C473.77667789 202.15163061 472.92412921 202.47149939 472.04574573 202.80106115 C471.27069187 203.09752539 470.495638 203.39398962 469.69709766 203.69943762 C469.02343158 203.95444036 468.34976551 204.20944311 467.65568531 204.47217321 C465.98078907 205.26144934 465.98078907 205.26144934 463.98078907 207.26144934 C464.45685596 207.61223547 464.93292285 207.9630216 465.42341602 208.32443762 C466.09848194 208.82185461 466.77354785 209.3192716 467.46907032 209.83176184 C468.22977832 210.39218176 468.99048633 210.95260168 469.7742461 211.53000402 C471.46702098 212.77751907 473.15939779 214.02557442 474.85139453 215.27414465 C479.3710736 218.60812865 483.89718778 221.93260816 488.43782032 225.23801184 C488.87106616 225.55439611 488.87106616 225.55439611 491.06355274 227.15549231 C492.73970166 228.37916312 494.41820248 229.59961978 496.09919727 230.81662512 C496.85676319 231.37076086 497.6143291 231.9248966 498.39485157 232.49582434 C498.72976612 232.73929602 498.72976612 232.73929602 500.42463672 233.97141027 C501.98078907 235.26144934 501.98078907 235.26144934 502.98078907 237.26144934 C502.32078907 237.26144934 501.66078907 237.26144934 500.98078907 237.26144934 C499.21423216 239.32998178 497.55753729 241.40774006 495.91828907 243.57394934 C494.92049656 244.86891831 493.92178747 246.16318151 492.92219532 247.45676184 C492.67348682 247.77983313 492.67348682 247.77983313 491.4148711 249.41476965 C488.03087557 253.77236961 484.48958295 258.00436428 480.98078907 262.26144934 C479.48007731 264.0942001 477.98008269 265.92753828 476.48078907 267.76144934 C475.73184375 268.67668371 474.98289844 269.59191809 474.21125782 270.53488684 C472.77578971 272.28962718 471.34085111 274.04480088 469.90657032 275.80051184 C467.60023651 278.62268 465.29151669 281.44287865 462.98078907 284.26144934 C462.71951221 284.58017004 462.71951221 284.58017004 461.39729297 286.19308996 C455.41289746 293.48854841 449.42050443 300.77278135 443.29328907 307.94894934 C439.14809207 312.81187394 435.16839389 317.78506682 431.24128711 322.82517004 C427.74707772 327.30453098 424.19320225 331.73142721 420.60578907 336.13644934 C420.33460254 336.46947058 420.33460254 336.46947058 418.96223438 338.15475988 C416.74779886 340.87179248 414.53124458 343.58709293 412.31477344 346.30246496 C406.19069245 353.80824225 400.10655238 361.33770055 394.14436328 368.97287512 C390.10144805 374.13792945 385.96217055 379.22162067 381.8145293 384.3027091 C378.34185424 388.56455843 374.922526 392.86276035 371.54328907 397.19894934 C366.86076756 403.20359456 362.03091041 409.07805057 357.17463672 414.94260168 C353.06949501 419.91080083 349.0554509 424.93998061 345.09407032 430.02316809 C341.07385609 435.17186349 336.95245916 440.23466228 332.82087696 445.29416418 C329.27955995 449.63920297 325.79914234 454.02602143 322.35578907 458.44894934 C318.3922413 463.53512046 314.29088378 468.47779335 310.09870899 473.37643957 C306.38032731 477.74098136 302.83573651 482.2238363 299.31672657 486.74973059 C295.61920161 491.48881186 291.81573124 496.1331246 287.98078907 500.76144934 C283.74428742 505.87614544 279.55992002 511.02031075 275.48078907 516.26144934 C271.40165402 521.50259318 267.21712834 526.64661443 262.98078907 531.76144934 C258.26775059 537.45289397 253.63625905 543.19469581 249.09407032 549.02316809 C245.61224908 553.48234265 242.05830211 557.87878591 238.48078907 562.26144934 C233.35454724 568.54292203 228.31159114 574.88381432 223.32063282 581.27316809 C221.79992142 583.21531202 220.2515851 585.13624733 218.67219532 587.03098059 C216.98078907 589.26144934 216.98078907 589.26144934 216.98078907 591.26144934 C214.06158928 588.48339768 211.71859998 585.62785162 209.41828907 582.32394934 C204.644126 575.64553598 199.34612631 569.46512052 193.98078907 563.26144934 C195.00817188 562.76516027 196.03555469 562.26887121 197.09407032 561.75754309 C225.99574895 547.6583951 247.24134477 527.99546033 258.98078907 497.26144934 C260.01128629 494.2439455 260.92811782 491.20518009 261.79328907 488.13644934 C261.9881792 487.44527014 262.18306934 486.75409094 262.38386524 486.04196692 C270.53483202 455.13008099 267.81776627 419.95758684 251.74250782 391.98410559 C236.81945114 368.92119981 214.76518009 352.94845916 187.98078907 346.26144934 C174.98253964 343.58764394 162.14197472 342.83183314 148.91145313 342.92087317 C147.07676577 342.92179553 145.24207736 342.921386 143.40739048 342.91977739 C138.56238784 342.91910931 133.71761451 342.9362996 128.87266529 342.9576087 C124.30046477 342.97489107 119.72831568 342.97550865 115.15608203 342.97763586 C101.84762152 342.99328127 88.53920226 343.03516498 75.23078907 343.07394934 C45.44828907 343.13582434 15.66578907 343.19769934 -15.01921093 343.26144934 C-15.01921093 410.58144934 -15.01921093 477.90144934 -15.01921093 547.26144934 C-10.52700283 543.89229326 -6.15734014 540.58900171 -1.84733593 537.02609777 C14.06047245 523.94262926 31.61767116 513.92651964 50.32307422 505.43039465 C54.88725791 503.35498049 54.88725791 503.35498049 55.98078907 502.26144934 C56.07608518 499.24794696 56.1063081 496.25740828 56.09431446 493.24362707 C56.09438747 492.77050589 56.09438747 492.77050589 56.09475696 490.37622595 C56.09405743 487.23247542 56.08626315 484.08878333 56.07844532 480.94504309 C56.07658128 478.77170866 56.07515731 476.59837381 56.0741576 474.42503881 C56.07033128 468.69243738 56.06050003 462.95986111 56.04945362 457.22726965 C56.03924193 451.38254655 56.0346605 445.5378194 56.02961719 439.69308996 C56.01887786 428.21586534 56.00180009 416.73865943 55.98078907 405.26144934 C66.80433334 405.21485101 77.62785325 405.17944167 88.45147789 405.15782499 C93.47878139 405.14744353 98.50601564 405.13338892 103.5332793 405.11057043 C108.39624628 405.08863897 113.25914717 405.07683847 118.12215984 405.07169485 C119.96584538 405.06803517 121.80952782 405.06089028 123.65318477 405.04998922 C145.62160724 404.9254105 165.02863946 406.46168121 182.00813282 422.13254309 C191.6554867 432.28654138 195.8695325 445.96391935 196.35578907 459.76144934 C195.78646284 475.31544172 190.32020583 489.83339227 179.42219532 501.08176184 C166.81444911 512.33795765 151.16591015 517.49618335 134.48469532 517.60519934 C133.6116727 517.61982214 132.73865009 517.63444494 131.83917224 517.64951086 C129.07392395 517.69547536 126.30873686 517.72990523 123.54328907 517.76144934 C88.23947871 518.1712623 88.23947871 518.1712623 73.10578907 522.57394934 C72.71339038 522.68331823 72.71339038 522.68331823 70.72761524 523.23679113 C39.5568986 532.14134186 10.16735898 551.07099421 -13.50749218 572.96066809 C-15.56133553 574.84202692 -17.64425137 576.66627965 -19.75358593 578.48410559 C-24.33418964 582.48284159 -28.66052892 586.71068913 -32.95671093 591.01144934 C-33.7501289 591.80567297 -34.54354687 592.5998966 -35.36100781 593.41818762 C-40.99239342 599.10866801 -46.09401483 604.94982992 -51.01921093 611.26144934 C-52.59932901 613.1183568 -54.1828596 614.9723641 -55.76921093 616.82394934 C-62.29446201 624.64614472 -68.17487369 632.92387708 -74.01921093 641.26144934 C-74.45733105 641.88358313 -74.89545117 642.50571692 -75.34684765 643.14670324 C-91.50864464 666.24505888 -105.21738156 691.55895638 -115.89421093 717.63644934 C-116.06428662 718.04653234 -116.06428662 718.04653234 -116.92497265 720.1218009 C-117.22161816 720.87686926 -117.51826367 721.63193762 -117.82389843 722.40988684 C-117.95272412 722.73561682 -117.95272412 722.73561682 -118.60466015 724.38400793 C-120.73591355 734.03615082 -107.81637692 749.21303549 -102.75810254 757.2702384 C-99.67393336 762.09748393 -96.51535483 766.87438444 -93.33171093 771.63644934 C-92.89088177 772.29723486 -92.45005261 772.95802038 -91.99586499 773.63882971 C-84.06787543 785.48971771 -84.06787543 785.48971771 -81.01921093 788.26144934 C-79.62889193 783.70022733 -78.58357736 779.18969791 -77.72673047 774.50070715 C-75.6913949 763.4269177 -72.69452157 752.89317643 -69.01921093 742.26144934 C-68.79539746 741.59758215 -68.57158398 740.93371496 -68.34098828 740.24973059 C-57.56578312 708.51156093 -39.42641276 678.9226464 -18.01921093 653.26144934 C-17.69694531 652.85346106 -17.69694531 652.85346106 -16.06608593 650.78879309 C2.64635051 627.25963689 25.05324135 606.59188683 50.98078907 591.26144934 C51.57037403 590.91243567 52.15995899 590.56342199 52.76741016 590.20383215 C73.09421181 578.36244703 96.39920227 571.10659222 119.85578907 576.88644934 C131.15495226 580.33528677 140.10242192 585.54049309 148.98078907 593.26144934 C149.74133594 593.88922277 150.50188282 594.51699621 151.28547657 595.16379309 C156.33993454 599.43996947 160.49522336 604.10386131 164.60578907 609.28488684 C167.12419732 612.44118139 169.72931003 615.50795029 172.35578907 618.57394934 C179.80076949 627.31857826 186.79461063 636.40859308 193.79328907 645.51144934 C194.59508594 646.55172277 195.39688282 647.59199621 196.22297657 648.66379309 C198.37050336 651.45557792 200.49298382 654.26558852 202.61360157 657.07785559 C203.88159205 658.74340191 205.14981998 660.40876749 206.41828907 662.07394934 C206.72013111 662.4779093 206.72013111 662.4779093 208.24763477 664.52219152 C208.81828662 665.26759192 209.38893848 666.01299231 209.97688282 666.78098059 C210.48404834 667.45234045 210.99121387 668.12370031 211.51374805 668.81540442 C212.98078907 670.26144934 212.98078907 670.26144934 215.98078907 670.26144934 C217.94358819 668.2683601 219.70943978 666.29018155 221.48078907 664.13644934 C221.74565113 663.82099157 221.74565113 663.82099157 223.08601367 662.2245841 C227.12611564 657.3813909 231.03144054 652.43551754 234.89802539 647.45334387 C238.50456196 642.819058 242.26080852 638.33091187 246.0735625 633.86569738 C249.36032587 630.01178552 252.5422607 626.09006657 255.68782032 622.12082434 C258.7487098 618.30383779 261.86528604 614.53390203 264.98078907 610.76144934 C268.67699945 606.28441753 272.36908877 601.80721006 275.98078907 597.26144934 C281.34473932 590.51325385 286.86298827 583.89039496 292.34895313 577.24142981 C296.63181059 572.04484483 300.89219859 566.82969802 305.14094532 561.60519934 C309.15954105 556.67231992 313.22596819 551.78852636 317.35578907 546.94894934 C321.15667554 542.49061223 324.82675835 537.95233038 328.41828907 533.32394934 C332.69223455 527.81791689 337.14617145 522.50101335 341.70881641 517.23264074 C345.21982391 513.17250206 348.59798336 509.02807066 351.92610157 504.81613684 C354.37267332 501.77420162 356.88912655 498.79726593 359.41828907 495.82394934 C364.34652816 490.02905785 369.18238997 484.16451585 373.98078907 478.26144934 C378.76050657 472.38136522 383.57552504 466.53704323 388.48078907 460.76144934 C392.53079418 455.99223239 396.52430762 451.18232818 400.47688282 446.33176184 C407.86630256 437.27078849 415.27884819 428.2290283 422.85578907 419.32394934 C426.55498946 414.97513005 430.16324073 410.56643899 433.71125782 406.09348059 C438.450339 400.17982507 443.30058665 394.35622019 448.12532032 388.5124259 C449.94551467 386.30424275 451.76085296 384.09216731 453.57453907 381.87863684 C459.56852687 374.5684324 465.61359935 367.31332926 471.78718555 360.15402746 C476.28176824 354.93441453 480.64414084 349.6128891 484.98078907 344.26144934 C490.23993208 337.78938685 495.56237406 331.38004589 500.96467578 325.02756262 C504.35722278 321.0270408 507.64219778 316.95172753 510.89875782 312.83957434 C513.31162913 309.85177871 515.79871825 306.93085972 518.29328907 304.01144934 C522.69009273 298.86285266 526.89641056 293.5903554 531.04182422 288.23801184 C534.3790469 283.95473801 537.90110809 279.89549799 541.61750782 275.93332434 C542.98078907 274.26144934 542.98078907 274.26144934 542.98078907 272.26144934 C547.43800463 274.49005712 550.46728837 277.64847837 553.89485157 281.17160559 C555.75570152 283.03594028 557.65873141 284.74888052 559.66828907 286.44894934 C564.18106769 290.3067919 568.29524333 294.54792331 572.41316211 298.81882238 C572.94594776 299.36320959 573.4787334 299.9075968 574.02766407 300.46848059 C574.50042774 300.95808264 574.97319141 301.44768469 575.46028125 301.95212317 C577.1792002 303.43230337 578.94438599 304.27993254 580.98078907 305.26144934 C583.59609353 292.39449142 586.07140888 279.51253521 588.37141407 266.58566809 C588.68049874 264.85702574 588.98972708 263.12840907 589.29908741 261.39981604 C590.11267758 256.84967604 590.92336002 252.29902366 591.73286426 247.74815512 C592.23379298 244.93206212 592.73518523 242.11605194 593.23664844 239.30005407 C595.35104803 227.42300851 597.45741198 215.54455356 599.556198 203.66473913 C599.83037633 202.11282241 600.10464173 200.56092108 600.37901294 199.00903845 C601.75472723 191.22763724 603.12313864 183.44505337 604.46845996 175.65833044 C604.8079296 173.69744237 605.14977864 171.73696463 605.49409473 169.77692175 C605.95524792 167.14664804 606.40709759 164.51496673 606.85578907 161.88254309 C606.92204486 161.5096314 606.92204486 161.5096314 607.25733936 159.62247229 C607.801668 156.36420551 608.04365055 154.45003379 606.98078907 151.26144934 Z M531.98078907 333.26144934 C529.9442536 335.50709335 527.95325118 337.7729273 525.98078907 340.07394934 C525.39136524 340.75811926 524.80194141 341.44228918 524.19465625 342.14719152 C520.09667031 346.91961439 516.06692081 351.74249095 512.10969532 356.63254309 C510.60741783 358.48764904 509.09322841 360.33313927 507.57063282 362.17160559 C506.77785938 363.12937902 505.98508594 364.08715246 505.16828907 365.07394934 C504.46059375 365.92601965 503.75289844 366.77808996 503.02375782 367.65598059 C500.83967403 370.44141823 498.90827713 373.29441715 496.98078907 376.26144934 C497.28669971 376.77191809 497.59261035 377.28238684 497.90779102 377.80832434 C543.27238263 454.02691952 554.22173952 543.0782453 533.56819141 628.90988684 C525.46715657 660.7282954 513.33108398 690.83001609 496.98078907 719.26144934 C496.73449756 719.69272131 496.73449756 719.69272131 495.48811328 721.87521887 C486.26215093 737.94379533 475.78502771 752.97591154 463.98078907 767.26144934 C463.18414844 768.2424259 462.38750782 769.22340246 461.56672657 770.23410559 C455.30406493 777.93817347 455.30406493 777.93817347 452.98078907 780.26144934 C452.65078907 663.77144934 452.32078907 547.28144934 451.98078907 427.26144934 C444.66725485 434.57498355 437.9342348 442.24043786 431.43000782 450.27707434 C428.66267901 453.6490667 425.82921536 456.95801002 422.98078907 460.26144934 C417.88097518 466.18233807 412.89988073 472.18916402 407.98078907 478.26144934 C403.04297344 484.35684811 398.04005639 490.38279517 392.91828907 496.32394934 C388.92358912 500.96031077 385.02443897 505.64871204 381.22688282 510.44894934 C374.0718181 519.40833472 366.73778994 528.22902036 359.29328907 536.94894934 C355.59591788 541.28161692 352.03632838 545.70015882 348.54328907 550.19894934 C344.28644564 555.68063563 339.85621176 560.97978495 335.31648242 566.22873449 C331.62293953 570.50068321 328.01844831 574.83509423 324.45735157 579.21848059 C321.31485737 583.07968402 318.1477992 586.92034844 314.98078907 590.76144934 C311.14000658 595.42206578 307.30199283 600.08475219 303.48078907 604.76144934 C299.76213849 609.31181289 296.02956715 613.8505608 292.29328907 618.38644934 C291.70080371 619.10582678 291.10831836 619.82520422 290.49787891 620.56638098 C287.41721893 624.30611849 284.33485117 628.04443509 281.25032032 631.78098059 C275.72763259 638.4739906 270.2181278 645.17293903 264.81672657 651.96457434 C262.0796558 655.38882457 259.29548657 658.77399235 256.51594532 662.16379309 C254.12810908 665.07823164 251.75024994 668.00070182 249.37483203 670.9252677 C248.27450203 672.27968341 247.1732575 673.63335666 246.0711211 674.98630285 C243.20567157 678.50670038 240.35805988 682.03939778 237.53938282 685.59738684 C224.48289919 702.01039428 224.48289919 702.01039428 217.98078907 705.26144934 C211.69084878 705.78561103 209.11282075 705.27865766 203.98078907 701.26144934 C201.72025142 698.87967178 199.69167662 696.34575489 197.66828907 693.76144934 C197.3830437 693.40365393 197.3830437 693.40365393 195.9395293 691.59299231 C192.0052604 686.63453812 188.18112381 681.59827755 184.41438282 676.51144934 C179.61982375 670.06690769 174.62890402 663.76870401 169.68244922 657.44064856 C168.12601714 655.44743295 166.57415924 653.45076285 165.02375782 651.45285559 C159.63658849 644.52920821 154.09810797 637.76378279 148.39094532 631.10129309 C146.85989923 629.29728902 145.35842087 627.46743363 143.89875782 625.60519934 C135.18230408 614.95372838 122.34061504 606.47403461 108.98078907 603.26144934 C81.70155363 600.6251041 58.41498206 615.74509818 38.07063282 632.42551184 C26.57444902 642.08625721 15.52304745 652.64928674 5.98078907 664.26144934 C5.14934375 665.2424259 4.31789844 666.22340246 3.46125782 667.23410559 C-10.33957978 683.77899709 -22.1787268 702.10842261 -32.01921093 721.26144934 C-32.39593945 721.97977942 -32.77266797 722.69810949 -33.1608125 723.43820715 C-43.21397427 742.76594539 -50.13378472 763.83793907 -54.01921093 785.26144934 C-54.24221875 786.38293371 -54.46522656 787.50441809 -54.69499218 788.65988684 C-55.31122866 792.1896223 -55.66056631 795.69630869 -56.01921093 799.26144934 C-56.16696972 800.07678137 -56.31472851 800.8921134 -56.46696484 801.73215246 C-57.94806791 810.10136819 -58.83055252 818.03523668 -53.93034375 825.40158606 C-47.86916566 832.88484582 -40.42095765 839.15494885 -33.01921093 845.26144934 C-32.02888867 846.07944006 -31.0385664 846.89743078 -30.01823437 847.7402091 C-28.1574193 849.26684149 -26.29283488 850.78889598 -24.42375195 852.30539465 C-22.47623757 853.88966566 -20.54780081 855.48954908 -18.63639843 857.11691809 C-12.99389307 861.91545898 -7.31436088 866.35082589 -1.01921093 870.26144934 C-1.87638942 863.68081868 -3.20747182 857.22676749 -4.55827343 850.73215246 C-13.14732222 808.71632053 -1.55859162 765.40381811 21.71907032 730.05051184 C28.73012365 719.61539916 36.35198303 709.89441728 44.84797657 700.62082434 C46.68730805 698.58610599 48.4269418 696.50406762 50.16828907 694.38644934 C60.6357215 682.44778792 76.32795669 669.22566759 91.98078907 665.26144934 C97.94426902 665.01804199 102.58013778 668.53621447 106.98078907 672.26144934 C115.67795112 681.26730695 122.84017491 691.67694992 130.17805469 701.78537512 C133.11136253 705.81430363 136.07985096 709.81716327 139.04328907 713.82394934 C142.51815946 718.5249595 145.97435573 723.23649276 149.36360157 727.99973059 C163.495873 747.85754342 177.12219126 766.09391977 202.60188282 770.79269934 C218.88253426 773.05128682 233.41566193 768.20872569 246.48078907 758.38644934 C252.3098495 753.41164776 256.55877258 747.49416525 261.00813282 741.31613684 C263.69051868 737.6039454 266.54898267 734.09951808 269.54328907 730.63644934 C273.74272826 725.76159159 277.76328023 720.77931532 281.71540821 715.70236731 C285.24650294 711.17423557 288.84889582 706.70903621 292.48078907 702.26144934 C296.51299187 697.32210432 300.49884594 692.35321449 304.41828907 687.32394934 C309.17311085 681.22779875 314.07109071 675.25668705 318.99787891 669.29904699 C322.6603645 664.86954872 326.28323906 660.4132058 329.85969532 655.91379309 C332.71274858 652.34616295 335.5972789 648.80447925 338.48078907 645.26144934 C342.08100127 640.83720337 345.67443864 636.40861277 349.23078907 631.94894934 C353.43313105 626.68060446 357.7059195 621.47099377 361.98078907 616.26144934 C363.58536628 614.30345238 365.18954088 612.3451254 366.79328907 610.38644934 C367.50098438 609.52277746 368.20867969 608.65910559 368.93782032 607.76926184 C369.612 606.94168371 370.28617969 606.11410559 370.98078907 605.26144934 C371.72715625 604.37199621 372.47352344 603.48254309 373.24250782 602.56613684 C374.98078907 600.26144934 374.98078907 600.26144934 374.98078907 598.26144934 C375.64078907 598.26144934 376.30078907 598.26144934 376.98078907 598.26144934 C376.65078907 679.11144934 376.32078907 759.96144934 375.98078907 843.26144934 C303.32720634 880.84088868 222.33855226 901.41332317 141.85188282 876.24191809 C108.28824951 865.22027922 81.51157802 846.97381678 64.73078907 815.38644934 C49.91102468 784.59427222 51.34404982 748.04834112 62.29328907 716.26144934 C62.64004688 715.33332434 62.98680469 714.40519934 63.34407032 713.44894934 C63.98078907 711.26144934 63.98078907 711.26144934 62.98078907 709.26144934 C62.65078907 710.25144934 62.32078907 711.24144934 61.98078907 712.26144934 C61.32078907 712.26144934 60.66078907 712.26144934 59.98078907 712.26144934 C58.20059248 714.26379011 56.55096006 716.26798359 54.91828907 718.38644934 C54.42876758 719.01663977 53.9392461 719.6468302 53.43489063 720.29611731 C48.53057468 726.70100754 44.19179692 733.38748032 39.98078907 740.26144934 C39.37621875 741.2114884 38.77164844 742.16152746 38.14875782 743.14035559 C20.4892895 771.80211116 11.99481107 808.28428255 19.07844532 841.48410559 C24.5651737 864.45235816 36.98937459 888.62865341 57.35505664 901.71921301 C62.45074131 904.71218744 67.76722976 907.23544295 73.10578907 909.76144934 C73.40641757 909.90434896 73.40641757 909.90434896 74.92778003 910.62750769 C157.39294644 949.79589432 251.42052353 949.60764679 336.65844715 919.56424475 C346.66477513 915.98386521 356.39278717 911.84123758 365.98078907 907.26144934 C366.71587696 906.91130774 367.45096485 906.56116613 368.20832813 906.20041418 C372.19334568 904.28485747 376.13798753 902.30139034 380.05940235 900.25900793 C382.05670346 899.22203558 384.0632019 898.20443621 386.07063282 897.18723059 C407.96637549 885.97718051 428.29777706 871.93570656 447.42561328 856.5124259 C448.86508479 855.35452135 450.31508178 854.20973474 451.76594532 853.06613684 C467.9911741 840.11462874 483.67199995 825.20774335 496.98078907 809.26144934 C497.783875 808.33590246 498.58696094 807.41035559 499.41438282 806.45676184 C517.2384585 785.85926385 532.79832529 763.08673489 545.98078907 739.26144934 C546.41165821 738.48865637 546.84252735 737.7158634 547.28645313 736.91965246 C564.4523613 705.89514266 576.23199661 672.53583796 584.98078907 638.26144934 C585.23344532 637.27547766 585.48610157 636.28950598 585.74641407 635.27365637 C593.22056464 605.62100204 596.41530711 575.16860598 596.35578907 544.63644934 C596.35524524 543.57551062 596.35470142 542.5145719 596.35414112 541.42148352 C596.18860562 470.63320819 576.04669122 390.65802906 532.98078907 333.26144934 C532.65078907 333.26144934 532.32078907 333.26144934 531.98078907 333.26144934 Z " fill="url(#g)" transform="translate(415.019210934639,92.73855066299438)"/>
</svg>
