<?xml version="1.0" encoding="UTF-8"?>
<svg xmlns="http://www.w3.org/2000/svg" width="1254" height="1254" viewBox="0 0 1254 1254">
<rect x="84" y="70" width="1085" height="1112" rx="250" ry="250" fill="#06303F"/>
<path d="M0 0 C413.82 0 827.64 0 1254 0 C1254 413.82 1254 827.64 1254 1254 C840.18 1254 426.36 1254 0 1254 C0 840.18 0 426.36 0 0 Z M199 131 C198.41798828 131.43779785 197.83597656 131.8755957 197.23632812 132.32666016 C180.81895259 144.67629688 165.07894754 159.12829622 152 175 C151.21496094 175.94617188 150.42992187 176.89234375 149.62109375 177.8671875 C102.57558948 235.59092716 87.44627074 305.4006372 83.93414307 378.12438965 C83.89048293 379.0266669 83.84682279 379.92894414 83.80183962 380.85856313 C82.82351206 401.58974692 82.71191821 422.29935234 82.73855066 443.04979253 C82.74318162 448.42005576 82.73604019 453.79030751 82.73059082 459.16056824 C82.72180567 469.61647027 82.72356942 480.07234322 82.7294161 490.52824628 C82.73397619 499.04376101 82.73452699 507.55926772 82.73236847 516.07478333 C82.732062 517.29755286 82.73175554 518.5203224 82.73143978 519.78014556 C82.73080018 522.26597941 82.73015175 524.75181327 82.7294946 527.23764712 C82.72382318 550.42040353 82.7302987 573.603144 82.74109533 596.78589779 C82.75002791 616.57716249 82.74847496 636.3684037 82.73925781 656.15966797 C82.72849834 679.27268467 82.72437221 702.38568748 82.73048234 725.49870634 C82.73111928 727.97420978 82.73174803 730.44971323 82.73236847 732.92521667 C82.73267702 734.14247457 82.73298557 735.35973247 82.73330347 736.61387697 C82.73501348 745.09608847 82.73215241 753.57829099 82.72740936 762.0605011 C82.72173688 772.43047628 82.72344812 782.80042128 82.73397085 793.17039311 C82.73914354 798.43754807 82.74143275 803.70465316 82.73467255 808.97180748 C82.71046502 829.59212475 82.93185285 850.15932937 83.93023682 870.75842285 C83.97174377 871.61540494 84.01325072 872.47238703 84.05601546 873.35533828 C87.61768906 945.13152484 101.90706966 1014.89772273 148 1072 C148.4134668 1072.51788086 148.82693359 1073.03576172 149.25292969 1073.56933594 C156.01140828 1081.96938196 163.46685963 1089.67279582 171.0625 1097.3125 C171.97225586 1098.231521 172.88201172 1099.15054199 173.81933594 1100.09741211 C182.04438534 1108.28475228 190.86147395 1115.62370002 200.25 1122.4375 C200.88220459 1122.89648682 201.51440918 1123.35547363 202.16577148 1123.82836914 C204.10486586 1125.22702473 206.05066135 1126.61566536 208 1128 C208.5873291 1128.41894531 209.1746582 1128.83789062 209.77978516 1129.26953125 C256.12975352 1162.05143422 312.11385373 1175.90758658 367.9375 1180.75 C368.61370392 1180.80925659 369.28990784 1180.86851318 369.98660278 1180.92956543 C393.46691989 1182.93936667 417.01097153 1183.1588153 440.56148756 1183.20060861 C444.56591954 1183.20876828 448.57033382 1183.22241499 452.57475281 1183.23532104 C460.39739362 1183.25970569 468.22003908 1183.27922657 476.04269724 1183.29707379 C485.23609194 1183.31826504 494.42946972 1183.34465777 503.62285013 1183.37124526 C520.11013015 1183.41877385 536.59741851 1183.46202828 553.0847168 1183.50268555 C568.89885238 1183.54168952 584.71297866 1183.58313211 600.52709961 1183.62768555 C601.49427018 1183.63040982 602.46144076 1183.63313409 603.45791953 1183.63594092 C607.35180405 1183.64691471 611.24568856 1183.65789387 615.13957303 1183.66888306 C631.35373078 1183.7145721 647.56789398 1183.75827421 663.782058 1183.8016727 C667.40945429 1183.81138385 671.03685038 1183.82116215 674.66424632 1183.83100247 C712.51864312 1183.93357047 750.3729936 1184.01807204 788.22754152 1184.03005271 C790.58132505 1184.03098764 792.93510759 1184.03247715 795.28889072 1184.03413308 C883.97866279 1184.09225762 977.2506299 1181.3907363 1057 1122 C1057.85722656 1121.33484375 1058.71445313 1120.6696875 1059.59765625 1119.984375 C1064.79407775 1115.90434081 1069.74531211 1111.6089652 1074.625 1107.15625 C1076.76386558 1105.2143852 1078.93419385 1103.32022404 1081.125 1101.4375 C1087.97517134 1095.43845215 1093.9630722 1089.00906741 1099.65625 1081.90234375 C1102.00862941 1078.98931392 1104.43775671 1076.15466504 1106.875 1073.3125 C1139.73243075 1033.84289279 1156.12898651 985.08482093 1164 935 C1164.07460449 934.54455811 1164.07460449 934.54455811 1164.45214844 932.23974609 C1166.48861367 919.62084917 1167.50112702 906.90228928 1168.42694092 894.16210938 C1168.55302248 892.42766223 1168.68197894 890.69341992 1168.8147583 888.95947266 C1172.51851926 839.78592628 1171.15062054 790.10856785 1171.13530007 740.8333124 C1171.13299523 733.21898291 1171.13273877 725.60465566 1171.13381577 717.99032593 C1171.133969 716.89461008 1171.13412223 715.79889423 1171.13428011 714.66997486 C1171.13459992 712.44214622 1171.13492414 710.21431758 1171.1352527 707.98648894 C1171.13808347 687.24648648 1171.13485801 666.50648849 1171.12945233 645.76648676 C1171.12498144 628.06616473 1171.12576728 610.36584926 1171.13037109 592.66552734 C1171.13575097 571.97259794 1171.13781425 551.27967241 1171.13475883 530.5867424 C1171.13444037 528.37087758 1171.134126 526.15501277 1171.13381577 523.93914795 C1171.13366149 522.84965623 1171.13350721 521.7601645 1171.13334826 520.63765788 C1171.13249368 513.05020601 1171.13392275 505.46275666 1171.13629532 497.87530518 C1171.13913153 488.60398665 1171.13827579 479.33267657 1171.13301457 470.06135899 C1171.13042897 465.35365751 1171.12928236 460.64596997 1171.13266373 455.93826866 C1171.1447836 437.4700281 1171.03261282 419.01598685 1170.54269409 400.5534668 C1170.52247437 399.78535349 1170.50225464 399.01724017 1170.4814222 398.2258507 C1169.22189449 351.54441227 1165.68504729 304.62973848 1151 260 C1150.73106934 259.17677246 1150.46213867 258.35354492 1150.18505859 257.50537109 C1140.70889955 229.0189358 1126.00465092 202.20725669 1107 179 C1106.50725586 178.3930127 1106.01451172 177.78602539 1105.50683594 177.16064453 C1099.71214682 170.05075193 1093.61047019 163.36763659 1087 157 C1082 152 1082 152 1080.0859375 150.015625 C1064.40807641 133.94997229 1045.39618732 121.15018092 1026 110 C1025.27828613 109.58153809 1024.55657227 109.16307617 1023.81298828 108.73193359 C988.61386028 88.56306146 948.75215734 78.82869903 908.8125 73.8125 C907.59925049 73.65749023 906.38600098 73.50248047 905.13598633 73.34277344 C881.12848038 70.51382915 856.92472593 69.67704461 832.77214837 69.40686139 C830.66966582 69.38259913 828.56723943 69.35536245 826.4648037 69.32734704 C790.88506338 68.85623213 755.30304879 68.85190773 719.72080457 68.86469864 C713.07819188 68.86702789 706.43558174 68.86725268 699.79296875 68.86618423 C699.31108858 68.86610762 699.31108858 68.86610762 696.8724829 68.86571989 C694.91185713 68.86540002 692.95123136 68.8650758 690.99060559 68.8647473 C672.84942546 68.86193376 654.70825048 68.86511533 636.5670712 68.87054767 C621.12332487 68.87502932 605.67958605 68.87422051 590.23583984 68.86962891 C572.09975595 68.86423903 553.96367648 68.8621902 535.8275919 68.86524117 C533.88354556 68.86555958 531.93949922 68.86587396 529.99545288 68.86618423 C529.04000853 68.86633851 528.08456418 68.86649279 527.10016698 68.86665174 C520.48113436 68.86750245 513.86210468 68.86606622 507.24307251 68.86370468 C317.30997453 68.80203501 317.30997453 68.80203501 199 131 Z " fill="#FFFFFF" transform="translate(0,0)"/>
<path d="M0 0 C0 66.33 0 132.66 0 201 C0.66 201 1.32 201 2 201 C2.24878906 200.45085937 2.49757813 199.90171875 2.75390625 199.3359375 C9.72600802 186.2659787 21.22042047 174.38219722 30.5625 162.9375 C35.70151004 156.63990678 40.69514504 150.25355994 45.62646484 143.79150391 C48.90784179 139.51159917 52.23038123 135.26340105 55.54443359 131.00878906 C58.55229487 127.14698389 61.55679443 123.28273218 64.55078125 119.41015625 C70.84035986 111.28357429 77.18631447 103.21767175 83.73852539 95.30029297 C84.23989014 94.69072754 84.74125488 94.08116211 85.2578125 93.453125 C85.4751001 93.19096191 85.4751001 93.19096191 86.57470703 91.86425781 C88 90 88 90 89.56155396 86.92605591 C92 84 92 84 95.78387451 83.2784729 C97.33602086 83.26111485 98.88875151 83.27696194 100.44042969 83.31884766 C100.86500206 83.31840958 100.86500206 83.31840958 103.01359558 83.31619263 C105.81729482 83.3203693 108.61859441 83.36702297 111.421875 83.4140625 C113.36670627 83.42525441 115.31155446 83.43379462 117.25640869 83.43978882 C122.37293276 83.46268757 127.48843331 83.52162007 132.60455322 83.5880127 C137.82607171 83.64941252 143.04775575 83.67679893 148.26953125 83.70703125 C158.51347031 83.77136208 168.75665001 83.87375448 179 84 C176.84154949 87.6717016 174.54397612 90.91456313 171.8125 94.1875 C168.93026831 97.66653408 166.06281248 101.15207539 163.25 104.6875 C159.75926255 109.06653644 156.22595218 113.40955357 152.6875 117.75 C148.52748529 122.85378282 144.42027454 127.99237753 140.375 133.1875 C136.41367137 138.27071585 132.31594742 143.21172913 128.12451172 148.10620117 C124.81159567 151.99284602 121.63337505 155.96763743 118.5 160 C114.42605858 165.24197422 110.21979362 170.34432765 105.90966797 175.39331055 C102.60888921 179.26426671 99.4020035 183.19496224 96.25 187.1875 C94.41730135 189.47837331 92.56133827 191.74297233 90.6875 194 C90.10081543 194.71051514 89.51413086 195.42103027 88.90966797 196.15307617 C87.74177737 197.56620782 86.56909991 198.97540029 85.39111328 200.38012695 C79.40891454 207.64371446 79.40891454 207.64371446 79 211 C80.57550545 213.67991917 82.10095327 215.81511055 84.0625 218.1875 C85.19193356 219.61965294 86.31947206 221.05330199 87.4453125 222.48828125 C88.03473633 223.23029785 88.62416016 223.97231445 89.23144531 224.73681641 C92.07314725 228.37328479 94.75317005 232.12168909 97.4375 235.875 C98.53105149 237.39467412 99.62480273 238.91420451 100.71875 240.43359375 C101.81252052 241.95571442 102.90627062 243.47784977 104 245 C111.19915697 255.00778692 118.44258218 264.97942645 125.76928711 274.89428711 C130.25816363 280.97544905 134.68990813 287.09595509 139.10546875 293.23046875 C143.03392105 298.68083962 147.00714521 304.09667078 151 309.5 C156.63587345 317.12894377 162.21353833 324.79755926 167.75390625 332.49609375 C170.00227339 335.62023449 172.26124189 338.73635628 174.52734375 341.84765625 C175.10863037 342.64743896 175.68991699 343.44722168 176.28881836 344.27124023 C177.39045545 345.78656099 178.49398564 347.30050821 179.59985352 348.81274414 C179.85150269 349.15946167 179.85150269 349.15946167 181.125 350.9140625 C181.56070312 351.5117041 181.99640625 352.1093457 182.4453125 352.72509766 C183.8868098 354.83437402 185.24667184 356.97391953 186.59716797 359.1421814 C187.04720184 359.86415396 187.49723572 360.58612652 187.96090698 361.32997704 C188.13235733 361.60553082 188.13235733 361.60553082 189 363 C177.21303085 363.37194708 165.42747263 363.65560696 153.63581467 363.82899475 C148.15906225 363.91225091 142.686344 364.02498759 137.21191406 364.20703125 C131.92063614 364.38186798 126.63321622 364.47673436 121.33927155 364.51803589 C119.32782481 364.54743284 117.31657237 364.60485204 115.30678558 364.69168091 C100.03894377 365.32460516 100.03894377 365.32460516 95.01304626 361.48010254 C91.42554516 357.76738531 88.75076125 353.59750355 86.22458553 349.11593628 C84.21427802 345.64236707 81.87585384 342.40094441 79.5625 339.125 C78.65379776 337.79245026 77.74593742 336.45932486 76.83984375 335.125 C72.24856247 328.41404773 67.4375422 321.85902019 62.65722656 315.28222656 C59.93043183 311.52705904 57.21571602 307.76318308 54.5 304 C51.18223939 299.40439887 47.86298055 294.80990014 44.5390625 290.21875 C43.40099974 288.64586366 42.2629782 287.07294751 41.125 285.5 C40.58125732 284.74920166 40.03751465 283.99840332 39.47729492 283.22485352 C36.00103128 278.41556636 32.59041811 273.57061923 29.26953125 268.65234375 C28 267 28 267 26 266 C25.88720703 266.26748047 25.88720703 266.26748047 25.31640625 267.62109375 C23.57351991 270.77070142 21.2878192 273.3598734 18.9375 276.0625 C17.94588556 277.21812484 16.95501221 278.37438597 15.96484375 279.53125 C15.46839355 280.11003906 14.97194336 280.68882812 14.46044922 281.28515625 C10.90197709 285.46347592 7.43186067 289.71732387 4 294 C3.47524582 294.57582825 2.95049164 295.15165649 2.40983582 295.74493408 C0.52895162 298.75345308 0.60189649 300.88428237 0.56762695 304.42089844 C0.55765686 305.08049561 0.55765686 305.08049561 0.50720215 308.41845703 C0.50050562 309.81542787 0.49419544 311.21240063 0.48828125 312.609375 C0.47164429 313.88312988 0.45500732 315.15688477 0.43786621 316.46923828 C0.38001303 321.22932405 0.3478013 325.98969356 0.3125 330.75 C0.209375 341.3925 0.10625 352.035 0 363 C-26.07 363 -52.14 363 -79 363 C-79 250.14 -79 137.28 -79 21 C-69.43 16.71 -59.86 12.42 -50 8 C-47.091875 6.411875 -44.18375 4.82375 -41.1875 3.1875 C-32 0 -32 0 0 0 Z " fill="#FFFFFF" transform="translate(882,472)"/>
<path d="M0 0 C0 24.75 0 49.5 0 75 C-9.24 75 -18.48 75 -28 75 C-48.89587575 77.10126125 -68.84412511 81.4023814 -83.86328125 97.23046875 C-96.31740067 113.37301111 -98.12076693 132.59944297 -98.20532227 152.33227539 C-98.21491852 153.76215893 -98.22492958 155.19203974 -98.23532104 156.62191772 C-98.26218705 160.47868218 -98.28329483 164.33545864 -98.30332303 168.19226384 C-98.32529649 172.23215587 -98.35262923 176.27201167 -98.37937927 180.31187439 C-98.42915341 187.95077892 -98.47414847 195.58970372 -98.51740164 203.22864765 C-98.57617276 213.55903711 -98.64237687 223.88937881 -98.70815182 234.21972561 C-98.81148729 250.47978482 -98.90493527 266.73988546 -99 283 C-125.07 283 -151.14 283 -178 283 C-178 190.93 -178 98.86 -178 4 C-151.93 4 -125.86 4 -99 4 C-99 18.19 -99 32.38 -99 47 C-96.03417693 44.03417693 -94.05317994 41.77198143 -91.8125 38.375 C-76.48992377 16.22070188 -55.89161426 4.82331952 -30 -0.3125 C-20.05973409 -1.76985572 -9.90620714 -1.41517245 0 0 Z " fill="#FFFFFF" transform="translate(429,552)"/>
<path d="M0 0 C26.4 0 52.8 0 80 0 C79.97679687 11.49714844 79.95359375 22.99429688 79.9296875 34.83984375 C79.91946245 42.1451832 79.90975102 49.45051742 79.90234375 56.75585938 C79.89050476 68.33847843 79.8766334 79.92106826 79.84912109 91.50366211 C79.82908827 99.94149393 79.81626026 108.3793019 79.81182301 116.81715685 C79.80923226 121.27841782 79.80321112 125.73961058 79.78853989 130.20084953 C79.77479902 134.41396986 79.77081008 138.62699496 79.77378464 142.84013557 C79.77324175 144.37299241 79.76936383 145.90585298 79.76158905 147.43869019 C79.72338943 155.37001626 79.98212101 163.17219451 80.88137817 171.05787659 C80.95792189 171.7380059 81.0344656 172.4181352 81.11332881 173.11887449 C82.76058227 186.2106068 87.41539965 198.05177879 97.28125 207.08984375 C110.39133892 217.15651917 126.98160656 218.05489092 142.81005859 216.03344727 C157.09073389 213.9364103 171.12809445 207.84127802 180 196 C187.78073406 183.30736612 192.07697746 169.96800771 192.15821838 155.0080719 C192.16315636 154.34055544 192.16809434 153.67303899 192.17318195 152.98529476 C192.18843213 150.76827498 192.19688334 148.55128386 192.20532227 146.33422852 C192.21491063 144.73715466 192.22492126 143.1400833 192.23532104 141.54301453 C192.26227237 137.2212688 192.28333462 132.89951225 192.30332303 128.57772946 C192.32524311 124.05602647 192.35260225 119.53435643 192.37937927 115.01268005 C192.42922492 106.45643354 192.47419379 97.90016865 192.51740164 89.34388632 C192.57609319 77.77740121 192.64233624 66.21095949 192.70815182 54.64451313 C192.81159931 36.42970469 192.90497299 18.21485882 193 0 C219.07 0 245.14 0 272 0 C272 92.07 272 184.14 272 279 C245.93 279 219.86 279 193 279 C193 268.11 193 257.22 193 246 C192.34 246 191.68 246 191 246 C190.74992188 246.56332031 190.49984375 247.12664062 190.2421875 247.70703125 C181.50127473 263.84198659 161.4846496 274.77181544 144.375 279.875 C132.18652578 283.49476472 119.91366714 284.38082678 107.25 284.3125 C106.54656464 284.31067719 105.84312927 284.30885437 105.11837769 284.30697632 C94.45204623 284.26049366 84.37075986 283.68790943 74 281 C73.32050293 280.83902832 72.64100586 280.67805664 71.94091797 280.51220703 C51.38108596 275.61117998 31.80494981 264.92183098 19.80078125 247.03125 C-1.44753771 211.26401462 -0.16595298 171.56426838 -0.10139394 131.24996281 C-0.09506903 126.62292188 -0.09454947 121.99588004 -0.09336853 117.36883545 C-0.0902818 108.63945945 -0.0821049 99.91009623 -0.07201904 91.18072581 C-0.05866487 79.36169345 -0.05333648 67.54265749 -0.04751682 55.72361946 C-0.0381627 37.1490701 -0.01822622 18.57454769 0 0 Z " fill="#FFFFFF" transform="translate(470,556)"/>
<path d="M0 0 C2.61115584 1.88623352 4.42780554 4.20251437 6.375 6.75 C6.92317383 7.42450195 7.47134766 8.09900391 8.03613281 8.79394531 C9.16257421 10.18068512 10.27981926 11.57494623 11.38769531 12.9765625 C13.32930251 15.41327365 15.3430366 17.78011338 17.37207031 20.14404297 C22.68859047 26.34036997 27.84901556 32.66605891 33 39 C40.02563825 47.60607484 47.08670112 56.18271268 54.15185547 64.75634766 C55.98890239 66.98652747 57.82472564 69.2177086 59.66015625 71.44921875 C64.88003724 77.79425056 70.10398288 84.13484651 75.375 90.4375 C78.96892736 94.74083228 82.50400768 99.08331037 85.97265625 103.48828125 C87.44218966 105.30891705 88.9562371 107.0939113 90.49609375 108.85546875 C90.90923828 109.33306641 90.90923828 109.33306641 93 111.75 C93.763125 112.61109375 94.52625 113.4721875 95.3125 114.359375 C97.34614464 117.54165226 97.44232912 119.28850279 97 123 C95.5625 125.875 95.5625 125.875 93 128 C86.62337823 129.0695345 81.45906346 127.42139941 75.77734375 124.6953125 C75.01006454 124.3442746 74.24278534 123.99323669 73.45225525 123.63156128 C70.93991585 122.47807959 68.4391052 121.30155486 65.9375 120.125 C64.18133587 119.31459527 62.42432168 118.50603035 60.66650391 117.69921875 C56.99058221 116.01016735 53.31850286 114.31314093 49.64892578 112.61035156 C41.29788224 108.74227512 32.90651892 104.96368735 24.51321411 101.18841553 C21.91445976 100.01777513 19.31822831 98.84168956 16.72241211 97.66455078 C15.1249004 96.94289403 13.5273287 96.22137005 11.9296875 95.5 C11.57116447 95.33684799 11.57116447 95.33684799 9.75682068 94.51119995 C0.11598312 90.1723576 -6.45854577 88.84599428 -16.54467773 92.61279297 C-23.07561078 95.23476439 -29.46756016 98.16749263 -35.87155151 101.08306885 C-38.48494772 102.27157807 -41.10148352 103.45290632 -43.71899414 104.63232422 C-51.75644695 108.25582768 -59.78590457 111.89529771 -67.79356384 115.58422852 C-71.06038263 117.08599034 -74.33307205 118.57464486 -77.60696411 120.06091309 C-79.14699702 120.76406847 -80.68424454 121.47336023 -82.21847534 122.18908691 C-97.40889827 129.27189191 -97.40889827 129.27189191 -105 128 C-107.3794038 126.07026642 -107.9609012 125.12846748 -108.875 122.125 C-109.12215902 115.94602456 -103.94301653 111.30251438 -100.1875 106.75 C-99.61854004 106.05471191 -99.04958008 105.35942383 -98.46337891 104.64306641 C-95.45846704 100.97495629 -92.43858236 97.3192449 -89.41796875 93.6640625 C-88.23692032 92.23442361 -87.05593053 90.80473628 -85.875 89.375 C-85.28823486 88.66529053 -84.70146973 87.95558105 -84.09692383 87.22436523 C-80.45395725 82.80522 -76.88777133 78.33557602 -73.375 73.8125 C-69.1823271 68.4182872 -64.81188587 63.206214 -60.34155273 58.04052734 C-56.57212648 53.68341132 -52.90931305 49.24998587 -49.27734375 44.77734375 C-46.25580056 41.09240857 -43.16964049 37.46431679 -40.08349609 33.83349609 C-37.20442157 30.44026525 -34.36788508 27.0172328 -31.5625 23.5625 C-27.99273121 19.18083434 -24.35912348 14.85879586 -20.6875 10.5625 C-20.18355713 9.97090088 -19.67961426 9.37930176 -19.16040039 8.76977539 C-9.32519362 -2.6955943 -9.32519362 -2.6955943 0 0 Z " fill="#2FD3A0" transform="translate(875,340)"/>
</svg>
