<?xml version="1.0" encoding="UTF-8"?>
<svg xmlns="http://www.w3.org/2000/svg" width="2172" height="724" viewBox="0 0 2172 724">
<path d="M0 0 C15.84 0 31.68 0 48 0 C48.33 41.58 48.66 83.16 49 126 C55.93 119.07 62.86 112.14 70 105 C72.64 102.69 75.28 100.38 78 98 C80.02390277 96.01657529 82.02468747 94.02957935 84 92 C87.81429523 88.08091644 91.76649883 84.42040534 95.90332031 80.84277344 C100.22449378 77.04489066 104.35911323 73.04210466 108.52734375 69.078125 C109.20667969 68.43617188 109.88601563 67.79421875 110.5859375 67.1328125 C110.89039795 66.84349854 110.89039795 66.84349854 112.43115234 65.37939453 C115.43831481 62.73537524 117.63866888 62.87800578 121.55126953 62.88647461 C122.71232208 62.88655014 123.87337463 62.88662567 125.0696106 62.88670349 C126.32796722 62.89186478 127.58632385 62.89702606 128.8828125 62.90234375 C130.16735321 62.9037587 131.45189392 62.90517365 132.77536011 62.90663147 C136.19156842 62.91045089 139.60773426 62.92027627 143.02392578 62.93133545 C146.50943426 62.94156193 149.9949496 62.94613174 153.48046875 62.95117188 C160.32032995 62.96189904 167.16016294 62.97896858 174 63 C169.98082362 68.02397047 165.5329694 72.35461814 160.76982594 76.65786839 C155.20338429 81.69378185 149.84537359 86.93464639 144.51171875 92.21484375 C144.2573319 92.46656877 144.2573319 92.46656877 142.96998024 93.74044991 C140.29665699 96.38744405 137.62674447 99.03782831 134.95922852 101.69067383 C132.76161879 103.87477905 130.55688275 106.05131034 128.34594727 108.22192383 C125.64971394 110.86904635 122.96577133 113.52804513 120.29041481 116.19626045 C119.27510846 117.20485026 118.25554891 118.20917733 117.23169518 119.20908928 C115.81305531 120.59632323 114.41130881 122.00077054 113.01049805 123.40600586 C112.20952194 124.19889511 111.40854584 124.99178436 110.58329773 125.80870056 C109 128 109 128 109.17559814 130.17686462 C110.11403828 132.2521916 111.20064791 133.78900054 112.66015625 135.5390625 C113.20236816 136.19664551 113.74458008 136.85422852 114.30322266 137.53173828 C114.88378418 138.22251465 115.4643457 138.91329102 116.0625 139.625 C117.25934915 141.07272278 118.45596457 142.52063882 119.65234375 143.96875 C120.23226074 144.66613281 120.81217773 145.36351562 121.40966797 146.08203125 C126.95717277 152.77242083 132.29134535 159.6375629 137.65283203 166.47705078 C141.07629052 170.83876442 144.53081687 175.17459533 148 179.5 C153.24803533 186.04504615 158.4419542 192.63075477 163.61474609 199.23535156 C165.05819561 201.07413428 166.5069871 202.90860168 167.95703125 204.7421875 C168.44550537 205.36085693 168.93397949 205.97952637 169.43725586 206.61694336 C170.36001601 207.78539683 171.28390889 208.95295715 172.20922852 210.11938477 C174.42904089 212.93396324 176.57975617 215.78135524 178.65673828 218.70336914 C179.09817169 219.32369522 179.5396051 219.9440213 179.99441528 220.58314514 C180.16033676 220.81692619 180.16033676 220.81692619 181 222 C173.38578642 222.32648661 165.7723087 222.5741588 158.15266037 222.72537041 C154.61258106 222.79801441 151.07733483 222.89620828 147.54003906 223.05615234 C122.80441965 224.14547388 122.80441965 224.14547388 116.59594727 219.06738281 C113.92576632 216.2691834 111.92310742 213.2501026 110.07789612 209.86236572 C108.21417421 206.64226711 105.79481047 203.86605717 103.4375 201 C102.52635723 199.83613543 101.61836597 198.66979037 100.71484375 197.5 C97.54333845 193.40685092 94.34081785 189.33838969 91.13793945 185.26977539 C88.76153124 182.24877337 86.39376912 179.2215513 84.0390625 176.18359375 C83.79510742 175.8700293 83.79510742 175.8700293 82.56054688 174.28320312 C81.63457277 173.09266499 80.71119594 171.9001 79.79101562 170.70507812 C77.06067158 167.20175996 74.19207744 164.07194549 71 161 C68.68729456 163.07222501 66.38599768 165.15113266 64.11230469 167.26635742 C62.08177939 169.11201054 60.14657058 170.58398123 57.85742188 172.15039062 C52.60626131 176.0291259 48.97395488 179.1489556 47.93847656 185.82495117 C47.46072922 191.46517254 47.59577303 197.02967907 47.75 202.6875 C47.8325 209.390625 47.915 216.09375 48 223 C32.16 223 16.32 223 0 223 C0 149.41 0 75.82 0 0 Z " fill="#0B2138" transform="translate(506,249)"/>
<path d="M0 0 C15.18744036 0.17066219 15.18744036 0.17066219 21.06015015 4.14807129 C25.79725699 9.61766762 28.26437302 16.11869656 30.72616577 22.85070801 C32.69709834 27.82467981 35.52074483 32.11976829 38.44296265 36.57922363 C39.5232004 38.30495536 40.59999675 40.0328458 41.6734314 41.76281738 C43.36686188 44.46698122 45.06232467 47.16986382 46.75790405 49.87268066 C59.23627608 69.76421532 71.46731585 89.79331622 83.50546265 109.95422363 C88.17400739 117.77235318 93.0129004 125.46430545 98.00546265 133.07922363 C102.57572069 126.45122062 106.71522192 119.60954481 110.78070068 112.66278076 C115.94103465 103.85184719 121.15752609 95.10465328 126.7515564 86.55969238 C131.4188835 79.40852074 135.8296138 72.08938205 140.31161499 64.82141113 C141.97186583 62.13361387 143.63792863 59.44952143 145.3062439 56.76672363 C150.10760423 49.04207877 154.90404287 41.31551631 159.56698608 33.50622559 C160.56524108 31.85053167 161.58155463 30.20558853 162.61581421 28.57214355 C165.30923812 24.26000109 167.40305737 20.19802613 169.05233765 15.38000488 C171.33284467 9.4424593 173.31042418 4.37898725 179.00546265 1.07922363 C191.3906972 -2.01829497 205.44790166 -0.09657796 218.00546265 1.07922363 C219.61398684 4.29627201 219.11723378 7.7980411 219.0877533 11.33010864 C219.08452417 12.19344704 219.08129504 13.05678544 219.07796806 13.94628561 C219.0658482 16.85603931 219.04648473 19.76570069 219.02719116 22.67541504 C219.01705311 24.75449927 219.00735893 26.83358571 218.99807739 28.91267395 C218.97154893 34.57149621 218.93877917 40.23026745 218.90492749 45.88905001 C218.87063135 51.79742431 218.84202153 57.70582601 218.81282043 63.61422729 C218.75662152 74.80917187 218.69527451 86.00408213 218.63209909 97.19898927 C218.56044088 109.94121565 218.49448955 122.68346954 218.42902863 135.42572904 C218.29421091 161.64359753 218.15143711 187.86141472 218.00546265 214.07922363 C202.82546265 214.07922363 187.64546265 214.07922363 172.00546265 214.07922363 C172.00546265 174.47922363 172.00546265 134.87922363 172.00546265 94.07922363 C171.34546265 94.07922363 170.68546265 94.07922363 170.00546265 94.07922363 C169.78632202 94.72762207 169.5671814 95.37602051 169.34140015 96.04406738 C167.51626171 100.19065383 165.08750239 103.84405648 162.63046265 107.64172363 C158.37798192 114.2899501 154.22470833 120.98240512 150.19296265 127.76672363 C147.02805715 133.08399345 143.83457879 138.37876709 140.5484314 143.62219238 C139.95167603 144.5752124 139.35492065 145.52823242 138.74008179 146.51013184 C137.4950045 148.48129988 136.23752728 150.44468719 134.96810913 152.40026855 C131.67400611 157.53334253 128.65177509 162.66667054 126.01312256 168.16108704 C115.70712083 189.6104241 115.70712083 189.6104241 107.79452515 193.76525879 C99.64492936 196.18033883 91.66062143 195.91749986 84.00546265 192.07922363 C77.90125539 186.73757273 74.73929127 179.40654229 71.45126343 172.13977051 C69.34240088 167.67561974 66.71756886 163.63210206 64.00546265 159.51672363 C63.02652777 157.97916901 62.04998934 156.44008617 61.07577515 154.89953613 C60.05266658 153.29255583 59.02921411 151.68579445 58.00546265 150.07922363 C56.83617841 148.24329467 55.66690809 146.40735684 54.49765015 144.57141113 C53.90170044 143.63571289 53.30575073 142.70001465 52.69174194 141.73596191 C43.14424641 126.74360136 43.14424641 126.74360136 38.69296265 119.64172363 C37.99557983 118.5292627 37.29819702 117.41680176 36.5796814 116.27062988 C32.67005083 109.90487329 28.84899279 103.4851072 25.00546265 97.07922363 C24.67546265 135.68922363 24.34546265 174.29922363 24.00546265 214.07922363 C8.49546265 214.07922363 -7.01453735 214.07922363 -22.99453735 214.07922363 C-23.01708141 186.45512658 -23.03551479 158.83103693 -23.04634953 131.20693302 C-23.05151323 118.38156366 -23.05855735 105.5562004 -23.06997681 92.73083496 C-23.07992136 81.55665614 -23.08639023 70.38248174 -23.08862585 59.20829862 C-23.08993334 53.28768996 -23.09302164 47.36709395 -23.10026741 41.44648933 C-23.10702403 35.88080059 -23.10915505 30.31512979 -23.10764503 24.74943733 C-23.10792153 22.70029605 -23.10992876 20.6511542 -23.11374283 18.60201645 C-23.11867448 15.81726114 -23.11753761 13.0325747 -23.11479187 10.24781799 C-23.11770471 9.4258498 -23.12061755 8.6038816 -23.12361866 7.75700527 C-23.09439167 -3.11251168 -8.81749804 0.05253247 0 0 Z " fill="#0B2138" transform="translate(730.9945373535156,256.9207763671875)"/>
<path d="M0 0 C0.7439502 0.07105957 1.48790039 0.14211914 2.25439453 0.21533203 C27.95940587 2.82898069 52.47893997 12.07352136 69.3203125 32.6015625 C83.31195032 52.58031976 88.94054712 74.45476521 85.61767578 98.80126953 C81.37066661 121.19883337 69.54462642 138.90263301 51.078125 152.0859375 C27.42169533 167.75682111 -1.86861463 171.42321238 -29.33935547 165.90478516 C-52.5557716 160.71329438 -73.01229869 148.03641544 -85.89697266 127.82910156 C-97.35786103 108.8240162 -99.8929165 85.30328561 -95.03515625 63.87890625 C-89.93700186 43.7546126 -78.24563293 27.45654882 -61 16 C-60.61005859 15.73251953 -60.61005859 15.73251953 -58.63671875 14.37890625 C-42.29403989 3.80423169 -19.36933199 -1.92033769 0 0 Z M-36 52 C-36.56074219 52.51046875 -37.12148437 53.0209375 -37.69921875 53.546875 C-46.82700265 62.83560219 -48.37036219 76.65594969 -48.28515625 89.03515625 C-47.48887818 100.10669384 -43.05713351 111.1914156 -35 119 C-25.24909694 127.19730006 -13.4681828 129.93926131 -0.9375 129.3828125 C12.65981711 128.06085111 21.50465371 122.53277505 30.23828125 112.375 C38.75797257 100.88947378 38.54658512 85.42712649 36.69970703 71.78125 C34.45645447 60.62499777 27.96333934 52.65896476 19 46 C2.00225392 35.1954921 -21.69703184 38.14870452 -36 52 Z " fill="#0B2138" transform="translate(1072,306)"/>
<path d="M0 0 C19.82208166 -0.60480761 39.82135191 4.57802795 54.74609375 18.1484375 C71.51432986 35.49599847 71.04267301 57.87787185 70.88671875 80.37890625 C70.88111152 82.77742241 70.87684676 85.17594204 70.87385559 87.57446289 C70.86249557 93.83465347 70.83310604 100.09462951 70.79974365 106.35473633 C70.76885043 112.76380513 70.75530941 119.17290918 70.74023438 125.58203125 C70.70822662 138.11858296 70.65713935 150.65497664 70.59375 163.19140625 C67.43892109 163.88723679 64.50764468 164.31720364 61.27832031 164.32080078 C60.46107483 164.32395294 59.64382935 164.3271051 58.80181885 164.33035278 C57.93393738 164.32832855 57.06605591 164.32630432 56.171875 164.32421875 C55.27128357 164.32517548 54.37069214 164.3261322 53.44281006 164.32711792 C51.54667084 164.32779654 49.65052925 164.32596449 47.75439453 164.32177734 C44.84011694 164.31639955 41.92599172 164.32174589 39.01171875 164.328125 C37.16927049 164.32746465 35.32682233 164.32618439 33.484375 164.32421875 C33.0463858 164.32523087 33.0463858 164.32523087 30.82989502 164.33035278 C24.70871685 164.3063731 24.70871685 164.3063731 23.59375 163.19140625 C23.48970661 160.26684994 23.45014037 157.36513579 23.4519043 154.43994141 C23.44842987 153.52112183 23.44495544 152.60230225 23.44137573 151.65563965 C23.43400183 149.65146113 23.4286652 147.64727436 23.42508507 145.64308548 C23.41793226 142.46424979 23.40227109 139.28556961 23.38374329 136.10678101 C23.33124298 127.06518796 23.28336569 118.0236755 23.26782227 108.98193359 C23.25769932 103.45630686 23.22825609 97.93106447 23.18650246 92.40559006 C23.17423892 90.30464979 23.16906265 88.20365508 23.17130089 86.10268021 C23.19167935 60.71054232 23.19167935 60.71054232 14.59375 51.19140625 C14.59375 50.53140625 14.59375 49.87140625 14.59375 49.19140625 C11.8051639 47.78130489 8.99970342 46.42496907 6.15625 45.12890625 C5.41503906 44.78730469 4.67382812 44.44570313 3.91015625 44.09375 C-6.86531066 39.8962241 -19.04385817 41.74449903 -29.40625 46.19140625 C-37.84141467 51.04264796 -43.17591959 58.08630827 -46.40625 67.19140625 C-47.6012346 71.82017518 -47.57180874 76.34928842 -47.59570312 81.09667969 C-47.60399643 81.98337845 -47.61228973 82.87007721 -47.62083435 83.78364563 C-47.63819256 85.703186 -47.6533708 87.62274706 -47.66661072 89.54232025 C-47.68767439 92.57589696 -47.71469078 95.60936884 -47.74328613 98.6428833 C-47.81304026 106.17188286 -47.87264498 113.7009564 -47.93231201 121.2300415 C-47.98315232 127.60096059 -48.03792588 133.97182128 -48.09812927 140.342659 C-48.1247847 143.33907867 -48.14554449 146.33550361 -48.1661377 149.33197021 C-48.18273092 151.15588648 -48.19960189 152.97980025 -48.21679688 154.80371094 C-48.22098129 155.64317764 -48.22516571 156.48264435 -48.22947693 157.34754944 C-48.29239727 163.07755352 -48.29239727 163.07755352 -49.40625 164.19140625 C-50.87979348 164.28444643 -52.35775591 164.3088689 -53.83422852 164.30493164 C-54.77512833 164.30485611 -55.71602814 164.30478058 -56.68544006 164.30470276 C-57.70834641 164.29954147 -58.73125275 164.29438019 -59.78515625 164.2890625 C-60.30605583 164.28835503 -60.30605583 164.28835503 -62.94212341 164.28477478 C-66.28436094 164.27915705 -69.62653257 164.26660155 -72.96875 164.25390625 C-75.22851466 164.24889353 -77.48828037 164.24433023 -79.74804688 164.24023438 C-85.30080391 164.22918186 -90.85352225 164.21242649 -96.40625 164.19140625 C-97.81161395 161.38067835 -97.52898099 159.05976797 -97.52650452 155.91464233 C-97.52735894 155.26364866 -97.52821337 154.61265498 -97.52909368 153.94193423 C-97.53074667 151.75081267 -97.52523008 149.55976691 -97.51977539 147.36865234 C-97.51949345 145.80187481 -97.51965138 144.23509715 -97.5202179 142.6683197 C-97.52050562 138.40616587 -97.51461297 134.14404 -97.50764394 129.88189268 C-97.5014062 125.43091694 -97.50080627 120.97994062 -97.49961853 116.52896118 C-97.49650646 108.09647977 -97.48829473 99.66401127 -97.47826904 91.23153555 C-97.46710406 81.63312459 -97.46159648 72.03471302 -97.45657361 62.43629718 C-97.44611203 42.68799139 -97.42776808 22.9397033 -97.40625 3.19140625 C-81.56625 3.19140625 -65.72625 3.19140625 -49.40625 3.19140625 C-49.40625 9.13140625 -49.40625 15.07140625 -49.40625 21.19140625 C-48.74625 21.19140625 -48.08625 21.19140625 -47.40625 21.19140625 C-47.24125 20.69640625 -47.24125 20.69640625 -46.40625 18.19140625 C-33.21643464 6.74906189 -17.31512792 0.97298311 0 0 Z " fill="#0B2138" transform="translate(1281.40625,305.80859375)"/>
<path d="M0 0 C15.03283685 13.13374177 25.4172472 30.95179792 27 51 C27 59.58 27 68.16 27 77 C6.705 77.165 6.705 77.165 -96 78 C-93.01661729 89.93353083 -87.88379528 96.87483294 -77.53515625 103.578125 C-63.7765947 111.29479126 -47.09418123 112.01765564 -32.03515625 108.04296875 C-25.24997492 105.71138134 -19.36049128 102.39930733 -14.0625 97.5625 C-11 95 -11 95 -9.00805664 95.12109375 C-6.54468368 96.19928739 -5.49104147 97.40854657 -3.80859375 99.5 C0.183037 104.27503491 4.51460352 108.62637315 8.9375 113 C9.32711914 113.38736328 9.32711914 113.38736328 11.29882812 115.34765625 C13.1969242 117.23410757 15.09733149 119.11816245 17 121 C11.99626053 131.72429893 -1.53170245 137.70170782 -12 142 C-16.61649532 143.65154875 -21.21689789 144.930836 -26 146 C-26.47566406 146.11214844 -26.47566406 146.11214844 -28.8828125 146.6796875 C-56.42775089 152.04176884 -87.53152838 147.62946861 -111.1328125 132.10546875 C-128.66934264 119.22782604 -140.76829013 101.76773009 -144.3125 80.0625 C-147.22936371 55.14415003 -143.03041895 32.31879799 -128 12 C-112.87878854 -6.7200289 -89.72259227 -17.17717686 -66.06298828 -19.84814453 C-42.73566517 -21.56525636 -18.36792466 -14.51576269 0 0 Z M-89.8125 31.8125 C-94.84275267 37.93069104 -97 43.05503971 -97 51 C-70.6 51 -44.2 51 -17 51 C-18.72857778 38.89995552 -24.77745323 30.58670869 -34.5 23.0625 C-41.29166121 18.75630221 -48.43973668 17.46020379 -56.375 17.5625 C-57.20499512 17.57007324 -58.03499023 17.57764648 -58.89013672 17.58544922 C-71.13842448 17.91312261 -81.42959539 22.86005622 -89.8125 31.8125 Z " fill="#0B2138" transform="translate(1525,326)"/>
<path d="M0 0 C16.17 0 32.34 0 49 0 C56.60969282 17.070392 63.86812269 34.24199587 70.94129944 51.53883362 C73.63914925 58.13136731 76.35850976 64.71491066 79.08203125 71.296875 C79.51542816 72.34450516 79.94882507 73.39213531 80.39535522 74.47151184 C82.13113724 78.66691405 83.86715145 82.86221931 85.60449219 87.05697632 C86.81667442 89.98421945 88.02759581 92.9119813 89.23828125 95.83984375 C89.60427933 96.72263 89.9702774 97.60541626 90.34736633 98.51495361 C90.68302109 99.32720398 91.01867584 100.13945435 91.36450195 100.97631836 C91.65758743 101.68429062 91.95067291 102.39226288 92.25263977 103.12168884 C92.89121109 104.72658509 93.45378893 106.3613668 94 108 C94.66 108 95.32 108 96 108 C96.11593506 107.29883057 96.23187012 106.59766113 96.35131836 105.87524414 C97.06195346 102.72539485 98.13006072 99.97414538 99.37890625 96.99609375 C99.8800293 95.79847412 100.38115234 94.60085449 100.89746094 93.36694336 C101.45216256 92.056997 102.00718508 90.74718649 102.5625 89.4375 C102.8450061 88.76671417 103.12751221 88.09592834 103.4185791 87.40481567 C108.54326565 75.23716898 113.88853367 63.17110084 119.28710938 51.12295532 C123.71886342 41.23074105 128.06387294 31.32402969 131.99902344 21.22045898 C134.91434701 13.84075324 138.39388467 7.21223066 142 0 C157.18 0 172.36 0 188 0 C182.38146754 14.60818438 182.38146754 14.60818438 179.93359375 20.08984375 C179.66259354 20.69993286 179.39159332 21.31002197 179.11238098 21.93859863 C178.52883269 23.25187746 177.94394381 24.56456134 177.35778809 25.87667847 C175.70354465 29.5810625 174.06107466 33.29066553 172.41796875 37 C172.0650174 37.79635361 171.71206604 38.59270721 171.34841919 39.41319275 C167.35731198 48.43065248 163.43585534 57.47822185 159.51275635 66.52542114 C151.63895576 84.68341993 143.69003701 102.80636535 135.66870117 120.8996582 C131.61802641 130.04160946 127.60695709 139.19805716 123.66625977 148.38793945 C119.14269747 158.93644009 114.51678967 169.42888985 109.625 179.8125 C109.16101807 180.81490723 108.69703613 181.81731445 108.21899414 182.85009766 C105.16585047 189.22893844 101.57648688 194.61430703 97 200 C96.28714844 200.84691406 95.57429688 201.69382812 94.83984375 202.56640625 C82.68082444 215.32463801 65.82281344 221.81368889 48.29272461 222.29296875 C30.84319179 222.45485703 15.55789948 217.70526632 1 208 C3.21874516 202.18431071 6.11729199 196.72021554 8.9675293 191.19702148 C9.93807019 189.3113922 10.89773417 187.42046781 11.85742188 185.52929688 C12.47589744 184.32778243 13.09501596 183.12659868 13.71484375 181.92578125 C14.27292725 180.83692627 14.83101074 179.74807129 15.40600586 178.6262207 C17 176 17 176 20 174 C20.4434375 174.4434375 20.4434375 174.4434375 22.6875 176.6875 C28.47501053 181.639821 36.57508499 185.16162699 44.25 185.5 C52.1327119 184.44897175 58.81483022 182.3032988 64 176 C66.47314357 172.16399647 68.7237823 168.39522509 70 164 C68.68585435 159.1274842 66.55740982 154.59665714 64.47265625 150.015625 C63.76151996 148.43841142 63.05042121 146.86118093 62.33935547 145.28393555 C61.96792419 144.46291351 61.59649292 143.64189148 61.21380615 142.79598999 C55.79646259 130.81611612 50.42864364 118.82601968 45.375 106.6875 C41.03519795 96.28490992 36.41805878 86.026408 31.7281189 75.77871704 C25.47136407 62.10361662 19.40637454 48.35092935 13.4197998 34.55566406 C11.61171005 30.39298451 9.78073445 26.24102751 7.9375 22.09375 C7.46997314 21.03623535 7.00244629 19.9787207 6.52075195 18.88916016 C5.66256268 16.94900179 4.79950074 15.01098766 3.93041992 13.07568359 C3.55506104 12.22312988 3.17970215 11.37057617 2.79296875 10.4921875 C2.4683667 9.76370605 2.14376465 9.03522461 1.80932617 8.28466797 C1 6 1 6 0 0 Z " fill="#0B2138" transform="translate(1551,310)"/>
<path d="M0 0 C0 14.52 0 29.04 0 44 C-7.26 44 -14.52 44 -22 44 C-32.36922579 45.64744709 -41.60930082 49.41583208 -48.4375 57.75 C-57.2806835 70.97654823 -57.30880875 86.84790213 -57.4140625 102.13671875 C-57.4328072 103.86978544 -57.45238298 105.60284332 -57.4727478 107.33589172 C-57.5237266 111.86159025 -57.56353392 116.38731825 -57.60089111 120.91314697 C-57.64114747 125.54568569 -57.69214029 130.17810542 -57.7421875 134.81054688 C-57.83854032 143.87361392 -57.92307304 152.93674869 -58 162 C-64.16530032 162.77450816 -70.16497647 163.14845743 -76.375 163.1328125 C-76.80026978 163.13329086 -76.80026978 163.13329086 -78.95239258 163.13571167 C-80.73046951 163.13638661 -82.50854901 163.1345807 -84.28662109 163.13037109 C-87.02056281 163.1249593 -89.75434421 163.13036644 -92.48828125 163.13671875 C-94.22135453 163.13605889 -95.95442771 163.13477964 -97.6875 163.1328125 C-98.50718262 163.13483673 -99.32686523 163.13686096 -100.17138672 163.13894653 C-105.88501334 163.11498666 -105.88501334 163.11498666 -107 162 C-107.09680041 159.94972261 -107.12186943 157.89605121 -107.12025452 155.8434906 C-107.12110894 155.19335135 -107.12196337 154.5432121 -107.12284368 153.87337166 C-107.12450026 151.6791442 -107.11897425 149.48499198 -107.11352539 147.29077148 C-107.11324353 145.72414146 -107.11340123 144.1575113 -107.1139679 142.59088135 C-107.11425592 138.32453623 -107.10835843 134.05821898 -107.10139394 129.79188037 C-107.09516118 125.33822949 -107.09455666 120.88457803 -107.09336853 116.43092346 C-107.09025498 107.99132557 -107.08204128 99.55174056 -107.07201904 91.11214834 C-107.06085863 81.50650556 -107.05534764 71.90086218 -107.05032361 62.29521453 C-107.03985868 42.53013422 -107.02151291 22.76507159 -107 3 C-91.16 3 -75.32 3 -59 3 C-58.835 6.135 -58.835 6.135 -58 22 C-56.02 19.69 -54.04 17.38 -52 15 C-36.70344935 2.29683006 -19.34074871 0 0 0 Z " fill="#0B2138" transform="translate(277,309)"/>
<path d="M0 0 C15.51 0 31.02 0 47 0 C47.03738281 6.11789062 47.07476562 12.23578125 47.11328125 18.5390625 C47.14359608 22.44013107 47.17476691 26.34115595 47.20898438 30.2421875 C47.2630854 36.41924701 47.31420295 42.59622011 47.34643555 48.7734375 C47.37265374 53.75974566 47.4131837 58.74575967 47.46318626 63.731884 C47.47973081 65.62379644 47.49132165 67.51575961 47.49761391 69.40773392 C47.55714665 85.67913416 47.83805092 101.42159869 59.75 113.875 C69.49309276 120.24548373 79.61524932 122.25877936 91.0703125 120.5390625 C98.1455858 119.00095961 103.29055806 116.38824877 109 112 C109.886875 111.443125 110.77375 110.88625 111.6875 110.3125 C123.84428055 98.15571945 123.45685009 80.30919641 123.51171875 64.35546875 C123.52859924 62.49073633 123.5467539 60.62601506 123.56611633 58.76130676 C123.61325699 53.89695725 123.64329736 49.03265292 123.66955566 44.16815186 C123.70483385 38.30825254 123.76174249 32.44852669 123.81494904 26.58876801 C123.89304065 17.72586863 123.94396501 8.86318969 124 0 C139.84 0 155.68 0 172 0 C172.02254549 20.71375522 172.04097828 41.42750056 172.05181217 62.14126492 C172.05697552 71.75832495 172.06401895 81.37537684 172.07543945 90.99243164 C172.08538512 99.37151169 172.09185315 107.75058584 172.09408849 116.12967163 C172.0953958 120.56916125 172.09848292 125.00863399 172.10573006 129.44811821 C172.11248842 133.62177273 172.11461734 137.79540333 172.11310768 141.96906281 C172.11338409 143.5054112 172.11539031 145.04176034 172.11920547 146.57810402 C172.12413987 148.66659617 172.12299925 150.75499657 172.12025452 152.8434906 C172.12071541 153.42929004 172.12071541 153.42929004 172.12304783 156.39379025 C172 159 172 159 171 160 C169.55710213 160.09295815 168.10970215 160.11746513 166.66381836 160.11352539 C165.7429393 160.11344986 164.82206024 160.11337433 163.87327576 160.11329651 C162.87224319 160.10813522 161.87121063 160.10297394 160.83984375 160.09765625 C159.82024063 160.0962413 158.80063751 160.09482635 157.75013733 160.09336853 C154.47922893 160.08775097 151.20838787 160.0751955 147.9375 160.0625 C145.72591244 160.05748726 143.51432382 160.05292396 141.30273438 160.04882812 C135.86846346 160.03777583 130.43424316 160.02049944 125 160 C125 154.06 125 148.12 125 142 C123.741875 143.010625 122.48375 144.02125 121.1875 145.0625 C100.75676249 160.88191118 80.20418892 164.40290339 54.7109375 161.60546875 C37.86286089 158.80948173 23.58131675 150.67825506 12.921875 137.4140625 C9.37402871 132.27739808 6.92814533 126.79621371 4.6875 121 C4.44467285 120.37198486 4.2018457 119.74396973 3.95166016 119.09692383 C0.69125828 110.07370973 -0.30209666 100.92948649 -0.22705078 91.38793945 C-0.22734283 90.39146896 -0.22763489 89.39499847 -0.22793579 88.36833191 C-0.22655668 85.11655576 -0.21106308 81.86501673 -0.1953125 78.61328125 C-0.19157732 76.34213893 -0.18873273 74.07099498 -0.18673706 71.79985046 C-0.17914042 65.85364244 -0.15952637 59.9075338 -0.1373291 53.96136475 C-0.11316579 46.81010237 -0.10407078 39.65880656 -0.09242249 32.50751495 C-0.07309942 21.67160774 -0.03474907 10.83591814 0 0 Z " fill="#0B2138" transform="translate(297,312)"/>
<path d="M0 0 C3.47275506 3.07243748 6.44716629 5.97153068 9.0234375 9.8359375 C9.08984375 11.7578125 9.08984375 11.7578125 8.0234375 13.8359375 C5.67616637 15.4259308 3.45209903 16.77095487 0.9609375 18.0859375 C0.29771484 18.44945312 -0.36550781 18.81296875 -1.04882812 19.1875 C-2.68501355 20.08210498 -4.32998974 20.96059817 -5.9765625 21.8359375 C-6.36714844 21.44212891 -6.36714844 21.44212891 -8.34375 19.44921875 C-12.64722271 15.17767091 -15.33159593 13.65024295 -21.4140625 13.4609375 C-27.36493796 13.64490274 -31.05843783 14.81125035 -35.2265625 19.2109375 C-39.05960502 24.96050127 -39.80748543 30.00615632 -38.9765625 36.8359375 C-37.42603176 41.9670753 -35.29381865 46.49354564 -30.9765625 49.8359375 C-26.06811596 51.47208635 -21.09870398 51.33119091 -15.9765625 50.8359375 C-11.86042659 48.77786954 -9.18381682 46.07037194 -5.9765625 42.8359375 C-4.05541165 43.91129867 -2.13980976 44.99657662 -0.2265625 46.0859375 C0.84078125 46.68921875 1.908125 47.2925 3.0078125 47.9140625 C5.76731329 49.67270808 7.82905849 51.42851198 10.0234375 53.8359375 C3.38206876 61.90449399 -2.56743139 67.74205262 -12.8515625 70.6484375 C-13.3671875 70.679375 -13.3671875 70.679375 -15.9765625 70.8359375 C-16.82605469 70.8978125 -17.67554688 70.9596875 -18.55078125 71.0234375 C-28.95295297 71.45856102 -39.18923234 69.31977408 -47.2734375 62.44140625 C-47.83546875 61.91160156 -48.3975 61.38179688 -48.9765625 60.8359375 C-49.24726562 60.59681641 -49.24726562 60.59681641 -50.6171875 59.38671875 C-57.19626998 52.79102243 -60.21465327 42.79145055 -60.4765625 33.6484375 C-59.89144909 21.75640279 -55.77945653 10.63563277 -46.9921875 2.40234375 C-33.77639824 -7.86806612 -13.96611766 -10.15384407 0 0 Z " fill="#0B2138" transform="translate(1803.9765625,400.1640625)"/>
<path d="M0 0 C7.85227651 5.84773409 12.79870276 14.97283806 14.21875 24.65234375 C15.13086961 37.60145161 13.46994642 47.6257603 4.9375 57.78515625 C-2.66077712 66.03964821 -12.57070723 69.4982377 -23.59375 70.02734375 C-33.17941643 69.78919055 -42.55427835 65.90424779 -49.78125 59.65234375 C-58.24344411 50.37362214 -61.27037824 40.2749942 -61.02734375 27.89453125 C-60.20307216 17.03508019 -55.31653657 8.78125724 -47.53125 1.33984375 C-33.55340261 -10.51299306 -14.88355858 -9.63192319 0 0 Z M-36.59375 17.46484375 C-40.5621732 23.24740327 -41.69099878 28.74962492 -40.78125 35.65234375 C-38.95211668 42.04391756 -36.20443876 45.8796907 -30.78125 49.65234375 C-26.41027486 51.83783132 -20.28754461 51.38237762 -15.67578125 50.0390625 C-10.81199055 47.60179873 -7.59302497 43.75752299 -5.78125 38.65234375 C-4.85203668 31.48412669 -5.0030773 24.90587098 -8.78125 18.65234375 C-11.76962288 15.11348113 -14.26292732 12.80819374 -18.78125 11.65234375 C-26.06377637 11.06504324 -31.22095509 12.09204884 -36.59375 17.46484375 Z " fill="#0B2138" transform="translate(1877.78125,401.34765625)"/>
<path d="M0 0 C2.9375 2.5625 2.9375 2.5625 5 5 C5.99283182 6.00711717 6.99141679 7.00865753 8 8 C8.32871094 7.54109375 8.65742187 7.0821875 8.99609375 6.609375 C13.78114782 0.43678492 19.4224996 -2.3674491 27 -4 C33.72248805 -4.53779904 40.45292399 -3.488348 46.0546875 0.44140625 C52.13341975 6.06358135 54.95523138 12.89044731 56 21 C56.13470575 24.84160754 56.11632311 28.67988503 56.09765625 32.5234375 C56.0962413 33.62475006 56.09482635 34.72606262 56.09336853 35.86074829 C56.08778752 39.36552692 56.07523846 42.8702408 56.0625 46.375 C56.05748255 48.75650949 56.05292007 51.13801999 56.04882812 53.51953125 C56.0378243 59.34637897 56.0205727 65.17317852 56 71 C52.7 71.165 52.7 71.165 36 72 C35.96261719 68.76058594 35.92523437 65.52117187 35.88671875 62.18359375 C35.84045619 59.03272906 35.78923965 55.88198094 35.73754883 52.73120117 C35.70437448 50.5480055 35.6763194 48.36472561 35.65356445 46.18139648 C35.61988096 43.03593183 35.56755724 39.89123376 35.51171875 36.74609375 C35.50532883 35.7760289 35.4989389 34.80596405 35.49235535 33.8065033 C35.35400428 27.37319637 34.73632926 22.0295074 30.25 17.0625 C26.94108701 15.49995775 24.62002488 15.56310045 21 16 C16.81117346 17.93330456 15.32346485 19.3084777 13.36010742 23.50585938 C11.62795933 28.45105578 11.52434349 33.20760398 11.48828125 38.40625 C11.47930565 38.8889032 11.47930565 38.8889032 11.43388367 41.3314209 C11.38008802 44.38757068 11.34598394 47.44356706 11.3125 50.5 C11.27929978 52.58335454 11.24480764 54.66668891 11.20898438 56.75 C11.1219684 61.83335166 11.06163682 66.91602512 11 72 C4.73 72 -1.54 72 -8 72 C-9.67251601 68.65496798 -9.05501471 64.89592051 -8.9921875 61.22265625 C-8.97464736 59.41081312 -8.95774142 57.59896377 -8.94140625 55.78710938 C-8.9106514 52.93691614 -8.87540285 50.08703802 -8.82861328 47.23706055 C-8.48441285 25.10961348 -8.48441285 25.10961348 -12 18 C-15.93442849 15.37704768 -20.29373668 15.69010147 -24.87890625 16.31640625 C-28.58960101 17.51230235 -29.90459572 19.7914122 -32 23 C-33.17559964 25.35119928 -33.14888282 26.81165578 -33.18945312 29.43383789 C-33.20617065 30.35141373 -33.22288818 31.26898956 -33.2401123 32.21437073 C-33.25368774 33.20710495 -33.26726318 34.19983917 -33.28125 35.22265625 C-33.29965942 36.23847275 -33.31806885 37.25428925 -33.33703613 38.30088806 C-33.41592408 42.66085003 -33.48360278 47.02097012 -33.55224609 51.38110352 C-33.60383383 54.55753559 -33.66113183 57.7338288 -33.71875 60.91015625 C-33.73232544 61.9049147 -33.74590088 62.89967316 -33.7598877 63.92457581 C-33.77660522 64.83899948 -33.79332275 65.75342316 -33.81054688 66.69555664 C-33.81681091 67.10002266 -33.81681091 67.10002266 -33.84851074 69.14686584 C-34 71 -34 71 -35 72 C-41.27 72 -47.54 72 -54 72 C-54 47.58 -54 23.16 -54 -2 C-47.73 -2 -41.46 -2 -35 -2 C-35 0.64 -35 3.28 -35 6 C-34.45472656 5.52949219 -33.90945313 5.05898438 -33.34765625 4.57421875 C-22.68715921 -4.22752496 -12.63857666 -6.65188245 0 0 Z " fill="#0B2138" transform="translate(1956,398)"/>
<path d="M0 0 C3.26928214 1.81549497 5.4508058 4.07635521 7.375 7.3125 C8.60782254 12.61363692 8.84389514 16.96492955 6.3125 21.8125 C3.90511839 25.13078276 2.81612175 26.58969414 -1 28 C-6.01810805 28.67244329 -9.82425936 28.55580467 -14.4375 26.375 C-18.53054344 22.58144754 -19.82234105 19.59893059 -20.4375 14.0625 C-20.23428376 9.63407939 -18.87486509 6.36818514 -16 3 C-11.16962321 -1.35484747 -6.13057184 -1.92834351 0 0 Z " fill="#0B2138" transform="translate(1727,443)"/>
<path d="M0 0 C0.92425781 -0.02578125 1.84851562 -0.0515625 2.80078125 -0.078125 C7.47525943 0.45320946 10.60489473 2.1481996 13.890625 5.4921875 C14.56609375 6.36101562 15.2415625 7.22984375 15.9375 8.125 C16.70707031 9.1046875 17.47664063 10.084375 18.26953125 11.09375 C19.06746094 12.1353125 19.86539062 13.176875 20.6875 14.25 C21.49574219 15.2915625 22.30398438 16.333125 23.13671875 17.40625 C25.24782079 20.13199775 27.34315223 22.86948466 29.43457031 25.61035156 C31.44870024 28.24614592 33.47522486 30.87237919 35.5 33.5 C36.76704929 35.1477684 38.03351475 36.79598392 39.29980469 38.44433594 C40.2712796 39.70841554 41.24333325 40.97205047 42.21582031 42.23535156 C49.84133328 52.14434133 57.3393906 62.13346462 64.6875 72.25 C64.3575 72.91 64.0275 73.57 63.6875 74.25 C29.83103246 76.69015408 29.83103246 76.69015408 22.49609375 71.2734375 C19.56295895 68.45141198 17.40575792 65.25151253 15.14282227 61.89038086 C11.78872219 58.10977384 6.72565977 56.66449252 1.90234375 55.68359375 C-4.42033036 55.69443882 -8.57685383 56.98617097 -13.3125 61.25 C-14.03179688 62.2296875 -14.75109375 63.209375 -15.4921875 64.21875 C-19.13488296 69.03138334 -22.30892251 72.62954268 -28.43261719 73.89453125 C-36.72130115 74.72959379 -44.99893647 74.50426791 -53.3125 74.25 C-56.64602575 74.22684321 -59.97895773 74.23276249 -63.3125 74.25 C-63.3125 69.40931207 -62.23793598 68.37074404 -59.3125 64.625 C-58.90169189 64.09430908 -58.49088379 63.56361816 -58.06762695 63.0168457 C-56.82623136 61.41946695 -55.57161877 59.83342954 -54.3125 58.25 C-53.66667969 57.43144531 -53.02085938 56.61289062 -52.35546875 55.76953125 C-50.3532591 53.25306986 -48.33393863 50.75104182 -46.3125 48.25 C-37.75716882 37.6274642 -29.25826461 26.96907268 -21.1640625 15.98828125 C-20.6278125 15.26374756 -20.0915625 14.53921387 -19.5390625 13.79272461 C-18.4948421 12.37936592 -17.45552753 10.96236549 -16.421875 9.54125977 C-11.76052368 3.23504985 -8.14452473 0.13517883 0 0 Z " fill="#1FB6A6" transform="translate(1311.3125,200.75)"/>
</svg>
