<?xml version="1.0" encoding="UTF-8"?>
<svg xmlns="http://www.w3.org/2000/svg" width="2172" height="724" viewBox="0 0 2172 724">
<path d="M0 0 C15.51 0 31.02 0 47 0 C47.04010881 20.43766662 47.04010881 20.43766662 47.04882812 29.42578125 C47.05471286 35.46241174 47.06152095 41.49902652 47.07543945 47.53564453 C47.13421604 73.70871458 46.86305888 99.84022269 46 126 C47.25586572 124.9123162 48.51009963 123.82274815 49.76367188 122.73242188 C50.46230347 122.12587769 51.16093506 121.5193335 51.8807373 120.89440918 C55.22848828 117.90185418 58.35740055 114.70495913 61.5 111.5 C65.87637682 107.076311 70.2537596 102.76446607 75.0234375 98.76171875 C78.28218629 95.85718178 81.3013013 92.70420458 84.32128906 89.55371094 C85.51137427 88.33282554 86.75211921 87.1617476 88 86 C88.66 86 89.32 86 90 86 C90 85.34 90 84.68 90 84 C91.69569759 82.33504013 93.54314939 80.90256407 95.39770508 79.41674805 C98 77 98 77 100.31835938 73.77587891 C104.01822637 68.80154442 107.7257118 64.76777467 113.94326782 63.30984497 C122.38743195 62.36320819 130.84412702 62.81588615 139.3125 63.1875 C141.90284929 63.25279748 144.4933571 63.31209749 147.08398438 63.36523438 C153.3928152 63.50760083 159.69566107 63.72432612 166 64 C161.7613185 70.0268644 157.03636895 75.22001135 151.78515625 80.375 C151.39817314 80.75938232 151.39817314 80.75938232 149.43980408 82.70458984 C146.98546567 85.14125624 144.52450682 87.57108402 142.0625 90 C139.60494123 92.429772 137.14893211 94.86106032 134.69590759 97.29541016 C133.17608605 98.80315371 131.65360148 100.30821963 130.12794495 101.81005859 C126.10154821 105.79893522 122.26261382 109.87923763 118.58224487 114.19042969 C115.88854027 117.27114618 112.97652441 120.12946849 110.0625 123 C109.47404297 123.58394531 108.88558594 124.16789062 108.27929688 124.76953125 C106.85520207 126.18204805 105.4279475 127.5913781 104 129 C105.57437061 132.47503564 107.63710096 135.33830687 109.9375 138.375 C110.1341626 138.63482666 110.1341626 138.63482666 111.12939453 139.94970703 C115.55060357 145.76690548 120.07590505 151.50281082 124.60595703 157.23535156 C126.84556093 160.07035279 129.07961517 162.90970518 131.3125 165.75 C131.75835449 166.31702637 132.20420898 166.88405273 132.66357422 167.46826172 C137.06394344 173.07056213 141.43457496 178.69589092 145.8034668 184.32275391 C148.94924407 188.37206424 152.10763122 192.41054771 155.2878418 196.43286133 C159.82443809 202.17380508 164.28453324 207.9683258 168.6875 213.8125 C169.21746582 214.5132666 169.74743164 215.2140332 170.29345703 215.93603516 C174 220.88014684 174 220.88014684 174 222 C166.72460011 222.27930543 159.45037253 222.49186659 152.17067814 222.62174606 C148.78917388 222.68412258 145.41136103 222.76852133 142.03198242 222.90527344 C118.29283324 223.79663851 118.29283324 223.79663851 113.3840332 219.53686523 C111.07758527 216.4486279 109.53343427 213.52515534 108 210 C106.40698242 207.81591797 106.40698242 207.81591797 104.84765625 206.00390625 C104.38665527 205.43269043 103.9256543 204.86147461 103.45068359 204.27294922 C102.99258301 203.70850098 102.53448242 203.14405273 102.0625 202.5625 C97.02899421 196.313622 92.10518676 189.99191123 87.23535156 183.61474609 C85.51243355 181.36269477 83.78030704 179.11778609 82.04882812 176.87231445 C77.99277254 171.61087844 73.96935371 166.32729051 70 161 C65.44140234 162.24325391 63.06055181 164.74834941 59.90234375 168.05859375 C57.33655641 170.67706666 54.58027481 173.03928476 51.796875 175.421875 C51.20390625 175.94265625 50.6109375 176.4634375 50 177 C49.47685715 177.4410054 48.95371429 177.8820108 48.41471863 178.33638 C46.64242897 180.420481 46.60829415 181.48760982 46.56762695 184.19604492 C46.54768677 185.04839722 46.52774658 185.90074951 46.50720215 186.77893066 C46.50095825 187.67043823 46.49471436 188.5619458 46.48828125 189.48046875 C46.47164429 190.30309204 46.45500732 191.12571533 46.43786621 191.9732666 C46.38005863 195.044418 46.34781239 198.11600758 46.3125 201.1875 C46.209375 208.055625 46.10625 214.92375 46 222 C30.82 222 15.64 222 0 222 C0 148.74 0 75.48 0 0 Z " fill="#0B2138" transform="translate(626,273)"/>
<path d="M0 0 C13.53 0 27.06 0 41 0 C42.7325 3.0525 44.465 6.105 46.25 9.25 C51.36044548 18.21727969 56.61571016 27.08757423 61.9453125 35.92578125 C70.57607764 50.24109979 78.99306654 64.6794578 87.33203125 79.16625977 C97.12090883 96.16938874 107.0344516 113.09989949 117 130 C119.35704744 126.04337721 121.71091777 122.08487297 124.0625 118.125 C124.42280304 117.51832489 124.78310608 116.91164978 125.15432739 116.28659058 C130.31888052 107.58463715 135.40823031 98.84354928 140.4375 90.0625 C145.99962067 80.36100686 151.73873074 70.78324477 157.57366943 61.24487305 C163.52647739 51.50829646 169.27596159 41.67215835 174.94897461 31.76953125 C178.59423729 25.41292841 182.29397545 19.11223093 186.19140625 12.90625 C188.84809112 8.63719267 191.41301092 4.31164847 194 0 C206.87 0 219.74 0 233 0 C233 69.63 233 139.26 233 211 C218.48 211 203.96 211 189 211 C188.84697186 195.64929917 188.69813981 180.29857049 188.5570364 164.94775581 C188.49138711 157.82044691 188.42382834 150.69316557 188.35180664 143.56591797 C188.28236091 136.69306039 188.21819369 129.82016994 188.15730476 122.94723129 C188.13315224 120.31966343 188.10720417 117.69211146 188.07946587 115.06457901 C188.04103953 111.39610533 188.00888763 107.72762801 187.97827148 104.05908203 C187.97179848 103.51098373 187.97179848 103.51098373 187.93904114 100.73727417 C187.93552139 100.23946442 187.93552139 100.23946442 187.91770935 97.72024536 C187.91356128 97.28608087 187.91356128 97.28608087 187.89256954 95.08894539 C188 93 188 93 189 91 C186.16033392 93.53591802 184.4403057 96.39866872 182.5234375 99.671875 C181.85755615 100.80318848 181.1916748 101.93450195 180.50561523 103.10009766 C179.79538823 104.31671897 179.08518361 105.53335335 178.375 106.75 C177.64252314 107.99688452 176.90952932 109.24346549 176.17602539 110.48974609 C174.74314122 112.92481677 173.31200174 115.36089695 171.88232422 117.79785156 C169.75363635 121.4191058 167.60294462 125.02562373 165.4375 128.625 C165.10419678 129.17929687 164.77089355 129.73359375 164.42749023 130.3046875 C163.70713497 131.50243895 162.98649971 132.70002205 162.265625 133.89746094 C159.48703195 138.51344152 156.71161359 143.13132617 153.9375 147.75 C153.3081958 148.79752441 152.6788916 149.84504883 152.03051758 150.92431641 C148.50617455 156.79836865 144.99829205 162.68159739 141.51171875 168.578125 C141.14334396 169.20096375 140.77496918 169.82380249 140.39543152 170.46551514 C138.59970719 173.50263507 136.80613831 176.5410036 135.01538086 179.58105469 C134.3735083 180.66805664 133.73163574 181.75505859 133.0703125 182.875 C132.50070801 183.84179688 131.93110352 184.80859375 131.34423828 185.8046875 C130 188 130 188 129 189 C107.95658121 191.94990675 107.95658121 191.94990675 100.9140625 186.69921875 C99.23451891 183.853916 97.92429044 181.06252257 96.78564453 177.96240234 C95.41686593 174.54343329 93.42101335 171.50589333 91.5 168.375 C90.64410428 166.92105092 89.79141166 165.465213 88.94140625 164.0078125 C85.46274467 158.07511769 81.94804504 152.16386256 78.4375 146.25 C74.06187609 138.876856 69.69837588 131.4970083 65.3671875 124.09765625 C64.98492508 123.4446756 64.60266266 122.79169495 64.20881653 122.118927 C62.36110174 118.96162529 60.5152218 115.80326604 58.67163086 112.64355469 C55.85069443 107.81599519 53.02800799 103.0020194 50.01171875 98.29296875 C48 95 48 95 48 93 C47.34 93 46.68 93 46 93 C46 131.94 46 170.88 46 211 C30.82 211 15.64 211 0 211 C0 141.37 0 71.74 0 0 Z " fill="#0B2138" transform="translate(821,284)"/>
<path d="M0 0 C18.85433697 16.25845 26.56409602 36.69177596 28.37109375 61.10546875 C28.44133077 63.30760585 28.35403111 65.42751337 28.1875 67.625 C28.14753906 68.16576172 28.14753906 68.16576172 27.9453125 70.90234375 C25.91402928 90.65553671 18.08756692 106.44029007 4.1875 120.625 C3.53523438 121.31335938 2.88296875 122.00171875 2.2109375 122.7109375 C-13.69141793 138.24489859 -37.8104927 144.53284501 -59.5 144.9375 C-85.07074093 144.16066736 -109.10633648 136.28603086 -127.53125 117.9140625 C-144.48892485 98.81050904 -149.23631094 77.63405471 -148.03125 52.60644531 C-146.79842816 35.80374402 -139.09286239 19.989569 -127.8125 7.625 C-127.29558594 7.0165625 -126.77867188 6.408125 -126.24609375 5.78125 C-95.70813983 -27.89468916 -33.97816996 -26.82733089 0 0 Z M-92.28125 32.640625 C-99.17577433 41.57536572 -101.16258827 51.40910226 -101.125 62.4375 C-101.14111328 63.37142578 -101.15722656 64.30535156 -101.17382812 65.26757812 C-101.18255037 77.83633385 -96.98935836 87.17302967 -88.5625 96.375 C-79.69798765 104.82766553 -68.3921381 107.06955349 -56.53125 106.87109375 C-45.49672088 106.14086756 -35.96779908 101.33809902 -28.4375 93.25 C-18.91763677 81.77242296 -17.79533333 69.10405616 -18.8125 54.625 C-20.27835727 43.09803149 -25.69997236 33.3546376 -34.78125 26.0546875 C-52.65860684 13.47177865 -77.4314316 16.81015821 -92.28125 32.640625 Z " fill="#0B2138" transform="translate(1225.8125,353.375)"/>
<path d="M0 0 C18.41674789 -0.5763064 37.88616724 4.47141182 51.625 17.2578125 C69.27030099 36.24241527 69.68706305 59.14298459 69.56640625 83.62109375 C69.5626688 85.86552809 69.55982529 88.10996407 69.55783081 90.35440063 C69.55025199 96.2167219 69.53065388 102.07894158 69.50842285 107.94122314 C69.48421053 114.99911399 69.47515603 122.05703909 69.46351624 129.11495972 C69.4442254 139.79676221 69.40586276 150.47834249 69.37109375 161.16015625 C54.19109375 161.16015625 39.01109375 161.16015625 23.37109375 161.16015625 C23.3453125 154.59753906 23.31953125 148.03492188 23.29296875 141.2734375 C23.26777659 137.094363 23.24142537 132.91535918 23.2109375 128.73632812 C23.16274704 122.11580213 23.11864815 115.49543992 23.10009766 108.87475586 C23.08485717 103.53179164 23.05028139 98.18925841 23.00278473 92.84648705 C22.98804682 90.8169856 22.98005714 88.78742259 22.9792099 86.75786781 C22.95550378 58.42228286 22.95550378 58.42228286 14.37109375 49.16015625 C4.86748094 42.28626467 -3.97300849 40.12553162 -15.62890625 41.16015625 C-25.84845603 43.11286199 -34.35890615 47.16761173 -40.50390625 55.78515625 C-46.74019725 67.48251601 -46.09849067 80.82267236 -46.140625 93.6796875 C-46.15750312 95.63410039 -46.17565749 97.58850263 -46.19502258 99.54289246 C-46.24218874 104.64397858 -46.27221287 109.74502153 -46.29846191 114.84625244 C-46.33372358 120.98981814 -46.39063977 127.1332181 -46.44385529 133.27664948 C-46.52197692 142.57112958 -46.57287882 151.8653986 -46.62890625 161.16015625 C-61.80890625 161.16015625 -76.98890625 161.16015625 -92.62890625 161.16015625 C-92.62890625 109.02015625 -92.62890625 56.88015625 -92.62890625 3.16015625 C-78.10890625 3.16015625 -63.58890625 3.16015625 -48.62890625 3.16015625 C-48.46390625 5.96515625 -48.46390625 5.96515625 -47.62890625 20.16015625 C-46.47390625 19.00515625 -45.31890625 17.85015625 -44.12890625 16.66015625 C-31.86471586 5.76940043 -16.09370921 0.98044885 0 0 Z " fill="#0B2138" transform="translate(1363.62890625,333.83984375)"/>
<path d="M0 0 C22.44953644 -0.70634656 43.5045016 6.40090006 60.41796875 21.16015625 C61.03285156 21.67964844 61.64773438 22.19914062 62.28125 22.734375 C76.31633074 35.54340271 83.78564275 55.63495648 85.41796875 74.16015625 C85.54423634 77.07877908 85.55853339 79.9891921 85.54296875 82.91015625 C85.54683594 83.65136719 85.55070312 84.39257812 85.5546875 85.15625 C85.54827134 88.73005207 85.29100052 91.66802916 84.41796875 95.16015625 C44.81796875 95.16015625 5.21796875 95.16015625 -35.58203125 95.16015625 C-30.62885494 108.7813911 -25.89242535 116.22194137 -12.890625 122.44921875 C0.12329546 127.84097715 16.15386599 128.31076836 29.44140625 123.50390625 C35.84608113 120.61255696 42.63568092 117.4399304 47.41796875 112.16015625 C50.40900582 113.49234309 52.38025616 114.91321794 54.58984375 117.3203125 C55.16847168 117.94542725 55.74709961 118.57054199 56.34326172 119.21459961 C56.94541504 119.8772583 57.54756836 120.53991699 58.16796875 121.22265625 C58.78687988 121.89498291 59.40579102 122.56730957 60.04345703 123.26000977 C64.55769186 128.17631024 69.02948396 133.13111623 73.41796875 138.16015625 C61.23036694 153.87574806 41.65606262 161.08916119 22.44140625 163.78515625 C-2.6793272 166.54208198 -30.73640348 162.34092226 -51.36132812 146.82128906 C-55.01325391 143.82773263 -58.30543626 140.55608095 -61.58203125 137.16015625 C-62.31808594 136.45503906 -63.05414062 135.74992188 -63.8125 135.0234375 C-75.51740607 123.13741102 -81.8939086 104.61526301 -82.58203125 88.16015625 C-82.62199219 87.34804688 -82.66195313 86.5359375 -82.703125 85.69921875 C-83.30166835 61.68706774 -74.76911581 41.05323009 -58.51953125 23.66015625 C-42.69572266 8.29228791 -21.6701771 1.34414109 0 0 Z M-26.45703125 46.28515625 C-31.87245264 52.2447744 -35.76739719 60.14182953 -36.58203125 68.16015625 C-34.68575643 70.05643107 -31.34636626 69.28799033 -28.83081055 69.28955078 C-28.12507904 69.2913031 -27.41934753 69.29305542 -26.69223022 69.29486084 C-24.34687884 69.29928078 -22.00160222 69.29633994 -19.65625 69.29296875 C-18.03058355 69.29364198 -16.4049172 69.29461216 -14.7792511 69.29586792 C-11.36527553 69.29734527 -7.95132606 69.29519 -4.53735352 69.29052734 C-0.1624807 69.28484358 4.21233059 69.28810022 8.58720112 69.29409981 C11.94750938 69.297716 15.3078031 69.29656172 18.6681118 69.29397202 C20.28084508 69.29330497 21.89357968 69.2941234 23.50631142 69.29645157 C25.76376454 69.29899392 28.02111869 69.29511454 30.27856445 69.28955078 C30.92103371 69.28915298 30.92103371 69.28915298 34.1723175 69.28713989 C36.80371132 69.18418861 38.92613323 68.9490454 41.41796875 68.16015625 C39.63258209 57.93475994 35.69803062 49.69046919 27.41796875 43.16015625 C10.80468181 31.92936726 -11.20451698 32.57465441 -26.45703125 46.28515625 Z " fill="#0B2138" transform="translate(1540.58203125,333.83984375)"/>
<path d="M0 0 C0 14.19 0 28.38 0 43 C-5.61 43 -11.22 43 -17 43 C-29.61059219 44.37343083 -41.65091594 47.85816783 -50 58 C-54.43584846 65.68029397 -56.12824846 72.46716838 -56.31640625 81.25 C-56.33723267 82.08041306 -56.35805908 82.91082611 -56.3795166 83.7664032 C-56.44597664 86.51083879 -56.50472608 89.25536866 -56.5625 92 C-56.58367889 92.93719879 -56.60485779 93.87439758 -56.62667847 94.83999634 C-57.11265204 116.55931219 -57.10269989 138.27660418 -57 160 C-72.20818493 167.60409247 -90.99673234 161 -108 161 C-108 108.86 -108 56.72 -108 3 C-91.83 3 -75.66 3 -59 3 C-58.835 5.97 -58.835 5.97 -58 21 C-56.63875 19.659375 -55.2775 18.31875 -53.875 16.9375 C-38.84801508 3.51451909 -19.55184927 0 0 0 Z " fill="#0B2138" transform="translate(402,334)"/>
<path d="M0 0 C0.01030746 0.92469086 0.02061493 1.84938171 0.03123474 2.80209351 C0.12997847 11.59679207 0.23258825 20.39143573 0.33933926 29.18604088 C0.39406519 33.70538661 0.44739341 38.22473907 0.49731445 42.74414062 C0.54571455 47.12087169 0.59806392 51.49754062 0.65294075 55.8741951 C0.67302815 57.52837156 0.69178777 59.18256481 0.70907402 60.83677292 C0.8004111 69.49011151 0.98786087 78.13190753 1.41430664 86.77587891 C1.44657821 87.51085791 1.47884977 88.24583691 1.51209927 89.003088 C1.96988222 97.36406802 4.1759392 105.23473155 10.03125 111.43359375 C19.1455101 118.68521736 29.58759501 121.04674288 41 120 C53.29763593 117.30943518 62.19234529 113.40549195 69.33984375 102.84765625 C74.14064753 94.61286577 75.13437551 86.02427693 75.20532227 76.60791016 C75.21522186 75.78773407 75.22512146 74.96755798 75.23532104 74.12252808 C75.2667542 71.4280683 75.29162111 68.73359093 75.31640625 66.0390625 C75.3369915 64.16433266 75.35798838 62.2896073 75.37937927 60.41488647 C75.43443769 55.49289589 75.48391822 50.57086455 75.53222656 45.64880371 C75.59141809 39.73657293 75.65755635 33.82441626 75.72252655 27.9122467 C75.82033172 18.94154326 75.90932749 9.97079115 76 1 C91.51 1 107.02 1 123 1 C123 53.14 123 105.28 123 159 C107.82 159 92.64 159 77 159 C77 153.06 77 147.12 77 141 C75.515 142.216875 74.03 143.43375 72.5 144.6875 C54.05143986 159.34313939 33.61496772 163.19903498 10.44580078 160.72753906 C-6.97772699 158.20321922 -23.76387934 150.20291266 -34.75 136.25 C-44.52313465 122.57782731 -48.17923388 107.65540495 -48.11352539 91.02563477 C-48.11367142 90.04925552 -48.11381744 89.07287628 -48.1139679 88.06690979 C-48.11327447 84.85838555 -48.10550887 81.64992028 -48.09765625 78.44140625 C-48.09579004 76.20938651 -48.0943671 73.97736636 -48.09336853 71.74534607 C-48.08955932 65.88460144 -48.07974269 60.02388177 -48.06866455 54.16314697 C-48.05841608 48.17712746 -48.05386356 42.19110389 -48.04882812 36.20507812 C-48.03811896 24.47004114 -48.02106175 12.73502265 -48 1 C-31.98937135 0.23845713 -16.02862903 -0.14834983 0 0 Z " fill="#0B2138" transform="translate(467,336)"/>
<path d="M0 0 C15.84 0 31.68 0 48 0 C54.87856014 14.90354698 54.87856014 14.90354698 57.70703125 22.015625 C57.86850647 22.41721832 57.86850647 22.41721832 58.68566895 24.44952393 C59.37450662 26.16300046 60.06199497 27.87701998 60.74819946 29.59155273 C62.59510813 34.20482608 64.45343726 38.81348857 66.3125 43.421875 C66.69513504 44.370625 67.07777008 45.319375 67.47200012 46.296875 C72.38493114 58.45735271 77.42476744 70.56516937 82.46606445 82.67285156 C83.14020408 84.29228967 83.81427881 85.91175479 84.48828125 87.53125 C84.80315994 88.28774841 85.11803864 89.04424683 85.44245911 89.82366943 C87.67545235 95.19714846 89.86956896 100.58490357 92 106 C96.42889298 97.59555538 100.06807238 88.89649365 103.6875 80.125 C104.33371654 78.56608481 104.98012441 77.00724891 105.62670898 75.44848633 C112.47097641 58.9285164 119.24368342 42.3787279 126.00390625 25.82421875 C126.34848373 24.98066833 126.69306122 24.13711792 127.04808044 23.26800537 C128.65668191 19.32269581 130.2538161 15.37347541 131.82373047 11.41259766 C132.10280746 10.70899612 132.38188446 10.00539459 132.66941833 9.2804718 C133.41115696 7.40525854 134.14896965 5.52849369 134.88647461 3.65161133 C136 1 136 1 137 0 C138.38160115 -0.0927833 139.76788038 -0.11747043 141.15258789 -0.11352539 C142.03342545 -0.11344986 142.914263 -0.11337433 143.8217926 -0.11329651 C144.77907761 -0.10813522 145.73636261 -0.10297394 146.72265625 -0.09765625 C147.21026176 -0.09694878 147.21026176 -0.09694878 149.67784119 -0.09336853 C152.80609143 -0.08775133 155.93427123 -0.07519593 159.0625 -0.0625 C161.17773334 -0.05748722 163.29296781 -0.05292393 165.40820312 -0.04882812 C170.60549296 -0.03777631 175.80274145 -0.02102146 181 0 C179.20311171 6.33402609 177.15476601 12.42717698 174.578125 18.484375 C174.41183594 18.88091782 174.41183594 18.88091782 173.5703125 20.88766479 C172.46863434 23.51061937 171.35945701 26.13032728 170.25 28.75 C169.45899005 30.62795776 168.66830843 32.50605384 167.87792969 34.38427734 C158.96416124 55.54044025 149.94685134 76.65305813 140.93583679 97.76792908 C137.40430514 106.04564062 133.89077596 114.33083724 130.38491821 122.6194458 C128.22669107 127.71849667 126.05996805 132.81393406 123.890625 137.90826416 C123.2653278 139.37684696 122.64035633 140.84556848 122.015625 142.31439209 C119.88898274 147.31312992 117.75488685 152.30859259 115.61227417 157.30050659 C114.92686201 158.89981492 114.24344188 160.49997884 113.56228638 162.10110474 C104.25547433 183.96482408 94.22763332 204.48291593 71 214 C52.01043924 220.56049603 31.29340029 219.15642877 13 211 C9.13958762 208.93597223 5.32591807 206.86436209 2 204 C2 199.96927879 3.75774463 197.12602817 5.5625 193.625 C5.92021484 192.92052734 6.27792969 192.21605469 6.64648438 191.49023438 C9.99131299 184.93625802 13.46425246 178.45273925 17 172 C20.60681758 172 21.81106642 172.94781223 24.8125 174.875 C32.99731195 180.1285072 40.40995701 180.85029562 50 180 C56.77862693 178.36175008 61.19897578 174.76832749 65 169 C67.35202615 165.11441834 68.36989878 161.77340388 67.6003418 157.20996094 C66.19415489 152.0335462 63.69340131 147.22313941 61.4375 142.375 C60.23839759 139.75752155 59.04690054 137.1366023 57.85546875 134.515625 C57.54215607 133.82828278 57.22884338 133.14094055 56.90603638 132.43276978 C53.24365418 124.37798903 49.74701621 116.25258137 46.25 108.125 C44.89504249 104.9802483 43.53936525 101.8358071 42.18359375 98.69140625 C41.84249573 97.90002762 41.50139771 97.10864899 41.14996338 96.29328918 C37.23030199 87.20495781 33.27147696 78.13375557 29.3125 69.0625 C9.84785519 24.44474113 9.84785519 24.44474113 3.1875 8.6875 C2.85548584 7.90407227 2.52347168 7.12064453 2.18139648 6.31347656 C0 1.12224448 0 1.12224448 0 0 Z " fill="#0B2138" transform="translate(1625,337)"/>
<path d="M0 0 C3.01443588 2.0813962 4.78397217 3.62610568 6.625 6.8125 C7.35412122 10.85133999 7.0487502 13.90446386 5.3125 17.625 C2.84386433 20.82508327 1.51829386 22.51473538 -2.375 23.8125 C-15.06042373 24.76436441 -15.06042373 24.76436441 -20.375 20.8125 C-23.38182104 17.30454212 -23.84942556 14.21227142 -23.6640625 9.73828125 C-23.08312605 5.86798845 -21.25159513 3.57952074 -18.375 1.0625 C-12.86376333 -2.38202292 -5.96155379 -2.09758374 0 0 Z " fill="#0B2138" transform="translate(1956.375,371.1875)"/>
<path d="M0 0 C7.76474462 7.49757061 10.9199793 16.84753891 11.15698242 27.48876953 C11.15651299 30.01730236 11.13989575 32.54587009 11.109375 35.07421875 C11.10376602 36.42755661 11.09950209 37.78090065 11.09651184 39.13424683 C11.08516521 42.66228643 11.05578878 46.18994384 11.0223999 49.71783447 C10.99147662 53.33136834 10.97795941 56.94496515 10.96289062 60.55859375 C10.93090679 67.62386742 10.87822495 74.68882135 10.81640625 81.75390625 C2.56640625 81.75390625 -5.68359375 81.75390625 -14.18359375 81.75390625 C-14.18359375 78.78390625 -14.18359375 75.81390625 -14.18359375 72.75390625 C-14.84359375 72.75390625 -15.50359375 72.75390625 -16.18359375 72.75390625 C-16.34859375 73.24890625 -16.34859375 73.24890625 -17.18359375 75.75390625 C-27.12107734 83.36683228 -36.98534912 84.60063907 -49.18359375 83.75390625 C-59.57644838 82.17399486 -67.16399315 78.64304216 -73.95703125 70.59765625 C-78.37986324 63.94932281 -77.8270058 56.40969521 -77.18359375 48.75390625 C-75.58754292 42.52261799 -71.53586641 38.16357711 -66.18359375 34.75390625 C-58.67434057 31.13234039 -52.23275721 29.60028445 -43.91796875 29.65625 C-43.12457092 29.65766495 -42.3311731 29.6590799 -41.51373291 29.66053772 C-38.98698103 29.6661221 -36.46031871 29.67867171 -33.93359375 29.69140625 C-32.2174492 29.69642327 -30.50130326 29.70098582 -28.78515625 29.70507812 C-24.58460106 29.71608641 -20.38411258 29.73334029 -16.18359375 29.75390625 C-16.46165404 28.14672908 -16.75173596 26.54162871 -17.046875 24.9375 C-17.20712158 24.04345459 -17.36736816 23.14940918 -17.5324707 22.22827148 C-18.80625598 17.38769637 -22.01644093 15.48971998 -26.05859375 12.94140625 C-36.36719276 9.04206662 -48.35336627 11.79800044 -58.18359375 15.75390625 C-60.19511214 16.7305299 -62.19855891 17.72451969 -64.18359375 18.75390625 C-66.18359375 15.42057292 -68.18359375 12.08723958 -70.18359375 8.75390625 C-70.74433594 7.88121094 -71.30507812 7.00851562 -71.8828125 6.109375 C-73.18359375 3.75390625 -73.18359375 3.75390625 -73.18359375 0.75390625 C-64.68594046 -3.83432371 -56.76546751 -7.44769402 -47.18359375 -9.24609375 C-46.59578125 -9.35953125 -46.59578125 -9.35953125 -43.62109375 -9.93359375 C-28.43275685 -11.31435165 -12.26177521 -9.88373396 0 0 Z M-49.99609375 49.50390625 C-51.69095981 52.71523142 -51.50305378 55.17595391 -51.18359375 58.75390625 C-49.58165091 62.89096252 -47.52066536 64.18760331 -43.59765625 65.9921875 C-37.97742114 67.76556266 -31.80941681 67.67307613 -26.30859375 65.50390625 C-21.73315573 62.94166096 -18.13334653 60.74632256 -16.18359375 55.75390625 C-15.98828125 52.95703125 -15.98828125 52.95703125 -16.05859375 50.00390625 C-16.07664062 49.0190625 -16.0946875 48.03421875 -16.11328125 47.01953125 C-16.13648438 46.271875 -16.1596875 45.52421875 -16.18359375 44.75390625 C-20.57930169 44.66668095 -24.97478646 44.61343756 -29.37109375 44.56640625 C-30.61697266 44.54126953 -31.86285156 44.51613281 -33.14648438 44.49023438 C-34.34853516 44.48056641 -35.55058594 44.47089844 -36.7890625 44.4609375 C-37.89403076 44.44522705 -38.99899902 44.4295166 -40.13745117 44.41333008 C-44.38519874 44.88825256 -46.96150258 46.57395616 -49.99609375 49.50390625 Z " fill="#0B2138" transform="translate(1906.18359375,413.24609375)"/>
<path d="M0 0 C8.91 0 17.82 0 27 0 C27 29.7 27 59.4 27 90 C18.42 90 9.84 90 1 90 C-0.82238662 88.17761338 -0.11997696 85.65243917 -0.12442017 83.2275238 C-0.12082489 82.39890335 -0.11722961 81.5702829 -0.11352539 80.71655273 C-0.11367142 79.84833893 -0.11381744 78.98012512 -0.1139679 78.08560181 C-0.11326846 75.20157414 -0.10547463 72.3176102 -0.09765625 69.43359375 C-0.09579218 67.43962133 -0.09436823 65.44564845 -0.09336853 63.45167542 C-0.08954248 58.19254298 -0.07971145 52.93343797 -0.06866455 47.67431641 C-0.0584523 42.31217825 -0.05387131 36.95003569 -0.04882812 31.58789062 C-0.03808926 21.05857973 -0.02049176 10.52929643 0 0 Z " fill="#0B2138" transform="translate(1934,405)"/>
<path d="M0 0 C2.8973603 1.49842024 4.74062655 3.29367644 6.6953125 5.87890625 C8.59877116 12.03715486 8.91705373 17.86416518 6.1328125 23.75390625 C2.64730569 27.51458465 0.17279907 29.9913119 -5.0859375 30.69921875 C-9.84886801 30.87606023 -13.35814039 30.71107014 -17.7421875 28.75390625 C-22.12839237 24.4773565 -24.44328921 20.85914892 -24.6796875 14.75390625 C-24.47064412 10.65665608 -23.56773392 7.76463025 -21.2421875 4.31640625 C-15.05119326 -1.27058855 -8.13048202 -2.4788055 0 0 Z " fill="#0B2138" transform="translate(1810.2421875,465.68359375)"/>
<path d="M0 0 C8.68340747 5.09754689 14.42088595 14.56934397 20.28759766 22.52172852 C23.54687875 26.92201625 26.92585359 31.1645606 30.5 35.3125 C34.50525311 39.96167074 38.31589416 44.71235058 42.02685547 49.59912109 C45.32455761 53.9347714 48.71070023 58.19322218 52.125 62.4375 C63.875 77.08272379 63.875 77.08272379 63.875 79.625 C57.82888273 79.92416084 51.78716407 80.14049943 45.73535156 80.28417969 C43.68250425 80.34412154 41.63016047 80.42571481 39.57910156 80.53027344 C21.56562004 81.42480855 21.56562004 81.42480855 15.97753906 77.0300293 C13.85333062 75.02732866 12.03874774 72.89567272 10.26171875 70.58374023 C5.92988909 65.21370712 -0.41899726 61.89178511 -7.1875 60.5625 C-15.96701585 60.70185739 -22.72020278 63.70554901 -29.125 69.625 C-29.70749512 70.45040283 -30.28999023 71.27580566 -30.89013672 72.1262207 C-33.92062618 76.10024657 -36.55747044 79.05166078 -41.49816895 80.15493774 C-48.40557405 80.88812112 -55.32473836 80.53496806 -62.25 80.25 C-64.37229091 80.19977785 -66.49469609 80.15416128 -68.6171875 80.11328125 C-73.78930383 80.00369705 -78.95588338 79.8315105 -84.125 79.625 C-80.11183527 71.32186313 -73.20555335 64.50349301 -67.25952148 57.50732422 C-62.8108787 52.26993668 -58.45824514 46.95822479 -54.125 41.625 C-53.10435566 40.37484568 -52.08350933 39.12485625 -51.0625 37.875 C-45.74039233 31.35240499 -40.4498866 24.80809094 -35.25 18.1875 C-34.7960083 17.61233643 -34.3420166 17.03717285 -33.87426758 16.44458008 C-31.92103974 13.96097937 -30.00879767 11.4628734 -28.16796875 8.89453125 C-21.29533102 -0.61546182 -11.50653164 -4.81348933 0 0 Z " fill="#1FB6A6" transform="translate(1358.125,231.375)"/>
</svg>
